<?xml version="1.0" encoding="UTF-8" standalone="no"?>
<!-- Created with Inkscape (http://www.inkscape.org/) -->

<svg
   xmlns:dc="http://purl.org/dc/elements/1.1/"
   xmlns:cc="http://creativecommons.org/ns#"
   xmlns:rdf="http://www.w3.org/1999/02/22-rdf-syntax-ns#"
   xmlns:svg="http://www.w3.org/2000/svg"
   xmlns="http://www.w3.org/2000/svg"
   xmlns:sodipodi="http://sodipodi.sourceforge.net/DTD/sodipodi-0.dtd"
   xmlns:inkscape="http://www.inkscape.org/namespaces/inkscape"
   sodipodi:docname="coherence0.svg"
   inkscape:version="0.91 r13725"
   version="1.1"
   id="svg6061"
   viewBox="0 0 1350 764.99999"
   height="8.5in"
   width="15in"
   inkscape:export-filename="/home/siva/Projects/reu/HoTT/paper/pictures/translation0.png"
   inkscape:export-xdpi="90"
   inkscape:export-ydpi="90">
  <sodipodi:namedview
     inkscape:window-maximized="1"
     inkscape:window-y="27"
     inkscape:window-x="0"
     inkscape:window-height="1016"
     inkscape:window-width="1920"
     units="in"
     showgrid="false"
     inkscape:current-layer="layer1"
     inkscape:document-units="px"
     inkscape:cy="490.70875"
     inkscape:cx="509.88809"
     inkscape:zoom="0.7"
     inkscape:pageshadow="2"
     inkscape:pageopacity="0.0"
     borderopacity="1.0"
     bordercolor="#666666"
     pagecolor="#ffffff"
     id="base" />
  <defs
     id="defs6063">
    <marker
       inkscape:stockid="TriangleInL"
       orient="auto"
       refY="0"
       refX="0"
       id="marker12376"
       style="overflow:visible"
       inkscape:isstock="true">
      <path
         inkscape:connector-curvature="0"
         id="path12378"
         d="m 5.77,0 -8.65,5 0,-10 8.65,5 z"
         style="fill:#0000b5;fill-opacity:1;fill-rule:evenodd;stroke:#0000b5;stroke-width:1pt;stroke-opacity:1"
         transform="scale(-0.8,-0.8)" />
    </marker>
    <marker
       inkscape:stockid="TriangleInL"
       orient="auto"
       refY="0"
       refX="0"
       id="marker12280"
       style="overflow:visible"
       inkscape:isstock="true">
      <path
         inkscape:connector-curvature="0"
         id="path12282"
         d="m 5.77,0 -8.65,5 0,-10 8.65,5 z"
         style="fill:#0000b9;fill-opacity:1;fill-rule:evenodd;stroke:#0000b9;stroke-width:1pt;stroke-opacity:1"
         transform="scale(-0.8,-0.8)" />
    </marker>
    <marker
       inkscape:isstock="true"
       style="overflow:visible"
       id="Arrow1Mstart"
       refX="0"
       refY="0"
       orient="auto"
       inkscape:stockid="Arrow1Mstart">
      <path
         inkscape:connector-curvature="0"
         transform="matrix(0.4,0,0,0.4,4,0)"
         style="fill:#0000d9;fill-opacity:1;fill-rule:evenodd;stroke:#0000d9;stroke-width:1pt;stroke-opacity:1"
         d="M 0,0 5,-5 -12.5,0 5,5 0,0 Z"
         id="path11276" />
    </marker>
    <marker
       inkscape:isstock="true"
       style="overflow:visible"
       id="marker12174"
       refX="0"
       refY="0"
       orient="auto"
       inkscape:stockid="TriangleInL">
      <path
         inkscape:connector-curvature="0"
         transform="scale(-0.8,-0.8)"
         style="fill:#0000b3;fill-opacity:1;fill-rule:evenodd;stroke:#0000b3;stroke-width:1pt;stroke-opacity:1"
         d="m 5.77,0 -8.65,5 0,-10 8.65,5 z"
         id="path12176" />
    </marker>
    <marker
       inkscape:isstock="true"
       style="overflow:visible"
       id="TriangleOutM"
       refX="0"
       refY="0"
       orient="auto"
       inkscape:stockid="TriangleOutM">
      <path
         inkscape:connector-curvature="0"
         transform="scale(0.4,0.4)"
         style="fill:#0000d9;fill-opacity:1;fill-rule:evenodd;stroke:#0000d9;stroke-width:1pt;stroke-opacity:1"
         d="m 5.77,0 -8.65,5 0,-10 8.65,5 z"
         id="path11415" />
    </marker>
    <marker
       inkscape:isstock="true"
       style="overflow:visible"
       id="Arrow1Lstart"
       refX="0"
       refY="0"
       orient="auto"
       inkscape:stockid="Arrow1Lstart">
      <path
         inkscape:connector-curvature="0"
         transform="matrix(0.8,0,0,0.8,10,0)"
         style="fill:#0000d9;fill-opacity:1;fill-rule:evenodd;stroke:#0000d9;stroke-width:1pt;stroke-opacity:1"
         d="M 0,0 5,-5 -12.5,0 5,5 0,0 Z"
         id="path11270" />
    </marker>
    <marker
       inkscape:isstock="true"
       style="overflow:visible"
       id="TriangleInL"
       refX="0"
       refY="0"
       orient="auto"
       inkscape:stockid="TriangleInL">
      <path
         inkscape:connector-curvature="0"
         transform="scale(-0.8,-0.8)"
         style="fill:#0000d9;fill-opacity:1;fill-rule:evenodd;stroke:#0000d9;stroke-width:1pt;stroke-opacity:1"
         d="m 5.77,0 -8.65,5 0,-10 8.65,5 z"
         id="path11403" />
    </marker>
    <marker
       inkscape:isstock="true"
       style="overflow:visible"
       id="Arrow2Lend"
       refX="0"
       refY="0"
       orient="auto"
       inkscape:stockid="Arrow2Lend">
      <path
         inkscape:connector-curvature="0"
         transform="matrix(-1.1,0,0,-1.1,-1.1,0)"
         d="M 8.7185878,4.0337352 -2.2072895,0.01601326 8.7185884,-4.0017078 c -1.7454984,2.3720609 -1.7354408,5.6174519 -6e-7,8.035443 z"
         style="fill:#000000;fill-opacity:1;fill-rule:evenodd;stroke:#000000;stroke-width:0.625;stroke-linejoin:round;stroke-opacity:1"
         id="path11291" />
    </marker>
    <marker
       inkscape:isstock="true"
       style="overflow:visible"
       id="Arrow1Lend"
       refX="0"
       refY="0"
       orient="auto"
       inkscape:stockid="Arrow1Lend">
      <path
         inkscape:connector-curvature="0"
         transform="matrix(-0.8,0,0,-0.8,-10,0)"
         style="fill:#000000;fill-opacity:1;fill-rule:evenodd;stroke:#000000;stroke-width:1pt;stroke-opacity:1"
         d="M 0,0 5,-5 -12.5,0 5,5 0,0 Z"
         id="path11273" />
    </marker>
  </defs>
  <metadata
     id="metadata6066">
    <rdf:RDF>
      <cc:Work
         rdf:about="">
        <dc:format>image/svg+xml</dc:format>
        <dc:type
           rdf:resource="http://purl.org/dc/dcmitype/StillImage" />
        <dc:title></dc:title>
      </cc:Work>
    </rdf:RDF>
  </metadata>
  <g
     inkscape:label="Layer 1"
     inkscape:groupmode="layer"
     id="layer1"
     transform="translate(0,-287.36221)">
    <ellipse
       style="fill:#ffffff;fill-opacity:1;stroke:#000000;stroke-width:4.22911263;stroke-miterlimit:4;stroke-dasharray:none;stroke-opacity:1"
       id="path6609"
       cx="239.07031"
       cy="733.29761"
       rx="206.7919"
       ry="262.71283" />
    <ellipse
       style="fill:#ffffff;fill-opacity:1;stroke:#000000;stroke-width:4.22911263;stroke-miterlimit:4;stroke-dasharray:none;stroke-opacity:1"
       id="path6609-6"
       cx="738.396"
       cy="733.15399"
       rx="206.7919"
       ry="262.71283" />
    <g
       transform="translate(-922.13415,77.118223)"
       id="g7790">
      <g
         style="font-style:normal;font-variant:normal;font-weight:normal;font-stretch:normal;letter-spacing:normal;word-spacing:normal;text-anchor:start;fill:none;fill-opacity:1;fill-rule:evenodd;stroke:#000000;stroke-linecap:butt;stroke-linejoin:miter;stroke-miterlimit:10.43299961;stroke-dasharray:none;stroke-dashoffset:0;stroke-opacity:1"
         id="content"
         transform="matrix(1.0928571,0,0,-1.0928571,-191.25,742.5)"
         xml:space="preserve"
         stroke-miterlimit="10.433"
         font-style="normal"
         font-variant="normal"
         font-weight="normal"
         font-stretch="normal"
         font-size-adjust="none"
         letter-spacing="normal"
         word-spacing="normal"><path
           style="fill:#000000;stroke-width:0"
           inkscape:connector-curvature="0"
           d="m 1248.5,372.75 1.5,0 c 0.2,2.69 0.5,4.58 1.2,6.72 -2.2,1.2 -4.2,1.7 -6.6,1.7 -3.6,0 -7.4,-1.55 -10,-4.24 -2.2,-2.04 -3.2,-4.58 -3.2,-7.47 0,-4.23 1.9,-6.57 6.1,-7.57 l 4.7,-1.14 c 2.7,-0.65 4,-2.39 4,-5.23 0,-4.74 -3.5,-8.02 -8.6,-8.02 -2.7,0 -4.6,0.59 -6.8,2.14 l 0,4.93 -1.5,0 c -0.3,-2.74 -0.7,-4.98 -1.2,-7.57 2.4,-1.25 5.1,-1.9 7.7,-1.9 7.7,0 14.4,5.83 14.4,12.56 0,3.93 -2.2,6.02 -7.2,7.12 l -3.2,0.7 c -3.3,0.7 -4.8,2.54 -4.8,5.82 0,4.34 3.3,7.48 7.9,7.48 2.4,0 4.1,-0.65 5.6,-2.24 z"
           id="path7793" /></g>    </g>
    <g
       id="g7907"
       transform="translate(-422.4982,77.464853)">
      <g
         word-spacing="normal"
         letter-spacing="normal"
         font-size-adjust="none"
         font-stretch="normal"
         font-weight="normal"
         font-variant="normal"
         font-style="normal"
         stroke-miterlimit="10.433"
         xml:space="preserve"
         transform="matrix(1.0928571,0,0,-1.0928571,-191.25,742.5)"
         id="g7909"
         style="font-style:normal;font-variant:normal;font-weight:normal;font-stretch:normal;letter-spacing:normal;word-spacing:normal;text-anchor:start;fill:none;fill-opacity:1;fill-rule:evenodd;stroke:#000000;stroke-linecap:butt;stroke-linejoin:miter;stroke-miterlimit:10.43299961;stroke-dasharray:none;stroke-dashoffset:0;stroke-opacity:1"><path
           id="path7911"
           d="m 1264.7,379.07 0.1,1.4 -8.3,0 -0.8,-1.54 c -1.3,-2.54 -2.3,-4.24 -3.4,-6.23 l -12.3,-21.02 -7.4,28.79 -8.4,0 -0.1,-1.4 1.3,-0.09 c 2.6,-0.2 3.5,-0.7 3.5,-2 0,-0.3 -0.1,-0.64 -0.2,-0.99 l -7.2,-25.36 c -0.8,-2.59 -1.6,-3.24 -4.3,-3.49 l -0.1,-1.29 11,0 0.2,1.4 -1.9,0.14 c -1.6,0.11 -2.5,0.6 -2.5,1.35 0,0.5 0.1,1.15 0.4,2.04 l 6.1,23.11 7.5,-28.79 1.1,0 2.9,5.19 c 3.9,7.02 8.5,15.09 11.9,20.62 l 2.6,4.33 -1.9,-25.9 c -0.2,-1.4 -0.8,-1.75 -3.3,-1.95 l -1.6,-0.14 -0.1,-1.4 13.3,0 0.1,1.4 -1.8,0.14 c -1.8,0.15 -2.7,0.7 -2.7,1.75 l 0,1.84 2.1,26.45 c 0.1,0.95 0.8,1.45 2.3,1.55 z"
           inkscape:connector-curvature="0"
           style="fill:#000000;stroke-width:0" /></g>    </g>
    <g
       id="g9942"
       transform="matrix(0.89074144,0,0,0.89074144,-795.39549,322.23311)">
      <g
         word-spacing="normal"
         letter-spacing="normal"
         font-size-adjust="none"
         font-stretch="normal"
         font-weight="normal"
         font-variant="normal"
         font-style="normal"
         stroke-miterlimit="10.433"
         xml:space="preserve"
         transform="matrix(1.0928571,0,0,-1.0928571,-191.25,742.5)"
         id="g9944"
         style="font-style:normal;font-variant:normal;font-weight:normal;font-stretch:normal;letter-spacing:normal;word-spacing:normal;text-anchor:start;fill:none;fill-opacity:1;fill-rule:evenodd;stroke:#000000;stroke-linecap:butt;stroke-linejoin:miter;stroke-miterlimit:10.43299961;stroke-dasharray:none;stroke-dashoffset:0;stroke-opacity:1"><path
           id="path9946"
           d="m 1071.5,334.04 0,0.03 0,0.03 0,0.01 0,0.02 0,0.01 0,0.02 0,0.02 0,0.01 0,0.02 -0.1,0.02 0,0.03 0,0.02 0,0.02 0,0.03 0,0.03 -0.1,0.03 0,0.03 0,0.04 0,0.02 -0.1,0.02 0,0.02 0,0.02 0,0.02 0,0.03 0,0.02 -0.1,0.02 0,0.03 0,0.02 0,0.03 -0.1,0.03 0,0.03 0,0.03 0,0.03 -0.1,0.03 0,0.03 0,0.03 -0.1,0.04 0,0.03 0,0.04 -0.1,0.03 0,0.04 -0.1,0.04 c -6.2,6.28 -7.8,15.69 -7.8,23.31 0,8.67 1.9,17.34 8,23.57 0.7,0.59 0.7,0.69 0.7,0.84 0,0.35 -0.2,0.5 -0.5,0.5 -0.5,0 -5,-3.39 -7.9,-9.72 -2.6,-5.47 -3.2,-11 -3.2,-15.19 0,-3.88 0.6,-9.91 3.3,-15.54 3,-6.12 7.3,-9.36 7.8,-9.36 0.3,0 0.5,0.15 0.5,0.49 z"
           inkscape:connector-curvature="0"
           style="fill:#000000;stroke-width:0" /><path
           id="path9948"
           d="m 1077.8,371.41 -0.1,-0.05 -0.1,-0.05 -0.1,-0.05 -0.1,-0.05 -0.1,-0.06 0,-0.03 -0.1,-0.03 0,-0.03 0,-0.03 -0.1,-0.03 0,-0.04 -0.1,-0.03 0,-0.04 0,-0.03 -0.1,-0.04 0,-0.04 0,-0.04 0,-0.04 -0.1,-0.05 0,-0.04 0,-0.05 0,-0.04 0,-0.05 0,-0.05 -0.1,-0.05 0,-0.06 0,-0.05 c 0,-0.55 0.5,-1 1,-1 0.2,0 0.3,0 0.9,0.35 l 5,2.54 0,-24.16 -5.1,0 c -0.7,0 -1.8,0 -1.8,-0.99 0,-1 1.1,-1 1.8,-1 l 18.6,0 c 0.9,0 1.8,0 1.8,1 0,0.99 -0.9,0.99 -1.8,0.99 l -5.1,0 -2,0 -4.4,0 0,25.21 4.4,2.24 0,-27.45 2,0 0,28.3 c 0,0.89 0,1.79 -1,1.79 -0.2,0 -0.3,0 -0.9,-0.35 z"
           inkscape:connector-curvature="0"
           style="fill:#000000;stroke-width:0" /><path
           id="path9950"
           d="m 1133.4,357.46 13.9,0 c 0.7,0 1.6,0 1.6,0.99 0,1 -0.9,1 -1.6,1 l -13.9,0 0,13.95 c 0,0.69 0,1.64 -1,1.64 -1,0 -1,-0.95 -1,-1.64 l 0,-13.95 -14,0 c -0.7,0 -1.6,0 -1.6,-1 0,-0.99 0.9,-0.99 1.6,-0.99 l 14,0 0,-13.95 c 0,-0.7 0,-1.64 1,-1.64 1,0 1,0.94 1,1.64 z"
           inkscape:connector-curvature="0"
           style="fill:#000000;stroke-width:0" /><path
           id="path9952"
           d="m 1166.8,371.41 -0.1,-0.05 -0.1,-0.05 -0.1,-0.05 -0.1,-0.05 -0.1,-0.06 0,-0.03 -0.1,-0.03 0,-0.03 0,-0.03 -0.1,-0.03 0,-0.04 -0.1,-0.03 0,-0.04 0,-0.03 -0.1,-0.04 0,-0.04 0,-0.04 0,-0.04 -0.1,-0.05 0,-0.04 0,-0.05 0,-0.04 0,-0.05 0,-0.05 -0.1,-0.05 0,-0.06 0,-0.05 c 0,-0.55 0.5,-1 1,-1 0.2,0 0.3,0 0.9,0.35 l 5,2.54 0,-24.16 -5.1,0 c -0.7,0 -1.8,0 -1.8,-0.99 0,-1 1.1,-1 1.8,-1 l 18.6,0 c 0.9,0 1.8,0 1.8,1 0,0.99 -0.9,0.99 -1.8,0.99 l -5.1,0 -2,0 -4.4,0 0,25.21 4.4,2.24 0,-27.45 2,0 0,28.3 c 0,0.89 0,1.79 -1,1.79 -0.2,0 -0.3,0 -0.9,-0.35 z"
           inkscape:connector-curvature="0"
           style="fill:#000000;stroke-width:0" /><path
           id="path9954"
           d="m 1204.4,358.45 0,0.37 0,0.39 0,0.39 0,0.41 -0.1,0.84 0,0.88 -0.1,0.92 -0.1,0.94 -0.2,0.98 -0.1,1 -0.2,1.02 -0.2,1.04 -0.3,1.05 -0.3,1.06 -0.4,1.06 -0.4,1.07 -0.2,0.53 -0.2,0.54 -0.2,0.53 -0.3,0.53 c -3,6.12 -7.3,9.36 -7.8,9.36 -0.3,0 -0.5,-0.2 -0.5,-0.5 0,-0.15 0,-0.25 1,-1.15 4.9,-4.92 7.7,-12.85 7.7,-23.26 0,-8.52 -1.8,-17.28 -8,-23.56 -0.7,-0.6 -0.7,-0.69 -0.7,-0.85 0,-0.29 0.2,-0.49 0.5,-0.49 0.5,0 5,3.38 8,9.71 2.5,5.48 3.1,11.01 3.1,15.19 z"
           inkscape:connector-curvature="0"
           style="fill:#000000;stroke-width:0" /><path
           id="path9956"
           d="m 1240.4,359.85 -10,9.91 c -0.6,0.6 -0.7,0.7 -1.1,0.7 -0.5,0 -1,-0.45 -1,-1 0,-0.35 0.1,-0.45 0.7,-1 l 9.9,-10.01 -9.9,-10.01 c -0.6,-0.55 -0.7,-0.65 -0.7,-0.99 0,-0.55 0.5,-1 1,-1 0.4,0 0.5,0.1 1.1,0.69 l 9.9,9.92 10.3,-10.31 c 0.1,-0.05 0.5,-0.3 0.8,-0.3 0.6,0 1,0.45 1,1 0,0.09 0,0.29 -0.2,0.54 0,0.1 -7.9,7.92 -10.4,10.46 l 9.1,9.12 c 0.2,0.3 1,0.95 1.2,1.24 0.1,0.1 0.3,0.3 0.3,0.65 0,0.55 -0.4,1 -1,1 -0.4,0 -0.6,-0.2 -1.2,-0.75 z"
           inkscape:connector-curvature="0"
           style="fill:#000000;stroke-width:0" /><path
           id="path9958"
           d="m 1287.5,334.04 0,0.03 0,0.03 0,0.01 0,0.02 0,0.01 0,0.02 0,0.02 0,0.01 0,0.02 -0.1,0.02 0,0.03 0,0.02 0,0.02 0,0.03 0,0.03 -0.1,0.03 0,0.03 0,0.04 0,0.02 -0.1,0.02 0,0.02 0,0.02 0,0.02 0,0.03 0,0.02 -0.1,0.02 0,0.03 0,0.02 0,0.03 -0.1,0.03 0,0.03 0,0.03 0,0.03 -0.1,0.03 0,0.03 0,0.03 -0.1,0.04 0,0.03 0,0.04 -0.1,0.03 0,0.04 -0.1,0.04 c -6.2,6.28 -7.8,15.69 -7.8,23.31 0,8.67 1.9,17.34 8,23.57 0.7,0.59 0.7,0.69 0.7,0.84 0,0.35 -0.2,0.5 -0.5,0.5 -0.5,0 -5,-3.39 -7.9,-9.72 -2.6,-5.47 -3.2,-11 -3.2,-15.19 0,-3.88 0.6,-9.91 3.3,-15.54 3,-6.12 7.3,-9.36 7.8,-9.36 0.3,0 0.5,0.15 0.5,0.49 z"
           inkscape:connector-curvature="0"
           style="fill:#000000;stroke-width:0" /><path
           id="path9960"
           d="m 1293.8,371.41 -0.1,-0.05 -0.1,-0.05 -0.1,-0.05 -0.1,-0.05 -0.1,-0.06 0,-0.03 -0.1,-0.03 0,-0.03 0,-0.03 -0.1,-0.03 0,-0.04 -0.1,-0.03 0,-0.04 0,-0.03 -0.1,-0.04 0,-0.04 0,-0.04 0,-0.04 -0.1,-0.05 0,-0.04 0,-0.05 0,-0.04 0,-0.05 0,-0.05 -0.1,-0.05 0,-0.06 0,-0.05 c 0,-0.55 0.5,-1 1,-1 0.2,0 0.3,0 0.9,0.35 l 5,2.54 0,-24.16 -5.1,0 c -0.7,0 -1.8,0 -1.8,-0.99 0,-1 1.1,-1 1.8,-1 l 18.6,0 c 0.9,0 1.8,0 1.8,1 0,0.99 -0.9,0.99 -1.8,0.99 l -5.1,0 -2,0 -4.4,0 0,25.21 4.4,2.24 0,-27.45 2,0 0,28.3 c 0,0.89 0,1.79 -1,1.79 -0.2,0 -0.3,0 -0.9,-0.35 z"
           inkscape:connector-curvature="0"
           style="fill:#000000;stroke-width:0" /><path
           id="path9962"
           d="m 1349.4,357.46 13.9,0 c 0.7,0 1.6,0 1.6,0.99 0,1 -0.9,1 -1.6,1 l -13.9,0 0,13.95 c 0,0.69 0,1.64 -1,1.64 -1,0 -1,-0.95 -1,-1.64 l 0,-13.95 -14,0 c -0.7,0 -1.6,0 -1.6,-1 0,-0.99 0.9,-0.99 1.6,-0.99 l 14,0 0,-13.95 c 0,-0.7 0,-1.64 1,-1.64 1,0 1,0.94 1,1.64 z"
           inkscape:connector-curvature="0"
           style="fill:#000000;stroke-width:0" /><path
           id="path9964"
           d="m 1381.8,371.41 -0.1,-0.05 -0.1,-0.05 -0.1,-0.05 -0.1,-0.05 -0.1,-0.06 0,-0.03 -0.1,-0.03 0,-0.03 0,-0.03 -0.1,-0.03 0,-0.04 -0.1,-0.03 0,-0.04 0,-0.03 -0.1,-0.04 0,-0.04 0,-0.04 0,-0.04 -0.1,-0.05 0,-0.04 0,-0.05 0,-0.04 0,-0.05 0,-0.05 -0.1,-0.05 0,-0.06 0,-0.05 c 0,-0.55 0.5,-1 1,-1 0.2,0 0.3,0 0.9,0.35 l 5,2.54 0,-24.16 -5.1,0 c -0.7,0 -1.8,0 -1.8,-0.99 0,-1 1.1,-1 1.8,-1 l 18.6,0 c 0.9,0 1.8,0 1.8,1 0,0.99 -0.9,0.99 -1.8,0.99 l -5.1,0 -2,0 -4.4,0 0,25.21 4.4,2.24 0,-27.45 2,0 0,28.3 c 0,0.89 0,1.79 -1,1.79 -0.2,0 -0.3,0 -0.9,-0.35 z"
           inkscape:connector-curvature="0"
           style="fill:#000000;stroke-width:0" /><path
           id="path9966"
           d="m 1420.4,358.45 0,0.37 0,0.39 0,0.39 0,0.41 -0.1,0.84 0,0.88 -0.1,0.92 -0.1,0.94 -0.2,0.98 -0.1,1 -0.2,1.02 -0.2,1.04 -0.3,1.05 -0.3,1.06 -0.4,1.06 -0.4,1.07 -0.2,0.53 -0.2,0.54 -0.2,0.53 -0.3,0.53 c -3,6.12 -7.3,9.36 -7.8,9.36 -0.3,0 -0.5,-0.2 -0.5,-0.5 0,-0.15 0,-0.25 1,-1.15 4.9,-4.92 7.7,-12.85 7.7,-23.26 0,-8.52 -1.8,-17.28 -8,-23.56 -0.7,-0.6 -0.7,-0.69 -0.7,-0.85 0,-0.29 0.2,-0.49 0.5,-0.49 0.5,0 5,3.38 8,9.71 2.5,5.48 3.1,11.01 3.1,15.19 z"
           inkscape:connector-curvature="0"
           style="fill:#000000;stroke-width:0" /></g>    </g>
    <path
       inkscape:connector-curvature="0"
       id="path12272"
       d="m 421.23361,638.19967 c 118.18785,82.83251 118.18785,83.84266 118.18785,83.84266"
       style="fill:none;fill-rule:evenodd;stroke:#0000b9;stroke-width:1px;stroke-linecap:butt;stroke-linejoin:miter;stroke-opacity:1;marker-end:url(#marker12280)" />
    <g
       transform="matrix(0.54609478,0,0,0.54609478,552.90327,367.19567)"
       id="g15403">
      <g
         style="font-style:normal;font-variant:normal;font-weight:normal;font-stretch:normal;letter-spacing:normal;word-spacing:normal;text-anchor:start;fill:none;fill-opacity:1;fill-rule:evenodd;stroke:#000000;stroke-linecap:butt;stroke-linejoin:miter;stroke-miterlimit:10.43299961;stroke-dasharray:none;stroke-dashoffset:0;stroke-opacity:1"
         id="g15405"
         transform="matrix(1.0928571,0,0,-1.0928571,-191.25,1012.5)"
         xml:space="preserve"
         stroke-miterlimit="10.433"
         font-style="normal"
         font-variant="normal"
         font-weight="normal"
         font-stretch="normal"
         font-size-adjust="none"
         letter-spacing="normal"
         word-spacing="normal"><path
           style="fill:#000000;stroke-width:0"
           inkscape:connector-curvature="0"
           d="m 1057.2,362.29 0.2,0 0.1,0 0.2,0.01 0,0 0.1,0 0.1,0.01 0,0.01 0.1,0.01 0.1,0.01 0.1,0.02 0,0.01 0.1,0.02 0,0.02 0.1,0.03 0.1,0.03 0,0.03 0.1,0.03 0,0.04 0.1,0.04 0,0.05 0.1,0.05 0,0.03 0,0.02 0,0.03 0,0.03 0,0.03 0,0.04 0.1,0.03 0,0.04 0,0.03 0,0.04 0,0.04 0,0.04 0,0.04 0,0.04 0,0.05 0,0.05 c 0,0.99 -0.9,0.99 -1.6,0.99 l -29.9,0 c -0.7,0 -1.6,0 -1.6,-0.99 0,-1 0.9,-1 1.7,-1 z"
           id="path15407" /><path
           style="fill:#000000;stroke-width:0"
           inkscape:connector-curvature="0"
           d="m 1057.3,352.62 0.1,0.01 0.1,0 0.2,0 0.1,0.01 0,0 0.1,0.01 0.1,0.01 0,0.01 0.1,0.01 0.1,0.01 0,0.02 0.1,0.02 0.1,0.02 0,0.02 0.1,0.03 0,0.03 0.1,0.04 0,0.04 0.1,0.04 0,0.04 0,0.03 0.1,0.03 0,0.02 0,0.03 0,0.03 0,0.03 0,0.03 0,0.03 0.1,0.04 0,0.03 0,0.04 0,0.04 0,0.04 0,0.04 0,0.04 0,0.04 0,0.05 0,0.04 c 0,1 -0.9,1 -1.7,1 l -29.7,0 c -0.8,0 -1.7,0 -1.7,-1 0,-1 0.9,-1 1.6,-1 z"
           id="path15409" /><path
           style="fill:#000000;stroke-width:0"
           inkscape:connector-curvature="0"
           d="m 1078.8,371.41 -0.1,-0.05 -0.1,-0.05 -0.1,-0.05 -0.1,-0.05 -0.1,-0.06 0,-0.03 -0.1,-0.03 0,-0.03 0,-0.03 -0.1,-0.03 0,-0.04 -0.1,-0.03 0,-0.04 0,-0.03 -0.1,-0.04 0,-0.04 0,-0.04 0,-0.04 -0.1,-0.05 0,-0.04 0,-0.05 0,-0.04 0,-0.05 0,-0.05 -0.1,-0.05 0,-0.06 0,-0.05 c 0,-0.55 0.5,-1 1,-1 0.2,0 0.3,0 0.9,0.35 l 5,2.54 0,-24.16 -5.1,0 c -0.7,0 -1.8,0 -1.8,-0.99 0,-1 1.1,-1 1.8,-1 l 18.6,0 c 0.9,0 1.8,0 1.8,1 0,0.99 -0.9,0.99 -1.8,0.99 l -5.1,0 -2,0 -4.4,0 0,25.21 4.4,2.24 0,-27.45 2,0 0,28.3 c 0,0.89 0,1.79 -1,1.79 -0.2,0 -0.3,0 -0.9,-0.35 z"
           id="path15411" /><path
           style="fill:#000000;stroke-width:0"
           inkscape:connector-curvature="0"
           d="m 1134.4,357.46 13.9,0 c 0.7,0 1.6,0 1.6,0.99 0,1 -0.9,1 -1.6,1 l -13.9,0 0,13.95 c 0,0.69 0,1.64 -1,1.64 -1,0 -1,-0.95 -1,-1.64 l 0,-13.95 -14,0 c -0.7,0 -1.6,0 -1.6,-1 0,-0.99 0.9,-0.99 1.6,-0.99 l 14,0 0,-13.95 c 0,-0.7 0,-1.64 1,-1.64 1,0 1,0.94 1,1.64 z"
           id="path15413" /><path
           style="fill:#000000;stroke-width:0"
           inkscape:connector-curvature="0"
           d="m 1167.8,371.41 -0.1,-0.05 -0.1,-0.05 -0.1,-0.05 -0.1,-0.05 -0.1,-0.06 0,-0.03 -0.1,-0.03 0,-0.03 0,-0.03 -0.1,-0.03 0,-0.04 -0.1,-0.03 0,-0.04 0,-0.03 -0.1,-0.04 0,-0.04 0,-0.04 0,-0.04 -0.1,-0.05 0,-0.04 0,-0.05 0,-0.04 0,-0.05 0,-0.05 -0.1,-0.05 0,-0.06 0,-0.05 c 0,-0.55 0.5,-1 1,-1 0.2,0 0.3,0 0.9,0.35 l 5,2.54 0,-24.16 -5.1,0 c -0.7,0 -1.8,0 -1.8,-0.99 0,-1 1.1,-1 1.8,-1 l 18.6,0 c 0.9,0 1.8,0 1.8,1 0,0.99 -0.9,0.99 -1.8,0.99 l -5.1,0 -2,0 -4.4,0 0,25.21 4.4,2.24 0,-27.45 2,0 0,28.3 c 0,0.89 0,1.79 -1,1.79 -0.2,0 -0.3,0 -0.9,-0.35 z"
           id="path15415" /><path
           style="fill:#000000;stroke-width:0"
           inkscape:connector-curvature="0"
           d="m 1223.4,357.46 13.9,0 c 0.7,0 1.6,0 1.6,0.99 0,1 -0.9,1 -1.6,1 l -13.9,0 0,13.95 c 0,0.69 0,1.64 -1,1.64 -1,0 -1,-0.95 -1,-1.64 l 0,-13.95 -14,0 c -0.7,0 -1.6,0 -1.6,-1 0,-0.99 0.9,-0.99 1.6,-0.99 l 14,0 0,-13.95 c 0,-0.7 0,-1.64 1,-1.64 1,0 1,0.94 1,1.64 z"
           id="path15417" /><path
           style="fill:#000000;stroke-width:0"
           inkscape:connector-curvature="0"
           d="m 1256.8,371.41 -0.1,-0.05 -0.1,-0.05 -0.1,-0.05 -0.1,-0.05 -0.1,-0.06 0,-0.03 -0.1,-0.03 0,-0.03 0,-0.03 -0.1,-0.03 0,-0.04 -0.1,-0.03 0,-0.04 0,-0.03 -0.1,-0.04 0,-0.04 0,-0.04 0,-0.04 -0.1,-0.05 0,-0.04 0,-0.05 0,-0.04 0,-0.05 0,-0.05 -0.1,-0.05 0,-0.06 0,-0.05 c 0,-0.55 0.5,-1 1,-1 0.2,0 0.3,0 0.9,0.35 l 5,2.54 0,-24.16 -5.1,0 c -0.7,0 -1.8,0 -1.8,-0.99 0,-1 1.1,-1 1.8,-1 l 18.6,0 c 0.9,0 1.8,0 1.8,1 0,0.99 -0.9,0.99 -1.8,0.99 l -5.1,0 -2,0 -4.4,0 0,25.21 4.4,2.24 0,-27.45 2,0 0,28.3 c 0,0.89 0,1.79 -1,1.79 -0.2,0 -0.3,0 -0.9,-0.35 z"
           id="path15419" /><path
           style="fill:#000000;stroke-width:0"
           inkscape:connector-curvature="0"
           d="m 1311.4,357.46 13.9,0 c 0.7,0 1.6,0 1.6,0.99 0,1 -0.9,1 -1.6,1 l -13.9,0 0,13.95 c 0,0.69 0,1.64 -1,1.64 -1,0 -1,-0.95 -1,-1.64 l 0,-13.95 -14,0 c -0.7,0 -1.6,0 -1.6,-1 0,-0.99 0.9,-0.99 1.6,-0.99 l 14,0 0,-13.95 c 0,-0.7 0,-1.64 1,-1.64 1,0 1,0.94 1,1.64 z"
           id="path15421" /><path
           style="fill:#000000;stroke-width:0"
           inkscape:connector-curvature="0"
           d="m 1344.8,371.41 -0.1,-0.05 -0.1,-0.05 -0.1,-0.05 -0.1,-0.05 -0.1,-0.06 0,-0.03 -0.1,-0.03 0,-0.03 0,-0.03 -0.1,-0.03 0,-0.04 -0.1,-0.03 0,-0.04 0,-0.03 -0.1,-0.04 0,-0.04 0,-0.04 0,-0.04 -0.1,-0.05 0,-0.04 0,-0.05 0,-0.04 0,-0.05 0,-0.05 -0.1,-0.05 0,-0.06 0,-0.05 c 0,-0.55 0.5,-1 1,-1 0.2,0 0.3,0 0.9,0.35 l 5,2.54 0,-24.16 -5.1,0 c -0.7,0 -1.8,0 -1.8,-0.99 0,-1 1.1,-1 1.8,-1 l 18.6,0 c 0.9,0 1.8,0 1.8,1 0,0.99 -0.9,0.99 -1.8,0.99 l -5.1,0 -2,0 -4.4,0 0,25.21 4.4,2.24 0,-27.45 2,0 0,28.3 c 0,0.89 0,1.79 -1,1.79 -0.2,0 -0.3,0 -0.9,-0.35 z"
           id="path15423" /><path
           style="fill:#000000;stroke-width:0"
           inkscape:connector-curvature="0"
           d="m 1400.4,357.46 13.9,0 c 0.7,0 1.6,0 1.6,0.99 0,1 -0.9,1 -1.6,1 l -13.9,0 0,13.95 c 0,0.69 0,1.64 -1,1.64 -1,0 -1,-0.95 -1,-1.64 l 0,-13.95 -14,0 c -0.7,0 -1.6,0 -1.6,-1 0,-0.99 0.9,-0.99 1.6,-0.99 l 14,0 0,-13.95 c 0,-0.7 0,-1.64 1,-1.64 1,0 1,0.94 1,1.64 z"
           id="path15425" /><path
           style="fill:#000000;stroke-width:0"
           inkscape:connector-curvature="0"
           d="m 1454.9,362.04 -0.1,0.84 0,0.84 0,0.83 -0.1,0.81 -0.1,0.81 -0.1,0.8 -0.2,0.78 -0.1,0.77 -0.2,0.75 -0.2,0.74 -0.2,0.72 -0.3,0.69 -0.3,0.68 -0.3,0.65 -0.3,0.63 -0.3,0.61 -0.4,0.58 -0.3,0.55 -0.4,0.52 -0.5,0.49 -0.4,0.46 -0.5,0.43 -0.5,0.39 -0.5,0.36 -0.5,0.32 -0.5,0.28 -0.6,0.24 -0.6,0.2 -0.6,0.16 -0.7,0.11 -0.6,0.07 -0.7,0.03 0,-2 c 6.7,0 9.1,-8.47 9.1,-15.14 0,-6.72 -2.4,-15.14 -9.1,-15.14 -1.4,0 -2.6,0.44 -2.7,0.49 l 0,29.29 c 0.1,0.05 1.3,0.5 2.7,0.5 l 0,2 c -7.4,0 -11.1,-8.17 -11.1,-17.14 l 2,0 c 0,4.03 0.9,10.16 4.4,13.35 l 0,-26.7 c -3.6,3.24 -4.4,9.56 -4.4,13.35 l -2,0 c 0,-9.02 3.7,-17.14 11.1,-17.14 7.4,0 11.1,8.17 11.1,17.14 z"
           id="path15427" /></g>    </g>
    <g
       id="g15800"
       transform="matrix(0.54609478,0,0,0.54609478,483.94839,332.44241)">
      <g
         word-spacing="normal"
         letter-spacing="normal"
         font-size-adjust="none"
         font-stretch="normal"
         font-weight="normal"
         font-variant="normal"
         font-style="normal"
         stroke-miterlimit="10.433"
         xml:space="preserve"
         transform="matrix(1.0928571,0,0,-1.0928571,-191.25,1012.5)"
         id="g15802"
         style="font-style:normal;font-variant:normal;font-weight:normal;font-stretch:normal;letter-spacing:normal;word-spacing:normal;text-anchor:start;fill:none;fill-opacity:1;fill-rule:evenodd;stroke:#000000;stroke-linecap:butt;stroke-linejoin:miter;stroke-miterlimit:10.43299961;stroke-dasharray:none;stroke-dashoffset:0;stroke-opacity:1"><path
           id="path15804"
           d="m 1012.2,339.92 0,-0.15 0,-0.15 -0.1,-0.14 0,-0.13 0,-0.13 -0.1,-0.11 0,-0.12 0,-0.1 -0.1,-0.1 0,-0.09 -0.1,-0.09 0,-0.08 -0.1,-0.07 0,-0.07 -0.1,-0.07 0,-0.05 -0.1,-0.06 -0.1,-0.05 -0.1,-0.04 0,-0.04 -0.1,-0.04 -0.1,-0.03 -0.1,-0.03 -0.2,-0.02 -0.1,-0.02 -0.1,-0.02 -0.1,0 -0.1,-0.01 0,-0.01 -0.1,0 -0.1,-0.01 -0.1,0 -0.1,0 -0.1,-0.01 -0.1,0 -0.1,0 0,0 -0.2,0 c -0.5,0 -1.1,0 -1.1,-0.95 0,-0.39 0.3,-0.59 0.6,-0.59 l 9.2,0 c 0.2,0 0.9,0 0.9,0.99 0,0.55 -0.5,0.55 -1.2,0.55 -2.5,0 -2.5,0.35 -2.5,0.8 0,0.59 2.1,8.71 2.4,9.96 0.7,-1.44 2.1,-3.19 4.6,-3.19 l 0,1.1 c -3.3,0 -4,4.13 -4,4.43 0,0.1 0,0.2 0.2,0.8 l 2.4,9.76 c 0.4,1.35 1.7,2.74 2.6,3.49 1.7,1.54 3.2,1.89 4,1.89 2,0 3.2,-1.74 3.2,-4.68 0,-2.94 -1.6,-8.67 -2.5,-10.56 -1.7,-3.49 -4.1,-5.13 -5.9,-5.13 l 0,-1.1 c 5.8,0 12,7.28 12,14.6 0,4.68 -2.8,7.97 -6.6,7.97 -2.5,0 -4.9,-1.8 -6.5,-3.74 -0.5,2.69 -2.7,3.74 -4.5,3.74 -2.3,0 -3.3,-1.95 -3.7,-2.84 -0.9,-1.7 -1.6,-4.68 -1.6,-4.83 0,-0.5 0.5,-0.5 0.6,-0.5 0.5,0 0.6,0.05 0.9,1.14 0.8,3.54 1.8,5.93 3.6,5.93 0.9,0 1.6,-0.4 1.6,-2.29 0,-1.15 -0.2,-1.69 -0.4,-2.54 z"
           inkscape:connector-curvature="0"
           style="fill:#000000;stroke-width:0" /><path
           id="path15806"
           d="m 1044.5,350.64 0.3,0 0.2,-0.02 0.3,-0.02 0.2,-0.04 0.2,-0.05 0.3,-0.06 0.2,-0.07 0.2,-0.09 0.2,-0.09 0.2,-0.11 0.2,-0.11 0.2,-0.13 0.2,-0.13 0.1,-0.15 0.2,-0.16 0.2,-0.17 0.1,-0.18 0.2,-0.2 0.1,-0.2 0.1,-0.21 0.1,-0.23 0.2,-0.23 0.1,-0.25 0,-0.26 0.1,-0.27 0.1,-0.28 0.1,-0.29 0,-0.3 0,-0.31 0.1,-0.32 0,-0.33 0,-0.35 c 0,-4.32 -2.5,-5.61 -4.5,-5.61 -1.4,0 -4.5,0.38 -6,2.44 1.7,0.07 2.1,1.22 2.1,1.95 0,1.12 -0.9,1.92 -2,1.92 -0.9,0 -1.9,-0.59 -1.9,-2.02 0,-3.28 3.6,-5.41 7.8,-5.41 4.9,0 8.2,3.25 8.2,6.73 0,2.72 -2.2,5.44 -6,6.24 3.6,1.33 4.9,3.94 4.9,6.07 0,2.76 -3.1,4.81 -7,4.81 -3.9,0 -6.8,-1.88 -6.8,-4.67 0,-1.18 0.7,-1.85 1.8,-1.85 1.1,0 1.8,0.8 1.8,1.78 0,1.01 -0.7,1.75 -1.8,1.81 1.2,1.54 3.6,1.92 4.9,1.92 1.6,0 3.8,-0.76 3.8,-3.8 0,-1.46 -0.5,-3.07 -1.4,-4.15 -1.2,-1.32 -2.2,-1.39 -3.9,-1.5 -0.9,-0.07 -1,-0.07 -1.1,-0.1 -0.1,0 -0.4,-0.07 -0.4,-0.46 0,-0.49 0.3,-0.49 0.9,-0.49 z"
           inkscape:connector-curvature="0"
           style="fill:#000000;stroke-width:0" /><path
           id="path15808"
           d="m 1080.6,364.83 0,0.13 -0.1,0.14 0,0.13 0,0.13 0,0.12 -0.1,0.13 0,0.12 0,0.12 -0.1,0.12 -0.1,0.11 0,0.11 -0.1,0.11 -0.1,0.1 0,0.1 -0.1,0.1 -0.1,0.09 -0.1,0.09 -0.1,0.08 -0.1,0.08 -0.1,0.07 -0.1,0.07 -0.1,0.07 -0.1,0.06 -0.2,0.05 -0.1,0.05 -0.1,0.04 -0.1,0.04 -0.1,0.02 -0.2,0.03 -0.1,0.02 -0.1,0.01 -0.2,0 c -1.4,0 -2.6,-1.2 -2.6,-2.64 0,-1.45 1.2,-2.64 2.6,-2.64 1.5,0 2.7,1.19 2.7,2.64 z"
           inkscape:connector-curvature="0"
           style="fill:#000000;stroke-width:0" /><path
           id="path15810"
           d="m 1080.6,348.64 0,0.14 -0.1,0.13 0,0.13 0,0.13 0,0.13 -0.1,0.12 0,0.12 0,0.12 -0.1,0.12 -0.1,0.11 0,0.11 -0.1,0.11 -0.1,0.1 0,0.1 -0.1,0.1 -0.1,0.09 -0.1,0.09 -0.1,0.08 -0.1,0.08 -0.1,0.08 -0.1,0.07 -0.1,0.06 -0.1,0.06 -0.2,0.05 -0.1,0.05 -0.1,0.04 -0.1,0.04 -0.1,0.03 -0.2,0.02 -0.1,0.02 -0.1,0.01 -0.2,0 c -1.4,0 -2.6,-1.19 -2.6,-2.64 0,-1.44 1.2,-2.64 2.6,-2.64 1.5,0 2.7,1.2 2.7,2.64 z"
           inkscape:connector-curvature="0"
           style="fill:#000000;stroke-width:0" /><path
           id="path15812"
           d="m 1115.5,334.04 0,0.03 0,0.03 0,0.01 0,0.02 0,0.01 0,0.02 0,0.02 0,0.01 0,0.02 -0.1,0.02 0,0.03 0,0.02 0,0.02 0,0.03 0,0.03 -0.1,0.03 0,0.03 0,0.04 0,0.02 -0.1,0.02 0,0.02 0,0.02 0,0.02 0,0.03 0,0.02 -0.1,0.02 0,0.03 0,0.02 0,0.03 -0.1,0.03 0,0.03 0,0.03 0,0.03 -0.1,0.03 0,0.03 0,0.03 -0.1,0.04 0,0.03 0,0.04 -0.1,0.03 0,0.04 -0.1,0.04 c -6.2,6.28 -7.8,15.69 -7.8,23.31 0,8.67 1.9,17.34 8,23.57 0.7,0.59 0.7,0.69 0.7,0.84 0,0.35 -0.2,0.5 -0.5,0.5 -0.5,0 -5,-3.39 -7.9,-9.72 -2.6,-5.47 -3.2,-11 -3.2,-15.19 0,-3.88 0.6,-9.91 3.3,-15.54 3,-6.12 7.3,-9.36 7.8,-9.36 0.3,0 0.5,0.15 0.5,0.49 z"
           inkscape:connector-curvature="0"
           style="fill:#000000;stroke-width:0" /><path
           id="path15814"
           d="m 1122.8,371.41 -0.1,-0.05 -0.1,-0.05 -0.1,-0.05 -0.1,-0.05 -0.1,-0.06 0,-0.03 -0.1,-0.03 0,-0.03 0,-0.03 -0.1,-0.03 0,-0.04 -0.1,-0.03 0,-0.04 0,-0.03 -0.1,-0.04 0,-0.04 0,-0.04 0,-0.04 -0.1,-0.05 0,-0.04 0,-0.05 0,-0.04 0,-0.05 0,-0.05 -0.1,-0.05 0,-0.06 0,-0.05 c 0,-0.55 0.5,-1 1,-1 0.2,0 0.3,0 0.9,0.35 l 5,2.54 0,-24.16 -5.1,0 c -0.7,0 -1.8,0 -1.8,-0.99 0,-1 1.1,-1 1.8,-1 l 18.6,0 c 0.9,0 1.8,0 1.8,1 0,0.99 -0.9,0.99 -1.8,0.99 l -5.1,0 -2,0 -4.4,0 0,25.21 4.4,2.24 0,-27.45 2,0 0,28.3 c 0,0.89 0,1.79 -1,1.79 -0.2,0 -0.3,0 -0.9,-0.35 z"
           inkscape:connector-curvature="0"
           style="fill:#000000;stroke-width:0" /><path
           id="path15816"
           d="m 1177.4,357.46 13.9,0 c 0.7,0 1.6,0 1.6,0.99 0,1 -0.9,1 -1.6,1 l -13.9,0 0,13.95 c 0,0.69 0,1.64 -1,1.64 -1,0 -1,-0.95 -1,-1.64 l 0,-13.95 -14,0 c -0.7,0 -1.6,0 -1.6,-1 0,-0.99 0.9,-0.99 1.6,-0.99 l 14,0 0,-13.95 c 0,-0.7 0,-1.64 1,-1.64 1,0 1,0.94 1,1.64 z"
           inkscape:connector-curvature="0"
           style="fill:#000000;stroke-width:0" /><path
           id="path15818"
           d="m 1210.8,371.41 -0.1,-0.05 -0.1,-0.05 -0.1,-0.05 -0.1,-0.05 -0.1,-0.06 0,-0.03 -0.1,-0.03 0,-0.03 0,-0.03 -0.1,-0.03 0,-0.04 -0.1,-0.03 0,-0.04 0,-0.03 -0.1,-0.04 0,-0.04 0,-0.04 0,-0.04 -0.1,-0.05 0,-0.04 0,-0.05 0,-0.04 0,-0.05 0,-0.05 -0.1,-0.05 0,-0.06 0,-0.05 c 0,-0.55 0.5,-1 1,-1 0.2,0 0.3,0 0.9,0.35 l 5,2.54 0,-24.16 -5.1,0 c -0.7,0 -1.8,0 -1.8,-0.99 0,-1 1.1,-1 1.8,-1 l 18.6,0 c 0.9,0 1.8,0 1.8,1 0,0.99 -0.9,0.99 -1.8,0.99 l -5.1,0 -2,0 -4.4,0 0,25.21 4.4,2.24 0,-27.45 2,0 0,28.3 c 0,0.89 0,1.79 -1,1.79 -0.2,0 -0.3,0 -0.9,-0.35 z"
           inkscape:connector-curvature="0"
           style="fill:#000000;stroke-width:0" /><path
           id="path15820"
           d="m 1249.4,358.45 0,0.37 0,0.39 0,0.39 0,0.41 -0.1,0.84 0,0.88 -0.1,0.92 -0.1,0.94 -0.2,0.98 -0.1,1 -0.2,1.02 -0.2,1.04 -0.3,1.05 -0.3,1.06 -0.4,1.06 -0.4,1.07 -0.2,0.53 -0.2,0.54 -0.2,0.53 -0.3,0.53 c -3,6.12 -7.3,9.36 -7.8,9.36 -0.3,0 -0.5,-0.2 -0.5,-0.5 0,-0.15 0,-0.25 1,-1.15 4.9,-4.92 7.7,-12.85 7.7,-23.26 0,-8.52 -1.8,-17.28 -8,-23.56 -0.7,-0.6 -0.7,-0.69 -0.7,-0.85 0,-0.29 0.2,-0.49 0.5,-0.49 0.5,0 5,3.38 8,9.71 2.5,5.48 3.1,11.01 3.1,15.19 z"
           inkscape:connector-curvature="0"
           style="fill:#000000;stroke-width:0" /><path
           id="path15822"
           d="m 1284.4,359.85 -10,9.91 c -0.6,0.6 -0.7,0.7 -1.1,0.7 -0.5,0 -1,-0.45 -1,-1 0,-0.35 0.1,-0.45 0.7,-1 l 9.9,-10.01 -9.9,-10.01 c -0.6,-0.55 -0.7,-0.65 -0.7,-0.99 0,-0.55 0.5,-1 1,-1 0.4,0 0.5,0.1 1.1,0.69 l 9.9,9.92 10.3,-10.31 c 0.1,-0.05 0.5,-0.3 0.8,-0.3 0.6,0 1,0.45 1,1 0,0.09 0,0.29 -0.2,0.54 0,0.1 -7.9,7.92 -10.4,10.46 l 9.1,9.12 c 0.2,0.3 1,0.95 1.2,1.24 0.1,0.1 0.3,0.3 0.3,0.65 0,0.55 -0.4,1 -1,1 -0.4,0 -0.6,-0.2 -1.2,-0.75 z"
           inkscape:connector-curvature="0"
           style="fill:#000000;stroke-width:0" /><path
           id="path15824"
           d="m 1331.5,334.04 0,0.03 0,0.03 0,0.01 0,0.02 0,0.01 0,0.02 0,0.02 0,0.01 0,0.02 -0.1,0.02 0,0.03 0,0.02 0,0.02 0,0.03 0,0.03 -0.1,0.03 0,0.03 0,0.04 0,0.02 -0.1,0.02 0,0.02 0,0.02 0,0.02 0,0.03 0,0.02 -0.1,0.02 0,0.03 0,0.02 0,0.03 -0.1,0.03 0,0.03 0,0.03 0,0.03 -0.1,0.03 0,0.03 0,0.03 -0.1,0.04 0,0.03 0,0.04 -0.1,0.03 0,0.04 -0.1,0.04 c -6.2,6.28 -7.8,15.69 -7.8,23.31 0,8.67 1.9,17.34 8,23.57 0.7,0.59 0.7,0.69 0.7,0.84 0,0.35 -0.2,0.5 -0.5,0.5 -0.5,0 -5,-3.39 -7.9,-9.72 -2.6,-5.47 -3.2,-11 -3.2,-15.19 0,-3.88 0.6,-9.91 3.3,-15.54 3,-6.12 7.3,-9.36 7.8,-9.36 0.3,0 0.5,0.15 0.5,0.49 z"
           inkscape:connector-curvature="0"
           style="fill:#000000;stroke-width:0" /><path
           id="path15826"
           d="m 1337.8,371.41 -0.1,-0.05 -0.1,-0.05 -0.1,-0.05 -0.1,-0.05 -0.1,-0.06 0,-0.03 -0.1,-0.03 0,-0.03 0,-0.03 -0.1,-0.03 0,-0.04 -0.1,-0.03 0,-0.04 0,-0.03 -0.1,-0.04 0,-0.04 0,-0.04 0,-0.04 -0.1,-0.05 0,-0.04 0,-0.05 0,-0.04 0,-0.05 0,-0.05 -0.1,-0.05 0,-0.06 0,-0.05 c 0,-0.55 0.5,-1 1,-1 0.2,0 0.3,0 0.9,0.35 l 5,2.54 0,-24.16 -5.1,0 c -0.7,0 -1.8,0 -1.8,-0.99 0,-1 1.1,-1 1.8,-1 l 18.6,0 c 0.9,0 1.8,0 1.8,1 0,0.99 -0.9,0.99 -1.8,0.99 l -5.1,0 -2,0 -4.4,0 0,25.21 4.4,2.24 0,-27.45 2,0 0,28.3 c 0,0.89 0,1.79 -1,1.79 -0.2,0 -0.3,0 -0.9,-0.35 z"
           inkscape:connector-curvature="0"
           style="fill:#000000;stroke-width:0" /><path
           id="path15828"
           d="m 1393.4,357.46 13.9,0 c 0.7,0 1.6,0 1.6,0.99 0,1 -0.9,1 -1.6,1 l -13.9,0 0,13.95 c 0,0.69 0,1.64 -1,1.64 -1,0 -1,-0.95 -1,-1.64 l 0,-13.95 -14,0 c -0.7,0 -1.6,0 -1.6,-1 0,-0.99 0.9,-0.99 1.6,-0.99 l 14,0 0,-13.95 c 0,-0.7 0,-1.64 1,-1.64 1,0 1,0.94 1,1.64 z"
           inkscape:connector-curvature="0"
           style="fill:#000000;stroke-width:0" /><path
           id="path15830"
           d="m 1426.8,371.41 -0.1,-0.05 -0.1,-0.05 -0.1,-0.05 -0.1,-0.05 -0.1,-0.06 0,-0.03 -0.1,-0.03 0,-0.03 0,-0.03 -0.1,-0.03 0,-0.04 -0.1,-0.03 0,-0.04 0,-0.03 -0.1,-0.04 0,-0.04 0,-0.04 0,-0.04 -0.1,-0.05 0,-0.04 0,-0.05 0,-0.04 0,-0.05 0,-0.05 -0.1,-0.05 0,-0.06 0,-0.05 c 0,-0.55 0.5,-1 1,-1 0.2,0 0.3,0 0.9,0.35 l 5,2.54 0,-24.16 -5.1,0 c -0.7,0 -1.8,0 -1.8,-0.99 0,-1 1.1,-1 1.8,-1 l 18.6,0 c 0.9,0 1.8,0 1.8,1 0,0.99 -0.9,0.99 -1.8,0.99 l -5.1,0 -2,0 -4.4,0 0,25.21 4.4,2.24 0,-27.45 2,0 0,28.3 c 0,0.89 0,1.79 -1,1.79 -0.2,0 -0.3,0 -0.9,-0.35 z"
           inkscape:connector-curvature="0"
           style="fill:#000000;stroke-width:0" /><path
           id="path15832"
           d="m 1465.4,358.45 0,0.37 0,0.39 0,0.39 0,0.41 -0.1,0.84 0,0.88 -0.1,0.92 -0.1,0.94 -0.2,0.98 -0.1,1 -0.2,1.02 -0.2,1.04 -0.3,1.05 -0.3,1.06 -0.4,1.06 -0.4,1.07 -0.2,0.53 -0.2,0.54 -0.2,0.53 -0.3,0.53 c -3,6.12 -7.3,9.36 -7.8,9.36 -0.3,0 -0.5,-0.2 -0.5,-0.5 0,-0.15 0,-0.25 1,-1.15 4.9,-4.92 7.7,-12.85 7.7,-23.26 0,-8.52 -1.8,-17.28 -8,-23.56 -0.7,-0.6 -0.7,-0.69 -0.7,-0.85 0,-0.29 0.2,-0.49 0.5,-0.49 0.5,0 5,3.38 8,9.71 2.5,5.48 3.1,11.01 3.1,15.19 z"
           inkscape:connector-curvature="0"
           style="fill:#000000;stroke-width:0" /></g>    </g>
    <g
       transform="matrix(0.85985642,0,0,0.85985642,-761.44162,263.82134)"
       id="g3624">
      <g
         style="font-style:normal;font-variant:normal;font-weight:normal;font-stretch:normal;letter-spacing:normal;word-spacing:normal;text-anchor:start;fill:none;fill-opacity:1;fill-rule:evenodd;stroke:#000000;stroke-linecap:butt;stroke-linejoin:miter;stroke-miterlimit:10.43299961;stroke-dasharray:none;stroke-dashoffset:0;stroke-opacity:1"
         id="g3626"
         transform="matrix(1.0928571,0,0,-1.0928571,-191.25,1012.5)"
         xml:space="preserve"
         stroke-miterlimit="10.433"
         font-style="normal"
         font-variant="normal"
         font-weight="normal"
         font-stretch="normal"
         font-size-adjust="none"
         letter-spacing="normal"
         word-spacing="normal"><path
           style="fill:#000000;stroke-width:0"
           inkscape:connector-curvature="0"
           d="m 1052.8,371.41 -0.1,-0.05 -0.1,-0.05 -0.1,-0.05 -0.1,-0.05 -0.1,-0.06 0,-0.03 -0.1,-0.03 0,-0.03 0,-0.03 -0.1,-0.03 0,-0.04 -0.1,-0.03 0,-0.04 0,-0.03 -0.1,-0.04 0,-0.04 0,-0.04 0,-0.04 -0.1,-0.05 0,-0.04 0,-0.05 0,-0.04 0,-0.05 0,-0.05 -0.1,-0.05 0,-0.06 0,-0.05 c 0,-0.55 0.5,-1 1,-1 0.2,0 0.3,0 0.9,0.35 l 5,2.54 0,-24.16 -5.1,0 c -0.7,0 -1.8,0 -1.8,-0.99 0,-1 1.1,-1 1.8,-1 l 18.6,0 c 0.9,0 1.8,0 1.8,1 0,0.99 -0.9,0.99 -1.8,0.99 l -5.1,0 -2,0 -4.4,0 0,25.21 4.4,2.24 0,-27.45 2,0 0,28.3 c 0,0.89 0,1.79 -1,1.79 -0.2,0 -0.3,0 -0.9,-0.35 z"
           id="path3628" /><path
           style="fill:#000000;stroke-width:0"
           inkscape:connector-curvature="0"
           d="m 1108.4,357.46 13.9,0 c 0.7,0 1.6,0 1.6,0.99 0,1 -0.9,1 -1.6,1 l -13.9,0 0,13.95 c 0,0.69 0,1.64 -1,1.64 -1,0 -1,-0.95 -1,-1.64 l 0,-13.95 -14,0 c -0.7,0 -1.6,0 -1.6,-1 0,-0.99 0.9,-0.99 1.6,-0.99 l 14,0 0,-13.95 c 0,-0.7 0,-1.64 1,-1.64 1,0 1,0.94 1,1.64 z"
           id="path3630" /><path
           style="fill:#000000;stroke-width:0"
           inkscape:connector-curvature="0"
           d="m 1141.8,371.41 -0.1,-0.05 -0.1,-0.05 -0.1,-0.05 -0.1,-0.05 -0.1,-0.06 0,-0.03 -0.1,-0.03 0,-0.03 0,-0.03 -0.1,-0.03 0,-0.04 -0.1,-0.03 0,-0.04 0,-0.03 -0.1,-0.04 0,-0.04 0,-0.04 0,-0.04 -0.1,-0.05 0,-0.04 0,-0.05 0,-0.04 0,-0.05 0,-0.05 -0.1,-0.05 0,-0.06 0,-0.05 c 0,-0.55 0.5,-1 1,-1 0.2,0 0.3,0 0.9,0.35 l 5,2.54 0,-24.16 -5.1,0 c -0.7,0 -1.8,0 -1.8,-0.99 0,-1 1.1,-1 1.8,-1 l 18.6,0 c 0.9,0 1.8,0 1.8,1 0,0.99 -0.9,0.99 -1.8,0.99 l -5.1,0 -2,0 -4.4,0 0,25.21 4.4,2.24 0,-27.45 2,0 0,28.3 c 0,0.89 0,1.79 -1,1.79 -0.2,0 -0.3,0 -0.9,-0.35 z"
           id="path3632" /><path
           style="fill:#000000;stroke-width:0"
           inkscape:connector-curvature="0"
           d="m 1196.4,357.46 13.9,0 c 0.7,0 1.6,0 1.6,0.99 0,1 -0.9,1 -1.6,1 l -13.9,0 0,13.95 c 0,0.69 0,1.64 -1,1.64 -1,0 -1,-0.95 -1,-1.64 l 0,-13.95 -14,0 c -0.7,0 -1.6,0 -1.6,-1 0,-0.99 0.9,-0.99 1.6,-0.99 l 14,0 0,-13.95 c 0,-0.7 0,-1.64 1,-1.64 1,0 1,0.94 1,1.64 z"
           id="path3634" /><path
           style="fill:#000000;stroke-width:0"
           inkscape:connector-curvature="0"
           d="m 1229.8,371.41 -0.1,-0.05 -0.1,-0.05 -0.1,-0.05 -0.1,-0.05 -0.1,-0.06 0,-0.03 -0.1,-0.03 0,-0.03 0,-0.03 -0.1,-0.03 0,-0.04 -0.1,-0.03 0,-0.04 0,-0.03 -0.1,-0.04 0,-0.04 0,-0.04 0,-0.04 -0.1,-0.05 0,-0.04 0,-0.05 0,-0.04 0,-0.05 0,-0.05 -0.1,-0.05 0,-0.06 0,-0.05 c 0,-0.55 0.5,-1 1,-1 0.2,0 0.3,0 0.9,0.35 l 5,2.54 0,-24.16 -5.1,0 c -0.7,0 -1.8,0 -1.8,-0.99 0,-1 1.1,-1 1.8,-1 l 18.6,0 c 0.9,0 1.8,0 1.8,1 0,0.99 -0.9,0.99 -1.8,0.99 l -5.1,0 -2,0 -4.4,0 0,25.21 4.4,2.24 0,-27.45 2,0 0,28.3 c 0,0.89 0,1.79 -1,1.79 -0.2,0 -0.3,0 -0.9,-0.35 z"
           id="path3636" /><path
           style="fill:#000000;stroke-width:0"
           inkscape:connector-curvature="0"
           d="m 1285.4,357.46 13.9,0 c 0.7,0 1.6,0 1.6,0.99 0,1 -0.9,1 -1.6,1 l -13.9,0 0,13.95 c 0,0.69 0,1.64 -1,1.64 -1,0 -1,-0.95 -1,-1.64 l 0,-13.95 -14,0 c -0.7,0 -1.6,0 -1.6,-1 0,-0.99 0.9,-0.99 1.6,-0.99 l 14,0 0,-13.95 c 0,-0.7 0,-1.64 1,-1.64 1,0 1,0.94 1,1.64 z"
           id="path3638" /><path
           style="fill:#000000;stroke-width:0"
           inkscape:connector-curvature="0"
           d="m 1318.8,371.41 -0.1,-0.05 -0.1,-0.05 -0.1,-0.05 -0.1,-0.05 -0.1,-0.06 0,-0.03 -0.1,-0.03 0,-0.03 0,-0.03 -0.1,-0.03 0,-0.04 -0.1,-0.03 0,-0.04 0,-0.03 -0.1,-0.04 0,-0.04 0,-0.04 0,-0.04 -0.1,-0.05 0,-0.04 0,-0.05 0,-0.04 0,-0.05 0,-0.05 -0.1,-0.05 0,-0.06 0,-0.05 c 0,-0.55 0.5,-1 1,-1 0.2,0 0.3,0 0.9,0.35 l 5,2.54 0,-24.16 -5.1,0 c -0.7,0 -1.8,0 -1.8,-0.99 0,-1 1.1,-1 1.8,-1 l 18.6,0 c 0.9,0 1.8,0 1.8,1 0,0.99 -0.9,0.99 -1.8,0.99 l -5.1,0 -2,0 -4.4,0 0,25.21 4.4,2.24 0,-27.45 2,0 0,28.3 c 0,0.89 0,1.79 -1,1.79 -0.2,0 -0.3,0 -0.9,-0.35 z"
           id="path3640" /><path
           style="fill:#000000;stroke-width:0"
           inkscape:connector-curvature="0"
           d="m 1374.4,357.46 13.9,0 c 0.7,0 1.6,0 1.6,0.99 0,1 -0.9,1 -1.6,1 l -13.9,0 0,13.95 c 0,0.69 0,1.64 -1,1.64 -1,0 -1,-0.95 -1,-1.64 l 0,-13.95 -14,0 c -0.7,0 -1.6,0 -1.6,-1 0,-0.99 0.9,-0.99 1.6,-0.99 l 14,0 0,-13.95 c 0,-0.7 0,-1.64 1,-1.64 1,0 1,0.94 1,1.64 z"
           id="path3642" /><path
           style="fill:#000000;stroke-width:0"
           inkscape:connector-curvature="0"
           d="m 1427.9,362.04 -0.1,0.84 0,0.84 0,0.83 -0.1,0.81 -0.1,0.81 -0.1,0.8 -0.2,0.78 -0.1,0.77 -0.2,0.75 -0.2,0.74 -0.2,0.72 -0.3,0.69 -0.3,0.68 -0.3,0.65 -0.3,0.63 -0.3,0.61 -0.4,0.58 -0.3,0.55 -0.4,0.52 -0.5,0.49 -0.4,0.46 -0.5,0.43 -0.5,0.39 -0.5,0.36 -0.5,0.32 -0.5,0.28 -0.6,0.24 -0.6,0.2 -0.6,0.16 -0.7,0.11 -0.6,0.07 -0.7,0.03 0,-2 c 6.7,0 9.1,-8.47 9.1,-15.14 0,-6.72 -2.4,-15.14 -9.1,-15.14 -1.4,0 -2.6,0.44 -2.7,0.49 l 0,29.29 c 0.1,0.05 1.3,0.5 2.7,0.5 l 0,2 c -7.4,0 -11.1,-8.17 -11.1,-17.14 l 2,0 c 0,4.03 0.9,10.16 4.4,13.35 l 0,-26.7 c -3.6,3.24 -4.4,9.56 -4.4,13.35 l -2,0 c 0,-9.02 3.7,-17.14 11.1,-17.14 7.4,0 11.1,8.17 11.1,17.14 z"
           id="path3644" /></g>    </g>
    <path
       inkscape:connector-curvature="0"
       id="path3785"
       d="M 540.43161,741.23523 C 431.33514,786.69209 431.33514,789.72255 431.33514,789.72255"
       style="fill:none;fill-rule:evenodd;stroke:#0000b3;stroke-width:1px;stroke-linecap:butt;stroke-linejoin:miter;stroke-opacity:1;marker-end:url(#marker12174)" />
    <g
       style="fill:#ff33ff"
       transform="matrix(0,-0.68720052,0.68720052,0,-231.44285,1510.5136)"
       id="g4823">
      <g
         style="font-style:normal;font-variant:normal;font-weight:normal;font-stretch:normal;letter-spacing:normal;word-spacing:normal;text-anchor:start;fill:#ff33ff;fill-opacity:1;fill-rule:evenodd;stroke:#000000;stroke-linecap:butt;stroke-linejoin:miter;stroke-miterlimit:10.43299961;stroke-dasharray:none;stroke-dashoffset:0;stroke-opacity:1"
         word-spacing="normal"
         letter-spacing="normal"
         font-size-adjust="none"
         font-stretch="normal"
         font-weight="normal"
         font-variant="normal"
         font-style="normal"
         stroke-miterlimit="10.433"
         xml:space="preserve"
         transform="matrix(1.0928571,0,0,-1.0928571,-191.25,1012.5)"
         id="g4825"><path
           style="fill:#ff33ff;stroke-width:0"
           inkscape:connector-curvature="0"
           id="path4827"
           d="m 1218.2,339.92 0,-0.15 0,-0.15 -0.1,-0.14 0,-0.13 0,-0.13 -0.1,-0.11 0,-0.12 0,-0.1 -0.1,-0.1 0,-0.09 -0.1,-0.09 0,-0.08 -0.1,-0.07 0,-0.07 -0.1,-0.07 0,-0.05 -0.1,-0.06 -0.1,-0.05 -0.1,-0.04 0,-0.04 -0.1,-0.04 -0.1,-0.03 -0.1,-0.03 -0.2,-0.02 -0.1,-0.02 -0.1,-0.02 -0.1,0 -0.1,-0.01 0,-0.01 -0.1,0 -0.1,-0.01 -0.1,0 -0.1,0 -0.1,-0.01 -0.1,0 -0.1,0 0,0 -0.1,0 c -0.7,0 -1.2,0 -1.2,-0.95 0,-0.39 0.3,-0.59 0.7,-0.59 l 9.1,0 c 0.2,0 0.9,0 0.9,0.99 0,0.55 -0.5,0.55 -1.2,0.55 -2.5,0 -2.5,0.35 -2.5,0.8 0,0.59 2.1,8.71 2.4,9.96 0.7,-1.44 2.1,-3.19 4.6,-3.19 l 0,1.1 c -3.3,0 -4,4.13 -4,4.43 0,0.1 0,0.2 0.2,0.8 l 2.4,9.76 c 0.4,1.35 1.7,2.74 2.6,3.49 1.7,1.54 3.2,1.89 4,1.89 2,0 3.2,-1.74 3.2,-4.68 0,-2.94 -1.6,-8.67 -2.5,-10.56 -1.7,-3.49 -4.1,-5.13 -5.9,-5.13 l 0,-1.1 c 5.8,0 12,7.28 12,14.6 0,4.68 -2.8,7.97 -6.6,7.97 -2.5,0 -4.9,-1.8 -6.5,-3.74 -0.5,2.69 -2.7,3.74 -4.5,3.74 -2.3,0 -3.3,-1.95 -3.7,-2.84 -0.9,-1.7 -1.6,-4.68 -1.6,-4.83 0,-0.5 0.5,-0.5 0.6,-0.5 0.5,0 0.6,0.05 0.9,1.14 0.8,3.54 1.8,5.93 3.6,5.93 0.9,0 1.6,-0.4 1.6,-2.29 0,-1.15 -0.2,-1.69 -0.4,-2.54 z" /><path
           style="fill:#ff33ff;stroke-width:0"
           inkscape:connector-curvature="0"
           id="path4829"
           d="m 1252.1,383.46 0,0.05 0.1,0.05 0,0.06 0,0.05 0,0.04 0,0.05 0.1,0.04 0,0.05 0,0.04 0,0.04 0,0.04 0,0.04 0,0.03 0.1,0.04 0,0.03 0,0.04 0,0.03 0,0.03 0,0.03 0,0.03 0,0.03 0,0.03 0,0.02 0,0.03 0,0.05 0,0.05 0,0.05 0,0.04 c 0,1.09 -1,1.92 -2,1.92 -1.4,0 -1.8,-1.08 -2,-1.64 l -4.6,-15.1 c 0,-0.07 -0.1,-0.52 -0.1,-0.55 0,-0.42 1.1,-0.77 1.3,-0.77 0.3,0 0.3,0.07 0.6,0.59 z" /><path
           style="fill:#ff33ff;stroke-width:0"
           inkscape:connector-curvature="0"
           id="path4831"
           d="m 1251.5,345.64 0.3,0 0.2,-0.02 0.3,-0.02 0.2,-0.04 0.2,-0.05 0.3,-0.06 0.2,-0.07 0.2,-0.09 0.2,-0.09 0.2,-0.11 0.2,-0.11 0.2,-0.13 0.2,-0.13 0.1,-0.15 0.2,-0.16 0.2,-0.17 0.1,-0.18 0.2,-0.2 0.1,-0.2 0.1,-0.21 0.1,-0.23 0.2,-0.23 0.1,-0.25 0,-0.26 0.1,-0.27 0.1,-0.28 0.1,-0.29 0,-0.3 0,-0.31 0.1,-0.32 0,-0.33 0,-0.35 c 0,-4.32 -2.5,-5.61 -4.5,-5.61 -1.4,0 -4.5,0.38 -6,2.44 1.7,0.07 2.1,1.22 2.1,1.95 0,1.12 -0.9,1.92 -2,1.92 -0.9,0 -1.9,-0.59 -1.9,-2.02 0,-3.28 3.6,-5.41 7.8,-5.41 4.9,0 8.2,3.25 8.2,6.73 0,2.72 -2.2,5.44 -6,6.24 3.6,1.33 4.9,3.94 4.9,6.07 0,2.76 -3.1,4.81 -7,4.81 -3.9,0 -6.8,-1.88 -6.8,-4.67 0,-1.18 0.7,-1.85 1.8,-1.85 1.1,0 1.8,0.8 1.8,1.78 0,1.01 -0.7,1.75 -1.8,1.81 1.2,1.54 3.6,1.92 4.9,1.92 1.6,0 3.8,-0.76 3.8,-3.8 0,-1.46 -0.5,-3.07 -1.4,-4.15 -1.2,-1.32 -2.2,-1.39 -3.9,-1.5 -0.9,-0.07 -1,-0.07 -1.1,-0.1 -0.1,0 -0.4,-0.07 -0.4,-0.46 0,-0.49 0.3,-0.49 0.9,-0.49 z" /></g>    </g>
    <g
       style="fill:#ff33ff"
       transform="matrix(0,1,-1,0,865.30472,-454.1303)"
       id="g5081">
      <g
         style="font-style:normal;font-variant:normal;font-weight:normal;font-stretch:normal;letter-spacing:normal;word-spacing:normal;text-anchor:start;fill:#ff33ff;fill-opacity:1;fill-rule:evenodd;stroke:#000000;stroke-linecap:butt;stroke-linejoin:miter;stroke-miterlimit:10.43299961;stroke-dasharray:none;stroke-dashoffset:0;stroke-opacity:1"
         id="g5083"
         transform="matrix(1.0928571,0,0,-1.0928571,-191.25,1012.5)"
         xml:space="preserve"
         stroke-miterlimit="10.433"
         font-style="normal"
         font-variant="normal"
         font-weight="normal"
         font-stretch="normal"
         font-size-adjust="none"
         letter-spacing="normal"
         word-spacing="normal"><path
           style="fill:#ff33ff;stroke-width:0"
           inkscape:connector-curvature="0"
           d="m 1260.2,362.29 0.2,0 0.2,0 0,0 0.1,0.01 0.1,0 0.1,0 0.1,0.01 0,0.01 0.1,0.01 0.1,0.01 0,0.02 0.1,0.01 0.1,0.02 0,0.02 0.1,0.03 0.1,0.03 0,0.03 0.1,0.03 0,0.04 0,0.04 0.1,0.05 0,0.05 0.1,0.05 0,0.03 0,0.03 0,0.03 0,0.04 0,0.03 0,0.04 0,0.03 0,0.04 0.1,0.04 0,0.04 0,0.04 0,0.04 0,0.05 0,0.05 c 0,0.99 -0.9,0.99 -1.8,0.99 l -38.1,0 c 3.4,3.04 4.4,6.08 4.8,7.33 l -1.6,0 c -1.6,-4.29 -4.8,-6.98 -7.5,-8.32 l 0,-1 z"
           id="path5085" /><path
           style="fill:#ff33ff;stroke-width:0"
           inkscape:connector-curvature="0"
           d="m 1257.7,352.62 -0.3,-0.28 -0.3,-0.28 -0.3,-0.29 -0.3,-0.28 -0.2,-0.28 -0.3,-0.28 -0.2,-0.28 -0.3,-0.28 -0.2,-0.27 -0.2,-0.27 -0.2,-0.27 -0.1,-0.26 -0.2,-0.26 -0.2,-0.25 -0.1,-0.25 -0.1,-0.25 -0.2,-0.24 -0.1,-0.23 -0.1,-0.23 -0.1,-0.23 -0.1,-0.21 -0.1,-0.21 -0.1,-0.2 -0.1,-0.2 0,-0.18 -0.1,-0.18 -0.1,-0.17 0,-0.16 -0.1,-0.15 0,-0.14 -0.1,-0.14 0,-0.12 1.5,0 c 1.7,4.29 4.8,6.98 7.6,8.32 l 0,1 -42.5,0 c -0.9,0 -1.7,0 -1.7,-1 0,-1 0.9,-1 1.7,-1 z"
           id="path5087" /></g>    </g>
    <g
       id="g5345"
       transform="translate(-58.966084,-253.75134)">
      <g
         word-spacing="normal"
         letter-spacing="normal"
         font-size-adjust="none"
         font-stretch="normal"
         font-weight="normal"
         font-variant="normal"
         font-style="normal"
         stroke-miterlimit="10.433"
         xml:space="preserve"
         transform="matrix(1.0928571,0,0,-1.0928571,-191.25,1012.5)"
         id="g5347"
         style="font-style:normal;font-variant:normal;font-weight:normal;font-stretch:normal;letter-spacing:normal;word-spacing:normal;text-anchor:start;fill:none;fill-opacity:1;fill-rule:evenodd;stroke:#000000;stroke-linecap:butt;stroke-linejoin:miter;stroke-miterlimit:10.43299961;stroke-dasharray:none;stroke-dashoffset:0;stroke-opacity:1"><path
           id="path5349"
           d="m 1116.8,324.26 0,2.69 c -6.6,0 -8.1,2.29 -8.1,5.48 l 0,53.4 c 0,3.24 1.5,5.48 8.1,5.48 l 0,2.69 -58,0 0,-2.69 c 6.6,0 8.2,-2.29 8.2,-5.48 l 0,-53.4 c 0,-3.24 -1.6,-5.48 -8.2,-5.48 l 0,-2.69 24,0 0,2.69 c -6.7,0 -8.2,2.29 -8.2,5.48 l 0,58.88 26.4,0 0,-58.88 c 0,-3.24 -1.6,-5.48 -8.1,-5.48 l 0,-2.69 z"
           inkscape:connector-curvature="0"
           style="fill:#000000;stroke-width:0" /><path
           id="path5351"
           d="m 1070.9,308.1 0.1,0.04 0,0.05 0,0.04 0,0.05 0,0.04 0,0.04 0,0.04 0,0.04 0.1,0.07 0,0.07 0,0.06 0,0.06 0,0.05 0.1,0.05 0,0.05 0,0.05 0,0.04 0,0.03 0.1,0.04 0,0.03 0,0.03 0,0.03 0.1,0.02 0,0.02 0,0.02 0.1,0.02 0,0.01 0.1,0.02 0,0.01 0.1,0.01 0,0.01 0.1,0.01 0,0.01 0.1,0.01 0.1,0 0,0.01 c 0.2,0.04 1.4,0.04 2.1,0.04 2.1,0 3.1,0 3.9,-0.28 1.6,-0.49 1.7,-1.5 1.7,-2.76 0,-0.55 0,-1.01 -0.3,-2.82 l -0.1,-0.39 c 0,-0.34 0.3,-0.52 0.6,-0.52 0.6,0 0.6,0.32 0.7,0.87 l 1,6.66 c 0,0.49 -0.5,0.49 -1.1,0.49 l -21.4,0 c -0.9,0 -1,0 -1.2,-0.73 l -2.2,-6.17 c -0.1,-0.14 -0.2,-0.46 -0.2,-0.63 0,-0.14 0.1,-0.49 0.6,-0.49 0.5,0 0.5,0.18 0.7,0.84 2,5.58 3.2,5.93 8.5,5.93 l 1.5,0 c 1,0 1,-0.04 1,-0.35 0,-0.04 0,-0.21 -0.1,-0.74 l -4.6,-18.34 c -0.3,-1.28 -0.4,-1.64 -4.1,-1.64 -1.2,0 -1.6,0 -1.6,-0.76 0,-0.11 0.1,-0.49 0.6,-0.49 l 12.1,0 c 0.3,0 0.8,0 0.8,0.77 0,0.48 -0.3,0.48 -1.4,0.48 -0.7,0 -1.4,0.04 -2,0.07 -1.2,0.11 -1.3,0.25 -1.3,0.67 0,0.24 0,0.31 0.1,0.8 z"
           inkscape:connector-curvature="0"
           style="fill:#000000;stroke-width:0" /><path
           id="path5353"
           d="m 1090.6,300.01 0,0.11 0,0.11 0,0.11 0,0.1 0,0.11 -0.1,0.1 0,0.09 0,0.1 -0.1,0.09 0,0.09 -0.1,0.08 0,0.08 -0.1,0.08 0,0.08 -0.1,0.07 -0.1,0.06 0,0.07 -0.1,0.06 -0.1,0.06 -0.1,0.05 -0.1,0.05 0,0.04 -0.1,0.05 -0.1,0.03 -0.1,0.04 -0.1,0.03 -0.1,0.02 -0.1,0.02 -0.1,0.02 -0.1,0.01 -0.1,0 0,0.01 c -1.3,0 -2.1,-0.98 -2.1,-1.99 0,-1.22 1,-2.02 2,-2.02 1.2,0 2,0.98 2,1.99 z"
           inkscape:connector-curvature="0"
           style="fill:#000000;stroke-width:0" /><path
           id="path5355"
           d="m 1090.6,288.99 0,0.11 0,0.11 0,0.11 0,0.1 0,0.11 -0.1,0.1 0,0.09 0,0.1 -0.1,0.09 0,0.09 -0.1,0.08 0,0.08 -0.1,0.08 0,0.08 -0.1,0.07 -0.1,0.07 0,0.06 -0.1,0.06 -0.1,0.06 -0.1,0.05 -0.1,0.05 0,0.05 -0.1,0.04 -0.1,0.04 -0.1,0.03 -0.1,0.03 -0.1,0.02 -0.1,0.03 -0.1,0.01 -0.1,0.01 -0.1,0.01 0,0 c -1.3,0 -2.1,-0.97 -2.1,-1.99 0,-1.22 1,-2.02 2,-2.02 1.2,0 2,0.98 2,1.99 z"
           inkscape:connector-curvature="0"
           style="fill:#000000;stroke-width:0" /><path
           id="path5357"
           d="m 1118.8,311.06 0,0.02 0,0.01 0,0.02 0,0.02 0,0.02 -0.1,0.02 0,0.01 0,0.02 0,0.02 0,0.02 0,0.02 0,0.02 0,0.02 0,0.02 0,0.01 0,0.02 -0.1,0.02 0,0.01 0,0.02 0,0.01 0,0.02 0,0.01 -0.1,0.01 0,0.02 0,0.01 0,0.01 -0.1,0 0,0.01 0,0 0,0 0,0.01 0,0 -0.1,0 0,0 0,0 0,0 c -0.2,0 -0.2,-0.03 -0.7,-0.49 l -1.7,-1.98 c -1.3,1.85 -3.5,2.47 -5.7,2.47 -4.9,0 -9.2,-3.97 -9.2,-7.98 0,-0.53 0.1,-1.92 1.1,-3.21 1.2,-1.39 2.5,-1.71 4.9,-2.27 0.7,-0.17 2.4,-0.55 2.9,-0.69 1.2,-0.28 3.3,-1.05 3.3,-3.66 0,-2.83 -3,-6.14 -7,-6.14 -3,0 -6.7,1.08 -6.7,4.95 0,0.35 0,1.11 0.2,1.74 0,0.14 0,0.18 0,0.21 0,0.45 -0.4,0.45 -0.5,0.45 -0.5,0 -0.6,-0.07 -0.7,-0.69 l -1.8,-6.98 c 0,-0.13 -0.1,-0.35 -0.1,-0.52 0,-0.21 0.2,-0.42 0.5,-0.42 0.2,0 0.2,0.04 0.7,0.49 0.4,0.42 1.3,1.53 1.7,1.95 1.8,-2.02 4.5,-2.44 6.6,-2.44 5.3,0 9.6,4.54 9.6,8.65 0,1.53 -0.7,2.93 -1.4,3.73 -1.3,1.26 -1.8,1.39 -6.3,2.44 -0.7,0.18 -1.9,0.45 -2.2,0.56 -0.9,0.31 -2.3,1.19 -2.3,3.17 0,2.76 3.1,5.55 6.7,5.55 3.8,0 5.6,-2.13 5.6,-5.44 0,-0.46 -0.1,-1.26 -0.1,-1.57 0,-0.49 0.4,-0.49 0.5,-0.49 0.6,0 0.6,0.17 0.7,0.77 z"
           inkscape:connector-curvature="0"
           style="fill:#000000;stroke-width:0" /><path
           id="path5359"
           d="m 1126.8,334.09 0,-0.02 0,-0.03 0,-0.03 0,-0.02 0,-0.03 0,-0.03 0,-0.02 0,-0.03 0,-0.02 0,-0.02 0.1,-0.03 0,-0.02 0,-0.02 0,-0.02 0,-0.02 0,-0.02 0.1,-0.02 0,-0.02 0,-0.01 0,-0.02 0,-0.01 0.1,-0.02 0,-0.01 0,-0.01 0,-0.01 0.1,-0.01 0,-0.01 0,0 0,-0.01 0.1,0 0,0 0,0 12,0 c 0.4,0 0.6,0.25 0.6,0.54 l 0,0.9 c 0,0.3 -0.2,0.55 -0.6,0.55 l -4.4,0 -1.9,0 -4.2,0 0,45.83 4.2,0 0,-45.83 1.9,0 0,45.83 4.4,0 c 0.4,0 0.6,0.25 0.6,0.54 l 0,0.9 c 0,0.3 -0.2,0.55 -0.6,0.55 l -12,0 c -0.3,0 -0.5,-0.25 -0.5,-0.55 z"
           inkscape:connector-curvature="0"
           style="fill:#000000;stroke-width:0" /><path
           id="path5361"
           d="m 1146.8,334.09 0,-0.02 0,-0.03 0,-0.03 0,-0.02 0,-0.03 0,-0.03 0,-0.02 0,-0.03 0,-0.02 0,-0.02 0.1,-0.03 0,-0.02 0,-0.02 0,-0.02 0,-0.02 0,-0.02 0.1,-0.02 0,-0.02 0,-0.01 0,-0.02 0,-0.01 0.1,-0.02 0,-0.01 0,-0.01 0,-0.01 0.1,-0.01 0,-0.01 0,0 0,-0.01 0.1,0 0,0 0,0 12,0 c 0.4,0 0.6,0.25 0.6,0.54 l 0,0.9 c 0,0.3 -0.2,0.55 -0.6,0.55 l -4.4,0 -1.9,0 -4.2,0 0,45.83 4.2,0 0,-45.83 1.9,0 0,45.83 4.4,0 c 0.4,0 0.6,0.25 0.6,0.54 l 0,0.9 c 0,0.3 -0.2,0.55 -0.6,0.55 l -12,0 c -0.3,0 -0.5,-0.25 -0.5,-0.55 z"
           inkscape:connector-curvature="0"
           style="fill:#000000;stroke-width:0" /><path
           id="path5363"
           d="m 1182.3,376.24 0,0.13 0,0.12 0.1,0.11 0,0.11 0,0.11 0.1,0.09 0,0.1 0,0.08 0,0.09 0.1,0.07 0,0.08 0,0.06 0.1,0.07 0,0.06 0,0.05 0,0.06 0.1,0.04 0,0.05 0,0.04 0.1,0.04 0,0.03 0.1,0.04 0,0.03 0,0.02 0.1,0.03 0,0.02 0.1,0.02 0,0.02 0.1,0.02 0,0.02 0.1,0.01 0,0.02 c 0.5,0.1 2.1,0.1 3.2,0.1 5,0 7.2,-0.2 7.2,-4.09 0,-0.74 -0.2,-2.68 -0.4,-3.98 0,-0.2 -0.1,-0.8 -0.1,-0.95 0,-0.3 0.1,-0.64 0.6,-0.64 0.5,0 0.6,0.39 0.7,1.14 l 1.4,8.67 c 0,0.2 0.1,0.7 0.1,0.85 0,0.54 -0.5,0.54 -1.4,0.54 l -27.6,0 c -1.2,0 -1.3,-0.05 -1.6,-0.99 l -3,-8.77 c -0.1,-0.1 -0.3,-0.8 -0.3,-0.9 0,-0.29 0.2,-0.54 0.6,-0.54 0.5,0 0.5,0.25 0.8,1.04 2.7,7.72 4,8.62 11.4,8.62 l 1.9,0 c 1.4,0 1.4,-0.2 1.4,-0.6 0,-0.3 -0.1,-0.9 -0.2,-1.04 l -6.6,-26.61 c -0.5,-1.84 -0.6,-2.39 -6,-2.39 -1.8,0 -2.1,0 -2.1,-0.94 0,-0.6 0.6,-0.6 0.9,-0.6 1.3,0 2.7,0.1 4.1,0.1 l 8.3,0 c 1.5,0 3,-0.1 4.4,-0.1 0.5,0 1.1,0 1.1,1 0,0.54 -0.4,0.54 -1.7,0.54 -1.3,0 -1.9,0 -3.2,0.1 -1.5,0.15 -1.9,0.3 -1.9,1.1 0,0.05 0,0.3 0.2,1.05 z"
           inkscape:connector-curvature="0"
           style="fill:#000000;stroke-width:0" /><path
           id="path5365"
           d="m 1211.2,334.09 0,48.72 c 0,0.3 -0.3,0.55 -0.5,0.55 l -12,0 c -0.3,0 -0.5,-0.25 -0.5,-0.55 l 0,-0.9 c 0,-0.29 0.2,-0.54 0.5,-0.54 l 4.3,0 2,0 4.2,0 0,-45.83 -4.2,0 0,45.83 -2,0 0,-45.83 -4.3,0 c -0.3,0 -0.5,-0.25 -0.5,-0.55 l 0,-0.9 c 0,-0.29 0.2,-0.54 0.5,-0.54 l 12,0 c 0.2,0 0.5,0.25 0.5,0.54 z"
           inkscape:connector-curvature="0"
           style="fill:#000000;stroke-width:0" /><path
           id="path5367"
           d="m 1235,350.12 0,0.71 0,0.68 -0.1,0.66 0,0.64 -0.1,0.62 0,0.59 -0.1,0.58 -0.1,0.56 -0.2,0.55 -0.1,0.53 -0.2,0.51 -0.2,0.5 -0.2,0.49 -0.2,0.48 -0.3,0.47 -0.1,0.24 -0.2,0.23 c -1,1.6 -3.2,2.99 -6,2.99 l 0,-0.97 c 1.9,0 3.7,-1.15 4.3,-3.18 0.6,-1.88 0.6,-4.39 0.6,-7.42 0,-2.58 0,-5.17 -0.4,-7.36 -0.7,-3.17 -3.1,-3.94 -4.5,-3.94 l 0,0 c -1.6,0 -3.7,0.94 -4.4,3.8 -0.5,2.06 -0.5,4.92 -0.5,7.5 0,2.54 0,5.19 0.5,7.11 0.7,2.76 3,3.49 4.4,3.49 l 0,0.97 c -8.1,0 -8.1,-9.52 -8.1,-12.03 0,-2.51 0,-11.82 8.1,-11.82 8.1,0 8.1,9.31 8.1,11.82 z"
           inkscape:connector-curvature="0"
           style="fill:#000000;stroke-width:0" /><path
           id="path5369"
           d="m 1253.2,334.09 0,48.72 c 0,0.3 -0.3,0.55 -0.5,0.55 l -12,0 c -0.3,0 -0.5,-0.25 -0.5,-0.55 l 0,-0.9 c 0,-0.29 0.2,-0.54 0.5,-0.54 l 4.3,0 2,0 4.2,0 0,-45.83 -4.2,0 0,45.83 -2,0 0,-45.83 -4.3,0 c -0.3,0 -0.5,-0.25 -0.5,-0.55 l 0,-0.9 c 0,-0.29 0.2,-0.54 0.5,-0.54 l 12,0 c 0.2,0 0.5,0.25 0.5,0.54 z"
           inkscape:connector-curvature="0"
           style="fill:#000000;stroke-width:0" /><path
           id="path5371"
           d="m 1284.9,375.88 0.1,0 0,0 0.1,0 0.1,0 0.1,0 0,0.01 0.1,0 0.1,0.01 0,0 0.1,0.01 0,0.01 0.1,0.02 0,0.01 0.1,0.02 0,0.01 0.1,0.02 0.1,0.03 0,0.02 0,0.03 0.1,0.04 0,0.03 0.1,0.04 0,0.02 0,0.02 0,0.03 0,0.02 0,0.02 0.1,0.03 0,0.03 0,0.02 0,0.03 0,0.03 0,0.03 0,0.03 0,0.04 0,0.03 0,0.04 0,0.03 0,0.04 0,0.04 c 0,0.87 -0.8,0.87 -1.4,0.87 l -20.7,0 c -0.6,0 -1.4,0 -1.4,-0.84 0,-0.87 0.8,-0.87 1.4,-0.87 z"
           inkscape:connector-curvature="0"
           style="fill:#000000;stroke-width:0" /><path
           id="path5373"
           d="m 1301.7,390.18 0,0.04 0,0.04 0,0.04 0,0.04 0,0.04 0,0.04 0,0.03 0,0.04 0,0.03 0,0.03 0,0.04 0,0.03 0,0.02 0,0.03 0,0.03 0,0.03 -0.1,0.02 0,0.02 0,0.05 0,0.04 0,0.04 0,0.03 0,0.03 -0.1,0.03 0,0.03 0,0.02 0,0.02 -0.1,0.02 0,0.01 0,0.01 -0.1,0.02 0,0 -0.1,0.01 0,0 0,0.01 0,0 -0.1,0 0,0 0,0 -0.1,0.01 0,0 0,0 -0.1,0 0,0 0,0 -0.1,0 0,0 -0.1,0 0,0 -0.1,0 c -2.2,-2.19 -5.4,-2.23 -6.8,-2.23 l 0,-1.25 c 0.8,0 3.1,0 5.1,0.97 l 0,-17.78 c 0,-1.15 0,-1.61 -3.5,-1.61 l -1.4,0 0,-1.25 12.5,0 0,1.25 -1.3,0 c -3.5,0 -3.5,0.46 -3.5,1.61 z"
           inkscape:connector-curvature="0"
           style="fill:#000000;stroke-width:0" /><path
           id="path5375"
           d="m 1277,344.12 0,0.71 0,0.68 -0.1,0.66 0,0.64 -0.1,0.62 0,0.59 -0.1,0.58 -0.1,0.56 -0.2,0.55 -0.1,0.53 -0.2,0.51 -0.2,0.5 -0.2,0.49 -0.2,0.48 -0.3,0.47 -0.1,0.24 -0.2,0.23 c -1,1.6 -3.2,2.99 -6,2.99 l 0,-0.97 c 1.9,0 3.7,-1.15 4.3,-3.18 0.6,-1.88 0.6,-4.39 0.6,-7.42 0,-2.58 0,-5.17 -0.4,-7.36 -0.7,-3.17 -3.1,-3.94 -4.5,-3.94 l 0,0 c -1.6,0 -3.7,0.94 -4.4,3.8 -0.5,2.06 -0.5,4.92 -0.5,7.5 0,2.54 0,5.19 0.5,7.11 0.7,2.76 3,3.49 4.4,3.49 l 0,0.97 c -8.1,0 -8.1,-9.52 -8.1,-12.03 0,-2.51 0,-11.82 8.1,-11.82 8.1,0 8.1,9.31 8.1,11.82 z"
           inkscape:connector-curvature="0"
           style="fill:#000000;stroke-width:0" /><path
           id="path5377"
           d="m 1373,362.29 0,1 c -2.8,1.34 -5.9,4.08 -7.6,8.32 l -1.5,0 c 0.4,-1.25 1.3,-4.29 4.8,-7.33 l -38.2,0 c -0.9,0 -1.7,0 -1.7,-0.99 0,-1 0.9,-1 1.7,-1 z"
           inkscape:connector-curvature="0"
           style="fill:#000000;stroke-width:0" /><path
           id="path5379"
           d="m 1371.2,352.62 0.2,0.01 0.2,0 0,0 0.1,0 0.1,0.01 0.1,0 0.1,0.01 0,0.01 0.1,0.01 0.1,0.01 0,0.01 0.1,0.02 0.1,0.02 0,0.02 0.1,0.02 0.1,0.03 0,0.03 0.1,0.04 0,0.04 0,0.04 0.1,0.04 0,0.06 0.1,0.05 0,0.03 0,0.03 0,0.03 0,0.03 0,0.04 0,0.03 0,0.04 0,0.04 0.1,0.04 0,0.04 0,0.04 0,0.04 0,0.05 0,0.04 c 0,1 -0.9,1 -1.8,1 l -42.4,0 0,-1 c 2.8,-1.34 5.9,-4.08 7.5,-8.32 l 1.6,0 c -0.4,1.25 -1.4,4.29 -4.8,7.32 z"
           inkscape:connector-curvature="0"
           style="fill:#000000;stroke-width:0" /><path
           id="path5381"
           d="m 1411.3,376.24 0,0.13 0,0.12 0.1,0.11 0,0.11 0,0.11 0.1,0.09 0,0.1 0,0.08 0,0.09 0.1,0.07 0,0.08 0,0.06 0.1,0.07 0,0.06 0,0.05 0,0.06 0.1,0.04 0,0.05 0,0.04 0.1,0.04 0,0.03 0.1,0.04 0,0.03 0,0.02 0.1,0.03 0,0.02 0.1,0.02 0,0.02 0.1,0.02 0,0.02 0.1,0.01 0,0.02 c 0.5,0.1 2.1,0.1 3.2,0.1 5,0 7.2,-0.2 7.2,-4.09 0,-0.74 -0.2,-2.68 -0.4,-3.98 0,-0.2 -0.1,-0.8 -0.1,-0.95 0,-0.3 0.1,-0.64 0.6,-0.64 0.5,0 0.6,0.39 0.7,1.14 l 1.4,8.67 c 0,0.2 0.1,0.7 0.1,0.85 0,0.54 -0.5,0.54 -1.4,0.54 l -27.6,0 c -1.2,0 -1.3,-0.05 -1.6,-0.99 l -3,-8.77 c -0.1,-0.1 -0.3,-0.8 -0.3,-0.9 0,-0.29 0.2,-0.54 0.6,-0.54 0.5,0 0.5,0.25 0.8,1.04 2.7,7.72 4,8.62 11.4,8.62 l 1.9,0 c 1.4,0 1.4,-0.2 1.4,-0.6 0,-0.3 -0.1,-0.9 -0.2,-1.04 l -6.6,-26.61 c -0.5,-1.84 -0.6,-2.39 -6,-2.39 -1.8,0 -2.1,0 -2.1,-0.94 0,-0.6 0.6,-0.6 0.9,-0.6 1.3,0 2.7,0.1 4.1,0.1 l 8.3,0 c 1.5,0 3,-0.1 4.4,-0.1 0.5,0 1.1,0 1.1,1 0,0.54 -0.4,0.54 -1.7,0.54 -1.3,0 -1.9,0 -3.2,0.1 -1.5,0.15 -1.9,0.3 -1.9,1.1 0,0.05 0,0.3 0.2,1.05 z"
           inkscape:connector-curvature="0"
           style="fill:#000000;stroke-width:0" /></g>    </g>
  </g>
  <g
     transform="matrix(0.62237983,0,0,0.62237983,13.356091,225.56444)"
     id="g9708">
    <g
       style="font-style:normal;font-variant:normal;font-weight:normal;font-stretch:normal;letter-spacing:normal;word-spacing:normal;text-anchor:start;fill:none;fill-opacity:1;fill-rule:evenodd;stroke:#000000;stroke-linecap:butt;stroke-linejoin:miter;stroke-miterlimit:10.43299961;stroke-dasharray:none;stroke-dashoffset:0;stroke-opacity:1"
       id="g9710"
       transform="matrix(1.0928571,0,0,-1.0928571,-191.25,742.5)"
       xml:space="preserve"
       stroke-miterlimit="10.433"
       font-style="normal"
       font-variant="normal"
       font-weight="normal"
       font-stretch="normal"
       font-size-adjust="none"
       letter-spacing="normal"
       word-spacing="normal"><path
         style="fill:#000000;stroke-width:0"
         inkscape:connector-curvature="0"
         d="m 965.49,334.04 0,0.03 0,0.03 -0.01,0.01 0,0.02 0,0.01 -0.01,0.02 0,0.02 -0.01,0.01 -0.01,0.02 -0.01,0.02 -0.01,0.03 -0.01,0.02 -0.02,0.02 -0.02,0.03 -0.02,0.03 -0.02,0.03 -0.03,0.03 -0.03,0.04 -0.01,0.02 -0.02,0.02 -0.02,0.02 -0.02,0.02 -0.02,0.02 -0.02,0.03 -0.02,0.02 -0.02,0.02 -0.02,0.03 -0.03,0.02 -0.02,0.03 -0.03,0.03 -0.02,0.03 -0.03,0.03 -0.03,0.03 -0.03,0.03 -0.03,0.03 -0.03,0.03 -0.04,0.04 -0.03,0.03 -0.04,0.04 -0.03,0.03 -0.04,0.04 -0.04,0.04 c -6.23,6.28 -7.82,15.69 -7.82,23.31 0,8.67 1.9,17.34 8.02,23.57 0.65,0.59 0.65,0.69 0.65,0.84 0,0.35 -0.2,0.5 -0.5,0.5 -0.5,0 -4.98,-3.39 -7.92,-9.72 -2.54,-5.47 -3.14,-11 -3.14,-15.19 0,-3.88 0.55,-9.91 3.29,-15.54 2.99,-6.12 7.27,-9.36 7.77,-9.36 0.3,0 0.5,0.15 0.5,0.49 z"
         id="path9712" /><path
         style="fill:#000000;stroke-width:0"
         inkscape:connector-curvature="0"
         d="m 985.49,334.04 0,0.03 0,0.03 -0.01,0.01 0,0.02 0,0.01 -0.01,0.02 0,0.02 -0.01,0.01 -0.01,0.02 -0.01,0.02 -0.01,0.03 -0.01,0.02 -0.02,0.02 -0.02,0.03 -0.02,0.03 -0.02,0.03 -0.03,0.03 -0.03,0.04 -0.01,0.02 -0.02,0.02 -0.02,0.02 -0.02,0.02 -0.02,0.02 -0.02,0.03 -0.02,0.02 -0.02,0.02 -0.02,0.03 -0.03,0.02 -0.02,0.03 -0.03,0.03 -0.02,0.03 -0.03,0.03 -0.03,0.03 -0.03,0.03 -0.03,0.03 -0.03,0.03 -0.04,0.04 -0.03,0.03 -0.04,0.04 -0.03,0.03 -0.04,0.04 -0.04,0.04 c -6.23,6.28 -7.82,15.69 -7.82,23.31 0,8.67 1.9,17.34 8.02,23.57 0.65,0.59 0.65,0.69 0.65,0.84 0,0.35 -0.2,0.5 -0.5,0.5 -0.5,0 -4.98,-3.39 -7.92,-9.72 -2.54,-5.47 -3.14,-11 -3.14,-15.19 0,-3.88 0.55,-9.91 3.29,-15.54 2.99,-6.12 7.27,-9.36 7.77,-9.36 0.3,0 0.5,0.15 0.5,0.49 z"
         id="path9714" /><path
         style="fill:#000000;stroke-width:0"
         inkscape:connector-curvature="0"
         d="m 991.78,371.41 -0.09,-0.05 -0.09,-0.05 -0.1,-0.05 -0.09,-0.05 -0.09,-0.06 -0.04,-0.03 -0.04,-0.03 -0.05,-0.03 -0.04,-0.03 -0.04,-0.03 -0.03,-0.04 -0.04,-0.03 -0.04,-0.04 -0.03,-0.03 -0.03,-0.04 -0.03,-0.04 -0.03,-0.04 -0.02,-0.04 -0.03,-0.05 -0.02,-0.04 -0.02,-0.05 -0.01,-0.04 -0.02,-0.05 -0.01,-0.05 -0.01,-0.05 0,-0.06 0,-0.05 c 0,-0.55 0.5,-1 0.99,-1 0.2,0 0.3,0 0.9,0.35 l 4.98,2.54 0,-24.16 -5.08,0 c -0.75,0 -1.79,0 -1.79,-0.99 0,-1 1.04,-1 1.79,-1 l 18.57,0 c 0.9,0 1.8,0 1.8,1 0,0.99 -0.9,0.99 -1.8,0.99 l -5.1,0 -2,0 -4.4,0 0,25.21 4.4,2.24 0,-27.45 2,0 0,28.3 c 0,0.89 0,1.79 -1,1.79 -0.2,0 -0.3,0 -0.9,-0.35 z"
         id="path9716" /><path
         style="fill:#000000;stroke-width:0"
         inkscape:connector-curvature="0"
         d="m 1047.4,357.46 13.9,0 c 0.7,0 1.6,0 1.6,0.99 0,1 -0.9,1 -1.6,1 l -13.9,0 0,13.95 c 0,0.69 0,1.64 -1,1.64 -1,0 -1,-0.95 -1,-1.64 l 0,-13.95 -14,0 c -0.7,0 -1.6,0 -1.6,-1 0,-0.99 0.9,-0.99 1.6,-0.99 l 14,0 0,-13.95 c 0,-0.7 0,-1.64 1,-1.64 1,0 1,0.94 1,1.64 z"
         id="path9718" /><path
         style="fill:#000000;stroke-width:0"
         inkscape:connector-curvature="0"
         d="m 1080.8,371.41 -0.1,-0.05 -0.1,-0.05 -0.1,-0.05 -0.1,-0.05 -0.1,-0.06 0,-0.03 -0.1,-0.03 0,-0.03 0,-0.03 -0.1,-0.03 0,-0.04 -0.1,-0.03 0,-0.04 0,-0.03 -0.1,-0.04 0,-0.04 0,-0.04 0,-0.04 -0.1,-0.05 0,-0.04 0,-0.05 0,-0.04 0,-0.05 0,-0.05 -0.1,-0.05 0,-0.06 0,-0.05 c 0,-0.55 0.5,-1 1,-1 0.2,0 0.3,0 0.9,0.35 l 5,2.54 0,-24.16 -5.1,0 c -0.7,0 -1.8,0 -1.8,-0.99 0,-1 1.1,-1 1.8,-1 l 18.6,0 c 0.9,0 1.8,0 1.8,1 0,0.99 -0.9,0.99 -1.8,0.99 l -5.1,0 -2,0 -4.4,0 0,25.21 4.4,2.24 0,-27.45 2,0 0,28.3 c 0,0.89 0,1.79 -1,1.79 -0.2,0 -0.3,0 -0.9,-0.35 z"
         id="path9720" /><path
         style="fill:#000000;stroke-width:0"
         inkscape:connector-curvature="0"
         d="m 1118.4,358.45 0,0.37 0,0.39 0,0.39 0,0.41 -0.1,0.84 0,0.88 -0.1,0.92 -0.1,0.94 -0.2,0.98 -0.1,1 -0.2,1.02 -0.2,1.04 -0.3,1.05 -0.3,1.06 -0.4,1.06 -0.4,1.07 -0.2,0.53 -0.2,0.54 -0.2,0.53 -0.3,0.53 c -3,6.12 -7.3,9.36 -7.8,9.36 -0.3,0 -0.5,-0.2 -0.5,-0.5 0,-0.15 0,-0.25 1,-1.15 4.9,-4.92 7.7,-12.85 7.7,-23.26 0,-8.52 -1.8,-17.28 -8,-23.56 -0.7,-0.6 -0.7,-0.69 -0.7,-0.85 0,-0.29 0.2,-0.49 0.5,-0.49 0.5,0 5,3.38 8,9.71 2.5,5.48 3.1,11.01 3.1,15.19 z"
         id="path9722" /><path
         style="fill:#000000;stroke-width:0"
         inkscape:connector-curvature="0"
         d="m 1154.4,359.85 -10,9.91 c -0.6,0.6 -0.7,0.7 -1.1,0.7 -0.5,0 -1,-0.45 -1,-1 0,-0.35 0.1,-0.45 0.7,-1 l 9.9,-10.01 -9.9,-10.01 c -0.6,-0.55 -0.7,-0.65 -0.7,-0.99 0,-0.55 0.5,-1 1,-1 0.4,0 0.5,0.1 1.1,0.69 l 9.9,9.92 10.3,-10.31 c 0.1,-0.05 0.5,-0.3 0.8,-0.3 0.6,0 1,0.45 1,1 0,0.09 0,0.29 -0.2,0.54 0,0.1 -7.9,7.92 -10.4,10.46 l 9.1,9.12 c 0.2,0.3 1,0.95 1.2,1.24 0.1,0.1 0.3,0.3 0.3,0.65 0,0.55 -0.4,1 -1,1 -0.4,0 -0.6,-0.2 -1.2,-0.75 z"
         id="path9724" /><path
         style="fill:#000000;stroke-width:0"
         inkscape:connector-curvature="0"
         d="m 1201.5,334.04 0,0.03 0,0.03 0,0.01 0,0.02 0,0.01 0,0.02 0,0.02 0,0.01 0,0.02 -0.1,0.02 0,0.03 0,0.02 0,0.02 0,0.03 0,0.03 -0.1,0.03 0,0.03 0,0.04 0,0.02 -0.1,0.02 0,0.02 0,0.02 0,0.02 0,0.03 0,0.02 -0.1,0.02 0,0.03 0,0.02 0,0.03 -0.1,0.03 0,0.03 0,0.03 0,0.03 -0.1,0.03 0,0.03 0,0.03 -0.1,0.04 0,0.03 0,0.04 -0.1,0.03 0,0.04 -0.1,0.04 c -6.2,6.28 -7.8,15.69 -7.8,23.31 0,8.67 1.9,17.34 8,23.57 0.7,0.59 0.7,0.69 0.7,0.84 0,0.35 -0.2,0.5 -0.5,0.5 -0.5,0 -5,-3.39 -7.9,-9.72 -2.6,-5.47 -3.2,-11 -3.2,-15.19 0,-3.88 0.6,-9.91 3.3,-15.54 3,-6.12 7.3,-9.36 7.8,-9.36 0.3,0 0.5,0.15 0.5,0.49 z"
         id="path9726" /><path
         style="fill:#000000;stroke-width:0"
         inkscape:connector-curvature="0"
         d="m 1207.8,371.41 -0.1,-0.05 -0.1,-0.05 -0.1,-0.05 -0.1,-0.05 -0.1,-0.06 0,-0.03 -0.1,-0.03 0,-0.03 0,-0.03 -0.1,-0.03 0,-0.04 -0.1,-0.03 0,-0.04 0,-0.03 -0.1,-0.04 0,-0.04 0,-0.04 0,-0.04 -0.1,-0.05 0,-0.04 0,-0.05 0,-0.04 0,-0.05 0,-0.05 -0.1,-0.05 0,-0.06 0,-0.05 c 0,-0.55 0.5,-1 1,-1 0.2,0 0.3,0 0.9,0.35 l 5,2.54 0,-24.16 -5.1,0 c -0.7,0 -1.8,0 -1.8,-0.99 0,-1 1.1,-1 1.8,-1 l 18.6,0 c 0.9,0 1.8,0 1.8,1 0,0.99 -0.9,0.99 -1.8,0.99 l -5.1,0 -2,0 -4.4,0 0,25.21 4.4,2.24 0,-27.45 2,0 0,28.3 c 0,0.89 0,1.79 -1,1.79 -0.2,0 -0.3,0 -0.9,-0.35 z"
         id="path9728" /><path
         style="fill:#000000;stroke-width:0"
         inkscape:connector-curvature="0"
         d="m 1263.4,357.46 13.9,0 c 0.7,0 1.6,0 1.6,0.99 0,1 -0.9,1 -1.6,1 l -13.9,0 0,13.95 c 0,0.69 0,1.64 -1,1.64 -1,0 -1,-0.95 -1,-1.64 l 0,-13.95 -14,0 c -0.7,0 -1.6,0 -1.6,-1 0,-0.99 0.9,-0.99 1.6,-0.99 l 14,0 0,-13.95 c 0,-0.7 0,-1.64 1,-1.64 1,0 1,0.94 1,1.64 z"
         id="path9730" /><path
         style="fill:#000000;stroke-width:0"
         inkscape:connector-curvature="0"
         d="m 1295.8,371.41 -0.1,-0.05 -0.1,-0.05 -0.1,-0.05 -0.1,-0.05 -0.1,-0.06 0,-0.03 -0.1,-0.03 0,-0.03 0,-0.03 -0.1,-0.03 0,-0.04 -0.1,-0.03 0,-0.04 0,-0.03 -0.1,-0.04 0,-0.04 0,-0.04 0,-0.04 -0.1,-0.05 0,-0.04 0,-0.05 0,-0.04 0,-0.05 0,-0.05 -0.1,-0.05 0,-0.06 0,-0.05 c 0,-0.55 0.5,-1 1,-1 0.2,0 0.3,0 0.9,0.35 l 5,2.54 0,-24.16 -5.1,0 c -0.7,0 -1.8,0 -1.8,-0.99 0,-1 1.1,-1 1.8,-1 l 18.6,0 c 0.9,0 1.8,0 1.8,1 0,0.99 -0.9,0.99 -1.8,0.99 l -5.1,0 -2,0 -4.4,0 0,25.21 4.4,2.24 0,-27.45 2,0 0,28.3 c 0,0.89 0,1.79 -1,1.79 -0.2,0 -0.3,0 -0.9,-0.35 z"
         id="path9732" /><path
         style="fill:#000000;stroke-width:0"
         inkscape:connector-curvature="0"
         d="m 1334.4,358.45 0,0.37 0,0.39 0,0.39 0,0.41 -0.1,0.84 0,0.88 -0.1,0.92 -0.1,0.94 -0.2,0.98 -0.1,1 -0.2,1.02 -0.2,1.04 -0.3,1.05 -0.3,1.06 -0.4,1.06 -0.4,1.07 -0.2,0.53 -0.2,0.54 -0.2,0.53 -0.3,0.53 c -3,6.12 -7.3,9.36 -7.8,9.36 -0.3,0 -0.5,-0.2 -0.5,-0.5 0,-0.15 0,-0.25 1,-1.15 4.9,-4.92 7.7,-12.85 7.7,-23.26 0,-8.52 -1.8,-17.28 -8,-23.56 -0.7,-0.6 -0.7,-0.69 -0.7,-0.85 0,-0.29 0.2,-0.49 0.5,-0.49 0.5,0 5,3.38 8,9.71 2.5,5.48 3.1,11.01 3.1,15.19 z"
         id="path9734" /><path
         style="fill:#000000;stroke-width:0"
         inkscape:connector-curvature="0"
         d="m 1350.1,346.05 0,0.31 0,0.29 0,0.29 0,0.28 -0.1,0.27 0,0.26 -0.1,0.26 0,0.24 -0.1,0.24 0,0.23 -0.1,0.22 -0.1,0.21 -0.1,0.2 -0.1,0.19 -0.1,0.18 -0.1,0.18 -0.1,0.16 -0.1,0.15 -0.1,0.15 -0.1,0.13 -0.1,0.13 -0.2,0.11 -0.1,0.1 -0.2,0.1 -0.1,0.08 -0.2,0.07 -0.1,0.06 -0.2,0.05 -0.1,0.04 -0.2,0.03 -0.2,0.02 -0.2,0 c -1.6,0 -2.6,-1.24 -2.6,-2.64 0,-1.34 1,-2.64 2.6,-2.64 0.6,0 1.3,0.2 1.8,0.65 0.1,0.1 0.2,0.15 0.2,0.15 0.1,0 0.1,-0.05 0.1,-0.75 0,-3.69 -1.7,-6.67 -3.4,-8.32 -0.5,-0.55 -0.5,-0.65 -0.5,-0.8 0,-0.34 0.2,-0.54 0.5,-0.54 0.5,0 4.5,3.83 4.5,9.66 z"
         id="path9736" /><path
         style="fill:#000000;stroke-width:0"
         inkscape:connector-curvature="0"
         d="m 1376.6,354.22 0,-4.33 c 0,-1.8 0,-2.35 -3.7,-2.35 l -1.1,0 0,-1.54 13.5,0 0,1.54 -1,0 c -3.7,0 -3.8,0.55 -3.8,2.35 l 0,4.33 5,0 0,1.54 -5,0 0,22.67 c 0,1 0,1.29 -0.8,1.29 -0.5,0 -0.6,0 -1,-0.6 l -15.3,-23.36 1.4,0 12.1,18.58 0,-18.58 -12.1,0 -1.4,0 0,-1.54 z"
         id="path9738" /><path
         style="fill:#000000;stroke-width:0"
         inkscape:connector-curvature="0"
         d="m 1397.1,346.05 0,0.31 0,0.29 0,0.29 0,0.28 -0.1,0.27 0,0.26 -0.1,0.26 0,0.24 -0.1,0.24 0,0.23 -0.1,0.22 -0.1,0.21 -0.1,0.2 -0.1,0.19 -0.1,0.18 -0.1,0.18 -0.1,0.16 -0.1,0.15 -0.1,0.15 -0.1,0.13 -0.1,0.13 -0.2,0.11 -0.1,0.1 -0.2,0.1 -0.1,0.08 -0.2,0.07 -0.1,0.06 -0.2,0.05 -0.1,0.04 -0.2,0.03 -0.2,0.02 -0.2,0 c -1.6,0 -2.6,-1.24 -2.6,-2.64 0,-1.34 1,-2.64 2.6,-2.64 0.6,0 1.3,0.2 1.8,0.65 0.1,0.1 0.2,0.15 0.2,0.15 0.1,0 0.1,-0.05 0.1,-0.75 0,-3.69 -1.7,-6.67 -3.4,-8.32 -0.5,-0.55 -0.5,-0.65 -0.5,-0.8 0,-0.34 0.2,-0.54 0.5,-0.54 0.5,0 4.5,3.83 4.5,9.66 z"
         id="path9740" /><path
         style="fill:#000000;stroke-width:0"
         inkscape:connector-curvature="0"
         d="m 1416.9,381.57 0,0.16 0,0.17 0,0.17 0,0.08 0,0.08 0,0.07 0,0.08 0,0.08 0,0.07 0,0.07 -0.1,0.07 0,0.07 0,0.06 0,0.06 -0.1,0.06 0,0.06 0,0.05 -0.1,0.05 0,0.04 0,0.05 -0.1,0.04 -0.1,0.03 0,0.02 0,0.01 0,0.01 -0.1,0.02 0,0.01 0,0.01 -0.1,0.01 0,0.01 -0.1,0 0,0.01 0,0 -0.1,0.01 0,0 -0.1,0 c -1,0 -1,-0.9 -1,-1.79 l 0,-46.23 c 0,-0.89 0,-1.79 1,-1.79 1,0 1,0.9 1,1.79 z"
         id="path9742" /><path
         style="fill:#000000;stroke-width:0"
         inkscape:connector-curvature="0"
         d="m 1438.2,339.92 0,-0.15 0,-0.15 -0.1,-0.14 0,-0.13 0,-0.13 -0.1,-0.11 0,-0.12 0,-0.1 -0.1,-0.1 0,-0.09 -0.1,-0.09 0,-0.08 -0.1,-0.07 0,-0.07 -0.1,-0.07 0,-0.05 -0.1,-0.06 -0.1,-0.05 -0.1,-0.04 0,-0.04 -0.1,-0.04 -0.1,-0.03 -0.1,-0.03 -0.2,-0.02 -0.1,-0.02 -0.1,-0.02 -0.1,0 -0.1,-0.01 0,-0.01 -0.1,0 -0.1,-0.01 -0.1,0 -0.1,0 -0.1,-0.01 -0.1,0 -0.1,0 0,0 -0.1,0 c -0.7,0 -1.2,0 -1.2,-0.95 0,-0.39 0.3,-0.59 0.7,-0.59 l 9.1,0 c 0.2,0 0.9,0 0.9,0.99 0,0.55 -0.5,0.55 -1.2,0.55 -2.5,0 -2.5,0.35 -2.5,0.8 0,0.59 2.1,8.71 2.4,9.96 0.7,-1.44 2.1,-3.19 4.6,-3.19 l 0,1.1 c -3.3,0 -4,4.13 -4,4.43 0,0.1 0,0.2 0.2,0.8 l 2.4,9.76 c 0.4,1.35 1.7,2.74 2.6,3.49 1.7,1.54 3.2,1.89 4,1.89 2,0 3.2,-1.74 3.2,-4.68 0,-2.94 -1.6,-8.67 -2.5,-10.56 -1.7,-3.49 -4.1,-5.13 -5.9,-5.13 l 0,-1.1 c 5.8,0 12,7.28 12,14.6 0,4.68 -2.8,7.97 -6.6,7.97 -2.5,0 -4.9,-1.8 -6.5,-3.74 -0.5,2.69 -2.7,3.74 -4.5,3.74 -2.3,0 -3.3,-1.95 -3.7,-2.84 -0.9,-1.7 -1.6,-4.68 -1.6,-4.83 0,-0.5 0.5,-0.5 0.6,-0.5 0.5,0 0.6,0.05 0.9,1.14 0.8,3.54 1.8,5.93 3.6,5.93 0.9,0 1.6,-0.4 1.6,-2.29 0,-1.15 -0.2,-1.69 -0.4,-2.54 z"
         id="path9744" /><path
         style="fill:#000000;stroke-width:0"
         inkscape:connector-curvature="0"
         d="m 1470.5,350.64 0.3,0 0.2,-0.02 0.3,-0.02 0.2,-0.04 0.2,-0.05 0.3,-0.06 0.2,-0.07 0.2,-0.09 0.2,-0.09 0.2,-0.11 0.2,-0.11 0.2,-0.13 0.2,-0.13 0.1,-0.15 0.2,-0.16 0.2,-0.17 0.1,-0.18 0.2,-0.2 0.1,-0.2 0.1,-0.21 0.1,-0.23 0.2,-0.23 0.1,-0.25 0,-0.26 0.1,-0.27 0.1,-0.28 0.1,-0.29 0,-0.3 0,-0.31 0.1,-0.32 0,-0.33 0,-0.35 c 0,-4.32 -2.5,-5.61 -4.5,-5.61 -1.4,0 -4.5,0.38 -6,2.44 1.7,0.07 2.1,1.22 2.1,1.95 0,1.12 -0.9,1.92 -2,1.92 -0.9,0 -1.9,-0.59 -1.9,-2.02 0,-3.28 3.6,-5.41 7.8,-5.41 4.9,0 8.2,3.25 8.2,6.73 0,2.72 -2.2,5.44 -6,6.24 3.6,1.33 4.9,3.94 4.9,6.07 0,2.76 -3.1,4.81 -7,4.81 -3.9,0 -6.8,-1.88 -6.8,-4.67 0,-1.18 0.7,-1.85 1.8,-1.85 1.1,0 1.8,0.8 1.8,1.78 0,1.01 -0.7,1.75 -1.8,1.81 1.2,1.54 3.6,1.92 4.9,1.92 1.6,0 3.8,-0.76 3.8,-3.8 0,-1.46 -0.5,-3.07 -1.4,-4.15 -1.2,-1.32 -2.2,-1.39 -3.9,-1.5 -0.9,-0.07 -1,-0.07 -1.1,-0.1 -0.1,0 -0.4,-0.07 -0.4,-0.46 0,-0.49 0.3,-0.49 0.9,-0.49 z"
         id="path9746" /><path
         style="fill:#000000;stroke-width:0"
         inkscape:connector-curvature="0"
         d="m 1505.9,381.57 0,0.16 0,0.17 0,0.17 0,0.08 0,0.08 0,0.07 0,0.08 0,0.08 0,0.07 0,0.07 -0.1,0.07 0,0.07 0,0.06 0,0.06 -0.1,0.06 0,0.06 0,0.05 -0.1,0.05 0,0.04 0,0.05 -0.1,0.04 -0.1,0.03 0,0.02 0,0.01 0,0.01 -0.1,0.02 0,0.01 0,0.01 -0.1,0.01 0,0.01 -0.1,0 0,0.01 0,0 -0.1,0.01 0,0 -0.1,0 c -1,0 -1,-0.9 -1,-1.79 l 0,-46.23 c 0,-0.89 0,-1.79 1,-1.79 1,0 1,0.9 1,1.79 z"
         id="path9748" /><path
         style="fill:#000000;stroke-width:0"
         inkscape:connector-curvature="0"
         d="m 1526.4,358.45 0,0.37 0,0.39 0,0.39 0,0.41 -0.1,0.84 0,0.88 -0.1,0.92 -0.1,0.94 -0.2,0.98 -0.1,1 -0.2,1.02 -0.2,1.04 -0.3,1.05 -0.3,1.06 -0.4,1.06 -0.4,1.07 -0.2,0.53 -0.2,0.54 -0.2,0.53 -0.3,0.53 c -3,6.12 -7.3,9.36 -7.8,9.36 -0.3,0 -0.5,-0.2 -0.5,-0.5 0,-0.15 0,-0.25 1,-1.15 4.9,-4.92 7.7,-12.85 7.7,-23.26 0,-8.52 -1.8,-17.28 -8,-23.56 -0.7,-0.6 -0.7,-0.69 -0.7,-0.85 0,-0.29 0.2,-0.49 0.5,-0.49 0.5,0 5,3.38 8,9.71 2.5,5.48 3.1,11.01 3.1,15.19 z"
         id="path9750" /></g>  </g>
</svg>
