<?xml version="1.0" encoding="UTF-8" standalone="no"?>
<!-- Created with Inkscape (http://www.inkscape.org/) -->

<svg
   xmlns:dc="http://purl.org/dc/elements/1.1/"
   xmlns:cc="http://creativecommons.org/ns#"
   xmlns:rdf="http://www.w3.org/1999/02/22-rdf-syntax-ns#"
   xmlns:svg="http://www.w3.org/2000/svg"
   xmlns="http://www.w3.org/2000/svg"
   xmlns:sodipodi="http://sodipodi.sourceforge.net/DTD/sodipodi-0.dtd"
   xmlns:inkscape="http://www.inkscape.org/namespaces/inkscape"
   sodipodi:docname="coherence0inverse.svg"
   inkscape:version="0.91 r13725"
   version="1.1"
   id="svg6061"
   viewBox="0 0 1350 764.99999"
   height="8.5in"
   width="15in"
   inkscape:export-filename="/home/siva/Projects/reu/HoTT/paper/pictures/translation0.png"
   inkscape:export-xdpi="90"
   inkscape:export-ydpi="90">
  <sodipodi:namedview
     inkscape:window-maximized="1"
     inkscape:window-y="27"
     inkscape:window-x="0"
     inkscape:window-height="1016"
     inkscape:window-width="1920"
     units="in"
     showgrid="false"
     inkscape:current-layer="layer1"
     inkscape:document-units="px"
     inkscape:cy="409.86622"
     inkscape:cx="632.558"
     inkscape:zoom="0.98994949"
     inkscape:pageshadow="2"
     inkscape:pageopacity="0.0"
     borderopacity="1.0"
     bordercolor="#666666"
     pagecolor="#ffffff"
     id="base" />
  <defs
     id="defs6063">
    <marker
       inkscape:isstock="true"
       style="overflow:visible"
       id="marker6875"
       refX="0"
       refY="0"
       orient="auto"
       inkscape:stockid="TriangleInL">
      <path
         inkscape:connector-curvature="0"
         transform="scale(-0.8,-0.8)"
         style="fill:#ba0000;fill-opacity:1;fill-rule:evenodd;stroke:#ba0000;stroke-width:1pt;stroke-opacity:1"
         d="m 5.77,0 -8.65,5 0,-10 8.65,5 z"
         id="path6877" />
    </marker>
    <marker
       inkscape:isstock="true"
       style="overflow:visible"
       id="marker6821"
       refX="0"
       refY="0"
       orient="auto"
       inkscape:stockid="Arrow2Lend">
      <path
         inkscape:connector-curvature="0"
         transform="matrix(-1.1,0,0,-1.1,-1.1,0)"
         d="M 8.7185878,4.0337352 -2.2072895,0.01601326 8.7185884,-4.0017078 c -1.7454984,2.3720609 -1.7354408,5.6174519 -6e-7,8.035443 z"
         style="fill:#00be00;fill-opacity:1;fill-rule:evenodd;stroke:#00be00;stroke-width:0.625;stroke-linejoin:round;stroke-opacity:1"
         id="path6823" />
    </marker>
    <marker
       inkscape:collect="always"
       inkscape:stockid="TriangleInL"
       orient="auto"
       refY="0"
       refX="0"
       id="marker6637"
       style="overflow:visible"
       inkscape:isstock="true">
      <path
         id="path6469"
         d="m 5.77,0 -8.65,5 0,-10 8.65,5 z"
         style="fill:#0000b1;fill-opacity:1;fill-rule:evenodd;stroke:#0000b1;stroke-width:1pt;stroke-opacity:1"
         transform="scale(-0.8,-0.8)"
         inkscape:connector-curvature="0" />
    </marker>
    <marker
       inkscape:stockid="Arrow1Lend"
       orient="auto"
       refY="0"
       refX="0"
       id="marker6634"
       style="overflow:visible"
       inkscape:isstock="true">
      <path
         id="path6339"
         d="M 0,0 5,-5 -12.5,0 5,5 0,0 Z"
         style="fill:#000000;fill-opacity:1;fill-rule:evenodd;stroke:#000000;stroke-width:1pt;stroke-opacity:1"
         transform="matrix(-0.8,0,0,-0.8,-10,0)"
         inkscape:connector-curvature="0" />
    </marker>
    <marker
       inkscape:stockid="Arrow2Lend"
       orient="auto"
       refY="0"
       refX="0"
       id="marker6612"
       style="overflow:visible"
       inkscape:isstock="true">
      <path
         id="path6614"
         style="fill:#0000bc;fill-opacity:1;fill-rule:evenodd;stroke:#0000bc;stroke-width:0.625;stroke-linejoin:round;stroke-opacity:1"
         d="M 8.7185878,4.0337352 -2.2072895,0.01601326 8.7185884,-4.0017078 c -1.7454984,2.3720609 -1.7354408,5.6174519 -6e-7,8.035443 z"
         transform="matrix(-1.1,0,0,-1.1,-1.1,0)"
         inkscape:connector-curvature="0" />
    </marker>
    <marker
       inkscape:stockid="Arrow2Lend"
       orient="auto"
       refY="0"
       refX="0"
       id="marker6606"
       style="overflow:visible"
       inkscape:isstock="true"
       inkscape:collect="always">
      <path
         id="path6608"
         style="fill:#0000b1;fill-opacity:1;fill-rule:evenodd;stroke:#0000b1;stroke-width:0.625;stroke-linejoin:round;stroke-opacity:1"
         d="M 8.7185878,4.0337352 -2.2072895,0.01601326 8.7185884,-4.0017078 c -1.7454984,2.3720609 -1.7354408,5.6174519 -6e-7,8.035443 z"
         transform="matrix(-1.1,0,0,-1.1,-1.1,0)"
         inkscape:connector-curvature="0" />
    </marker>
    <marker
       inkscape:stockid="Arrow2Lend"
       orient="auto"
       refY="0"
       refX="0"
       id="marker6600"
       style="overflow:visible"
       inkscape:isstock="true">
      <path
         id="path6602"
         style="fill:#0000b4;fill-opacity:1;fill-rule:evenodd;stroke:#0000b4;stroke-width:0.625;stroke-linejoin:round;stroke-opacity:1"
         d="M 8.7185878,4.0337352 -2.2072895,0.01601326 8.7185884,-4.0017078 c -1.7454984,2.3720609 -1.7354408,5.6174519 -6e-7,8.035443 z"
         transform="matrix(-1.1,0,0,-1.1,-1.1,0)"
         inkscape:connector-curvature="0" />
    </marker>
    <marker
       inkscape:stockid="Arrow2Lend"
       orient="auto"
       refY="0"
       refX="0"
       id="marker6595"
       style="overflow:visible"
       inkscape:isstock="true">
      <path
         id="path6357"
         style="fill:#0000b1;fill-opacity:1;fill-rule:evenodd;stroke:#0000b1;stroke-width:0.625;stroke-linejoin:round;stroke-opacity:1"
         d="M 8.7185878,4.0337352 -2.2072895,0.01601326 8.7185884,-4.0017078 c -1.7454984,2.3720609 -1.7354408,5.6174519 -6e-7,8.035443 z"
         transform="matrix(-1.1,0,0,-1.1,-1.1,0)"
         inkscape:connector-curvature="0" />
    </marker>
    <marker
       inkscape:isstock="true"
       style="overflow:visible"
       id="marker12376"
       refX="0"
       refY="0"
       orient="auto"
       inkscape:stockid="TriangleInL">
      <path
         transform="scale(-0.8,-0.8)"
         style="fill:#0000b5;fill-opacity:1;fill-rule:evenodd;stroke:#0000b5;stroke-width:1pt;stroke-opacity:1"
         d="m 5.77,0 -8.65,5 0,-10 8.65,5 z"
         id="path12378"
         inkscape:connector-curvature="0" />
    </marker>
    <marker
       inkscape:isstock="true"
       style="overflow:visible"
       id="marker12280"
       refX="0"
       refY="0"
       orient="auto"
       inkscape:stockid="TriangleInL">
      <path
         transform="scale(-0.8,-0.8)"
         style="fill:#0000b9;fill-opacity:1;fill-rule:evenodd;stroke:#0000b9;stroke-width:1pt;stroke-opacity:1"
         d="m 5.77,0 -8.65,5 0,-10 8.65,5 z"
         id="path12282"
         inkscape:connector-curvature="0" />
    </marker>
    <marker
       inkscape:stockid="Arrow1Mstart"
       orient="auto"
       refY="0"
       refX="0"
       id="Arrow1Mstart"
       style="overflow:visible"
       inkscape:isstock="true">
      <path
         id="path11276"
         d="M 0,0 5,-5 -12.5,0 5,5 0,0 Z"
         style="fill:#0000d9;fill-opacity:1;fill-rule:evenodd;stroke:#0000d9;stroke-width:1pt;stroke-opacity:1"
         transform="matrix(0.4,0,0,0.4,4,0)"
         inkscape:connector-curvature="0" />
    </marker>
    <marker
       inkscape:stockid="TriangleInL"
       orient="auto"
       refY="0"
       refX="0"
       id="marker12174"
       style="overflow:visible"
       inkscape:isstock="true">
      <path
         id="path12176"
         d="m 5.77,0 -8.65,5 0,-10 8.65,5 z"
         style="fill:#0000d9;fill-opacity:1;fill-rule:evenodd;stroke:#0000d9;stroke-width:1pt;stroke-opacity:1"
         transform="scale(-0.8,-0.8)"
         inkscape:connector-curvature="0" />
    </marker>
    <marker
       inkscape:stockid="TriangleOutM"
       orient="auto"
       refY="0"
       refX="0"
       id="TriangleOutM"
       style="overflow:visible"
       inkscape:isstock="true">
      <path
         id="path11415"
         d="m 5.77,0 -8.65,5 0,-10 8.65,5 z"
         style="fill:#0000d9;fill-opacity:1;fill-rule:evenodd;stroke:#0000d9;stroke-width:1pt;stroke-opacity:1"
         transform="scale(0.4,0.4)"
         inkscape:connector-curvature="0" />
    </marker>
    <marker
       inkscape:stockid="Arrow1Lstart"
       orient="auto"
       refY="0"
       refX="0"
       id="Arrow1Lstart"
       style="overflow:visible"
       inkscape:isstock="true">
      <path
         id="path11270"
         d="M 0,0 5,-5 -12.5,0 5,5 0,0 Z"
         style="fill:#0000d9;fill-opacity:1;fill-rule:evenodd;stroke:#0000d9;stroke-width:1pt;stroke-opacity:1"
         transform="matrix(0.8,0,0,0.8,10,0)"
         inkscape:connector-curvature="0" />
    </marker>
    <marker
       inkscape:stockid="TriangleInL"
       orient="auto"
       refY="0"
       refX="0"
       id="TriangleInL"
       style="overflow:visible"
       inkscape:isstock="true">
      <path
         id="path11403"
         d="m 5.77,0 -8.65,5 0,-10 8.65,5 z"
         style="fill:#0000d9;fill-opacity:1;fill-rule:evenodd;stroke:#0000d9;stroke-width:1pt;stroke-opacity:1"
         transform="scale(-0.8,-0.8)"
         inkscape:connector-curvature="0" />
    </marker>
    <marker
       inkscape:stockid="Arrow2Lend"
       orient="auto"
       refY="0"
       refX="0"
       id="Arrow2Lend"
       style="overflow:visible"
       inkscape:isstock="true">
      <path
         id="path11291"
         style="fill:#000000;fill-opacity:1;fill-rule:evenodd;stroke:#000000;stroke-width:0.625;stroke-linejoin:round;stroke-opacity:1"
         d="M 8.7185878,4.0337352 -2.2072895,0.01601326 8.7185884,-4.0017078 c -1.7454984,2.3720609 -1.7354408,5.6174519 -6e-7,8.035443 z"
         transform="matrix(-1.1,0,0,-1.1,-1.1,0)"
         inkscape:connector-curvature="0" />
    </marker>
    <marker
       inkscape:stockid="Arrow1Lend"
       orient="auto"
       refY="0"
       refX="0"
       id="Arrow1Lend"
       style="overflow:visible"
       inkscape:isstock="true">
      <path
         id="path11273"
         d="M 0,0 5,-5 -12.5,0 5,5 0,0 Z"
         style="fill:#000000;fill-opacity:1;fill-rule:evenodd;stroke:#000000;stroke-width:1pt;stroke-opacity:1"
         transform="matrix(-0.8,0,0,-0.8,-10,0)"
         inkscape:connector-curvature="0" />
    </marker>
    <marker
       inkscape:isstock="true"
       style="overflow:visible"
       id="marker6821-3"
       refX="0"
       refY="0"
       orient="auto"
       inkscape:stockid="Arrow2Lend">
      <path
         inkscape:connector-curvature="0"
         transform="matrix(-1.1,0,0,-1.1,-1.1,0)"
         d="M 8.7185878,4.0337352 -2.2072895,0.01601326 8.7185884,-4.0017078 c -1.7454984,2.3720609 -1.7354408,5.6174519 -6e-7,8.035443 z"
         style="fill:#00be00;fill-opacity:1;fill-rule:evenodd;stroke:#00be00;stroke-width:0.625;stroke-linejoin:round;stroke-opacity:1"
         id="path6823-6" />
    </marker>
  </defs>
  <metadata
     id="metadata6066">
    <rdf:RDF>
      <cc:Work
         rdf:about="">
        <dc:format>image/svg+xml</dc:format>
        <dc:type
           rdf:resource="http://purl.org/dc/dcmitype/StillImage" />
        <dc:title></dc:title>
      </cc:Work>
    </rdf:RDF>
  </metadata>
  <g
     transform="translate(0,-287.36221)"
     id="layer1"
     inkscape:groupmode="layer"
     inkscape:label="Layer 1">
    <ellipse
       ry="262.71283"
       rx="206.7919"
       cy="739.0119"
       cx="743.35602"
       id="path6609"
       style="fill:#ffffff;fill-opacity:1;stroke:#000000;stroke-width:4.22911263;stroke-miterlimit:4;stroke-dasharray:none;stroke-opacity:1" />
    <ellipse
       ry="262.71283"
       rx="206.7919"
       cy="731.7254"
       cx="245.53885"
       id="path6609-6"
       style="fill:#ffffff;fill-opacity:1;stroke:#000000;stroke-width:4.22911263;stroke-miterlimit:4;stroke-dasharray:none;stroke-opacity:1" />
    <g
       id="g7790"
       transform="translate(-417.84843,82.832509)">
      <g
         word-spacing="normal"
         letter-spacing="normal"
         font-size-adjust="none"
         font-stretch="normal"
         font-weight="normal"
         font-variant="normal"
         font-style="normal"
         stroke-miterlimit="10.433"
         xml:space="preserve"
         transform="matrix(1.0928571,0,0,-1.0928571,-191.25,742.5)"
         id="content"
         style="font-style:normal;font-variant:normal;font-weight:normal;font-stretch:normal;letter-spacing:normal;word-spacing:normal;text-anchor:start;fill:none;fill-opacity:1;fill-rule:evenodd;stroke:#000000;stroke-linecap:butt;stroke-linejoin:miter;stroke-miterlimit:10.43299961;stroke-dasharray:none;stroke-dashoffset:0;stroke-opacity:1"><path
           id="path7793"
           d="m 1248.5,372.75 1.5,0 c 0.2,2.69 0.5,4.58 1.2,6.72 -2.2,1.2 -4.2,1.7 -6.6,1.7 -3.6,0 -7.4,-1.55 -10,-4.24 -2.2,-2.04 -3.2,-4.58 -3.2,-7.47 0,-4.23 1.9,-6.57 6.1,-7.57 l 4.7,-1.14 c 2.7,-0.65 4,-2.39 4,-5.23 0,-4.74 -3.5,-8.02 -8.6,-8.02 -2.7,0 -4.6,0.59 -6.8,2.14 l 0,4.93 -1.5,0 c -0.3,-2.74 -0.7,-4.98 -1.2,-7.57 2.4,-1.25 5.1,-1.9 7.7,-1.9 7.7,0 14.4,5.83 14.4,12.56 0,3.93 -2.2,6.02 -7.2,7.12 l -3.2,0.7 c -3.3,0.7 -4.8,2.54 -4.8,5.82 0,4.34 3.3,7.48 7.9,7.48 2.4,0 4.1,-0.65 5.6,-2.24 z"
           inkscape:connector-curvature="0"
           style="fill:#000000;stroke-width:0" /></g>    </g>
    <g
       transform="translate(-915.35534,76.036282)"
       id="g7907">
      <g
         style="font-style:normal;font-variant:normal;font-weight:normal;font-stretch:normal;letter-spacing:normal;word-spacing:normal;text-anchor:start;fill:none;fill-opacity:1;fill-rule:evenodd;stroke:#000000;stroke-linecap:butt;stroke-linejoin:miter;stroke-miterlimit:10.43299961;stroke-dasharray:none;stroke-dashoffset:0;stroke-opacity:1"
         id="g7909"
         transform="matrix(1.0928571,0,0,-1.0928571,-191.25,742.5)"
         xml:space="preserve"
         stroke-miterlimit="10.433"
         font-style="normal"
         font-variant="normal"
         font-weight="normal"
         font-stretch="normal"
         font-size-adjust="none"
         letter-spacing="normal"
         word-spacing="normal"><path
           style="fill:#000000;stroke-width:0"
           inkscape:connector-curvature="0"
           d="m 1264.7,379.07 0.1,1.4 -8.3,0 -0.8,-1.54 c -1.3,-2.54 -2.3,-4.24 -3.4,-6.23 l -12.3,-21.02 -7.4,28.79 -8.4,0 -0.1,-1.4 1.3,-0.09 c 2.6,-0.2 3.5,-0.7 3.5,-2 0,-0.3 -0.1,-0.64 -0.2,-0.99 l -7.2,-25.36 c -0.8,-2.59 -1.6,-3.24 -4.3,-3.49 l -0.1,-1.29 11,0 0.2,1.4 -1.9,0.14 c -1.6,0.11 -2.5,0.6 -2.5,1.35 0,0.5 0.1,1.15 0.4,2.04 l 6.1,23.11 7.5,-28.79 1.1,0 2.9,5.19 c 3.9,7.02 8.5,15.09 11.9,20.62 l 2.6,4.33 -1.9,-25.9 c -0.2,-1.4 -0.8,-1.75 -3.3,-1.95 l -1.6,-0.14 -0.1,-1.4 13.3,0 0.1,1.4 -1.8,0.14 c -1.8,0.15 -2.7,0.7 -2.7,1.75 l 0,1.84 2.1,26.45 c 0.1,0.95 0.8,1.45 2.3,1.55 z"
           id="path7911" /></g>    </g>
    <g
       id="g6111"
       transform="matrix(0.76361677,0,0,0.75881404,-143.49836,420.98618)">
      <g
         word-spacing="normal"
         letter-spacing="normal"
         font-size-adjust="none"
         font-stretch="normal"
         font-weight="normal"
         font-variant="normal"
         font-style="normal"
         stroke-miterlimit="10.433"
         xml:space="preserve"
         transform="matrix(1.0928571,0,0,-1.0928571,-191.25,742.5)"
         id="g6113"
         style="font-style:normal;font-variant:normal;font-weight:normal;font-stretch:normal;letter-spacing:normal;word-spacing:normal;text-anchor:start;fill:none;fill-opacity:1;fill-rule:evenodd;stroke:#000000;stroke-linecap:butt;stroke-linejoin:miter;stroke-miterlimit:10.43299961;stroke-dasharray:none;stroke-dashoffset:0;stroke-opacity:1"><path
           id="path6115"
           d="m 1052.8,371.41 -0.1,-0.05 -0.1,-0.05 -0.1,-0.05 -0.1,-0.05 -0.1,-0.06 0,-0.03 -0.1,-0.03 0,-0.03 0,-0.03 -0.1,-0.03 0,-0.04 -0.1,-0.03 0,-0.04 0,-0.03 -0.1,-0.04 0,-0.04 0,-0.04 0,-0.04 -0.1,-0.05 0,-0.04 0,-0.05 0,-0.04 0,-0.05 0,-0.05 -0.1,-0.05 0,-0.06 0,-0.05 c 0,-0.55 0.5,-1 1,-1 0.2,0 0.3,0 0.9,0.35 l 5,2.54 0,-24.16 -5.1,0 c -0.7,0 -1.8,0 -1.8,-0.99 0,-1 1.1,-1 1.8,-1 l 18.6,0 c 0.9,0 1.8,0 1.8,1 0,0.99 -0.9,0.99 -1.8,0.99 l -5.1,0 -2,0 -4.4,0 0,25.21 4.4,2.24 0,-27.45 2,0 0,28.3 c 0,0.89 0,1.79 -1,1.79 -0.2,0 -0.3,0 -0.9,-0.35 z"
           inkscape:connector-curvature="0"
           style="fill:#000000;stroke-width:0" /><path
           id="path6117"
           d="m 1108.4,357.46 13.9,0 c 0.7,0 1.6,0 1.6,0.99 0,1 -0.9,1 -1.6,1 l -13.9,0 0,13.95 c 0,0.69 0,1.64 -1,1.64 -1,0 -1,-0.95 -1,-1.64 l 0,-13.95 -14,0 c -0.7,0 -1.6,0 -1.6,-1 0,-0.99 0.9,-0.99 1.6,-0.99 l 14,0 0,-13.95 c 0,-0.7 0,-1.64 1,-1.64 1,0 1,0.94 1,1.64 z"
           inkscape:connector-curvature="0"
           style="fill:#000000;stroke-width:0" /><path
           id="path6119"
           d="m 1141.8,371.41 -0.1,-0.05 -0.1,-0.05 -0.1,-0.05 -0.1,-0.05 -0.1,-0.06 0,-0.03 -0.1,-0.03 0,-0.03 0,-0.03 -0.1,-0.03 0,-0.04 -0.1,-0.03 0,-0.04 0,-0.03 -0.1,-0.04 0,-0.04 0,-0.04 0,-0.04 -0.1,-0.05 0,-0.04 0,-0.05 0,-0.04 0,-0.05 0,-0.05 -0.1,-0.05 0,-0.06 0,-0.05 c 0,-0.55 0.5,-1 1,-1 0.2,0 0.3,0 0.9,0.35 l 5,2.54 0,-24.16 -5.1,0 c -0.7,0 -1.8,0 -1.8,-0.99 0,-1 1.1,-1 1.8,-1 l 18.6,0 c 0.9,0 1.8,0 1.8,1 0,0.99 -0.9,0.99 -1.8,0.99 l -5.1,0 -2,0 -4.4,0 0,25.21 4.4,2.24 0,-27.45 2,0 0,28.3 c 0,0.89 0,1.79 -1,1.79 -0.2,0 -0.3,0 -0.9,-0.35 z"
           inkscape:connector-curvature="0"
           style="fill:#000000;stroke-width:0" /><path
           id="path6121"
           d="m 1196.4,357.46 13.9,0 c 0.7,0 1.6,0 1.6,0.99 0,1 -0.9,1 -1.6,1 l -13.9,0 0,13.95 c 0,0.69 0,1.64 -1,1.64 -1,0 -1,-0.95 -1,-1.64 l 0,-13.95 -14,0 c -0.7,0 -1.6,0 -1.6,-1 0,-0.99 0.9,-0.99 1.6,-0.99 l 14,0 0,-13.95 c 0,-0.7 0,-1.64 1,-1.64 1,0 1,0.94 1,1.64 z"
           inkscape:connector-curvature="0"
           style="fill:#000000;stroke-width:0" /><path
           id="path6123"
           d="m 1229.8,371.41 -0.1,-0.05 -0.1,-0.05 -0.1,-0.05 -0.1,-0.05 -0.1,-0.06 0,-0.03 -0.1,-0.03 0,-0.03 0,-0.03 -0.1,-0.03 0,-0.04 -0.1,-0.03 0,-0.04 0,-0.03 -0.1,-0.04 0,-0.04 0,-0.04 0,-0.04 -0.1,-0.05 0,-0.04 0,-0.05 0,-0.04 0,-0.05 0,-0.05 -0.1,-0.05 0,-0.06 0,-0.05 c 0,-0.55 0.5,-1 1,-1 0.2,0 0.3,0 0.9,0.35 l 5,2.54 0,-24.16 -5.1,0 c -0.7,0 -1.8,0 -1.8,-0.99 0,-1 1.1,-1 1.8,-1 l 18.6,0 c 0.9,0 1.8,0 1.8,1 0,0.99 -0.9,0.99 -1.8,0.99 l -5.1,0 -2,0 -4.4,0 0,25.21 4.4,2.24 0,-27.45 2,0 0,28.3 c 0,0.89 0,1.79 -1,1.79 -0.2,0 -0.3,0 -0.9,-0.35 z"
           inkscape:connector-curvature="0"
           style="fill:#000000;stroke-width:0" /><path
           id="path6125"
           d="m 1285.4,357.46 13.9,0 c 0.7,0 1.6,0 1.6,0.99 0,1 -0.9,1 -1.6,1 l -13.9,0 0,13.95 c 0,0.69 0,1.64 -1,1.64 -1,0 -1,-0.95 -1,-1.64 l 0,-13.95 -14,0 c -0.7,0 -1.6,0 -1.6,-1 0,-0.99 0.9,-0.99 1.6,-0.99 l 14,0 0,-13.95 c 0,-0.7 0,-1.64 1,-1.64 1,0 1,0.94 1,1.64 z"
           inkscape:connector-curvature="0"
           style="fill:#000000;stroke-width:0" /><path
           id="path6127"
           d="m 1318.8,371.41 -0.1,-0.05 -0.1,-0.05 -0.1,-0.05 -0.1,-0.05 -0.1,-0.06 0,-0.03 -0.1,-0.03 0,-0.03 0,-0.03 -0.1,-0.03 0,-0.04 -0.1,-0.03 0,-0.04 0,-0.03 -0.1,-0.04 0,-0.04 0,-0.04 0,-0.04 -0.1,-0.05 0,-0.04 0,-0.05 0,-0.04 0,-0.05 0,-0.05 -0.1,-0.05 0,-0.06 0,-0.05 c 0,-0.55 0.5,-1 1,-1 0.2,0 0.3,0 0.9,0.35 l 5,2.54 0,-24.16 -5.1,0 c -0.7,0 -1.8,0 -1.8,-0.99 0,-1 1.1,-1 1.8,-1 l 18.6,0 c 0.9,0 1.8,0 1.8,1 0,0.99 -0.9,0.99 -1.8,0.99 l -5.1,0 -2,0 -4.4,0 0,25.21 4.4,2.24 0,-27.45 2,0 0,28.3 c 0,0.89 0,1.79 -1,1.79 -0.2,0 -0.3,0 -0.9,-0.35 z"
           inkscape:connector-curvature="0"
           style="fill:#000000;stroke-width:0" /><path
           id="path6129"
           d="m 1374.4,357.46 13.9,0 c 0.7,0 1.6,0 1.6,0.99 0,1 -0.9,1 -1.6,1 l -13.9,0 0,13.95 c 0,0.69 0,1.64 -1,1.64 -1,0 -1,-0.95 -1,-1.64 l 0,-13.95 -14,0 c -0.7,0 -1.6,0 -1.6,-1 0,-0.99 0.9,-0.99 1.6,-0.99 l 14,0 0,-13.95 c 0,-0.7 0,-1.64 1,-1.64 1,0 1,0.94 1,1.64 z"
           inkscape:connector-curvature="0"
           style="fill:#000000;stroke-width:0" /><path
           id="path6131"
           d="m 1427.9,362.04 -0.1,0.84 0,0.84 0,0.83 -0.1,0.81 -0.1,0.81 -0.1,0.8 -0.2,0.78 -0.1,0.77 -0.2,0.75 -0.2,0.74 -0.2,0.72 -0.3,0.69 -0.3,0.68 -0.3,0.65 -0.3,0.63 -0.3,0.61 -0.4,0.58 -0.3,0.55 -0.4,0.52 -0.5,0.49 -0.4,0.46 -0.5,0.43 -0.5,0.39 -0.5,0.36 -0.5,0.32 -0.5,0.28 -0.6,0.24 -0.6,0.2 -0.6,0.16 -0.7,0.11 -0.6,0.07 -0.7,0.03 0,-2 c 6.7,0 9.1,-8.47 9.1,-15.14 0,-6.72 -2.4,-15.14 -9.1,-15.14 -1.4,0 -2.6,0.44 -2.7,0.49 l 0,29.29 c 0.1,0.05 1.3,0.5 2.7,0.5 l 0,2 c -7.4,0 -11.1,-8.17 -11.1,-17.14 l 2,0 c 0,4.03 0.9,10.16 4.4,13.35 l 0,-26.7 c -3.6,3.24 -4.4,9.56 -4.4,13.35 l -2,0 c 0,-9.02 3.7,-17.14 11.1,-17.14 7.4,0 11.1,8.17 11.1,17.14 z"
           inkscape:connector-curvature="0"
           style="fill:#000000;stroke-width:0" /></g>    </g>
    <path
       style="fill:none;fill-rule:evenodd;stroke:#0000b6;stroke-width:0.97388554px;stroke-linecap:butt;stroke-linejoin:miter;stroke-opacity:1;marker-end:url(#marker6606)"
       d="m 442.96718,719.02448 c 130.8418,-35.41583 130.8418,-35.41583 130.8418,-35.41583"
       id="path6604"
       inkscape:connector-curvature="0" />
    <g
       id="g7797"
       transform="matrix(0.88742482,0,0,0.88742482,78.177631,-199.15087)">
      <g
         word-spacing="normal"
         letter-spacing="normal"
         font-size-adjust="none"
         font-stretch="normal"
         font-weight="normal"
         font-variant="normal"
         font-style="normal"
         stroke-miterlimit="10.433"
         xml:space="preserve"
         transform="matrix(1.0928571,0,0,-1.0928571,-191.25,1012.5)"
         id="g7799"
         style="font-style:normal;font-variant:normal;font-weight:normal;font-stretch:normal;letter-spacing:normal;word-spacing:normal;text-anchor:start;fill:none;fill-opacity:1;fill-rule:evenodd;stroke:#000000;stroke-linecap:butt;stroke-linejoin:miter;stroke-miterlimit:10.43299961;stroke-dasharray:none;stroke-dashoffset:0;stroke-opacity:1"><path
           id="path7801"
           d="m 1075.8,324.26 0,2.69 c -6.6,0 -8.1,2.29 -8.1,5.48 l 0,53.4 c 0,3.24 1.5,5.48 8.1,5.48 l 0,2.69 -58,0 0,-2.69 c 6.6,0 8.2,-2.29 8.2,-5.48 l 0,-53.4 c 0,-3.24 -1.6,-5.48 -8.2,-5.48 l 0,-2.69 24,0 0,2.69 c -6.7,0 -8.2,2.29 -8.2,5.48 l 0,58.88 26.4,0 0,-58.88 c 0,-3.24 -1.6,-5.48 -8.1,-5.48 l 0,-2.69 z"
           inkscape:connector-curvature="0"
           style="fill:#000000;stroke-width:0" /><path
           id="path7803"
           d="m 1023,308.1 0,0.04 0,0.05 0,0.04 0,0.05 0,0.04 0,0.04 0,0.04 0,0.04 0.1,0.07 0,0.07 0,0.06 0,0.06 0,0.05 0.1,0.05 0,0.05 0,0.05 0,0.04 0,0.03 0.1,0.04 0,0.03 0,0.03 0,0.03 0.1,0.02 0,0.02 0,0.02 0.1,0.02 0,0.01 0.1,0.02 0,0.01 0.1,0.01 0,0.01 0.1,0.01 0,0.01 0.1,0.01 0.1,0 0,0.01 c 0.2,0.04 1.4,0.04 2.1,0.04 2.1,0 3.1,0 3.9,-0.28 1.6,-0.49 1.7,-1.5 1.7,-2.76 0,-0.55 0,-1.01 -0.3,-2.82 l -0.1,-0.39 c 0,-0.34 0.3,-0.52 0.6,-0.52 0.6,0 0.6,0.32 0.7,0.87 l 1,6.66 c 0,0.49 -0.5,0.49 -1.1,0.49 l -21.5,0 c -0.8,0 -0.9,0 -1.1,-0.73 l -2.2,-6.17 c -0.1,-0.14 -0.2,-0.46 -0.2,-0.63 0,-0.14 0.1,-0.49 0.6,-0.49 0.4,0 0.5,0.18 0.7,0.84 2,5.58 3.2,5.93 8.5,5.93 l 1.5,0 c 1,0 1,-0.04 1,-0.35 0,-0.04 0,-0.21 -0.1,-0.74 l -4.6,-18.34 c -0.3,-1.28 -0.4,-1.64 -4.1,-1.64 -1.2,0 -1.5,0 -1.5,-0.76 0,-0.11 0,-0.49 0.5,-0.49 l 12.1,0 c 0.3,0 0.8,0 0.8,0.77 0,0.48 -0.3,0.48 -1.4,0.48 -0.7,0 -1.4,0.04 -2,0.07 -1.2,0.11 -1.3,0.25 -1.3,0.67 0,0.24 0,0.31 0.1,0.8 z"
           inkscape:connector-curvature="0"
           style="fill:#000000;stroke-width:0" /><path
           id="path7805"
           d="m 1042.6,300.01 0,0.11 0,0.11 0,0.11 0,0.1 0,0.11 -0.1,0.1 0,0.09 0,0.1 -0.1,0.09 0,0.09 -0.1,0.08 0,0.08 -0.1,0.08 0,0.08 -0.1,0.07 -0.1,0.06 0,0.07 -0.1,0.06 -0.1,0.06 -0.1,0.05 -0.1,0.05 0,0.04 -0.1,0.05 -0.1,0.03 -0.1,0.04 -0.1,0.03 -0.1,0.02 -0.1,0.02 -0.1,0.02 -0.1,0.01 -0.1,0 0,0.01 c -1.3,0 -2.1,-0.98 -2.1,-1.99 0,-1.22 1,-2.02 2,-2.02 1.2,0 2,0.98 2,1.99 z"
           inkscape:connector-curvature="0"
           style="fill:#000000;stroke-width:0" /><path
           id="path7807"
           d="m 1042.6,288.99 0,0.11 0,0.11 0,0.11 0,0.1 0,0.11 -0.1,0.1 0,0.09 0,0.1 -0.1,0.09 0,0.09 -0.1,0.08 0,0.08 -0.1,0.08 0,0.08 -0.1,0.07 -0.1,0.07 0,0.06 -0.1,0.06 -0.1,0.06 -0.1,0.05 -0.1,0.05 0,0.05 -0.1,0.04 -0.1,0.04 -0.1,0.03 -0.1,0.03 -0.1,0.02 -0.1,0.03 -0.1,0.01 -0.1,0.01 -0.1,0.01 0,0 c -1.3,0 -2.1,-0.97 -2.1,-1.99 0,-1.22 1,-2.02 2,-2.02 1.2,0 2,0.98 2,1.99 z"
           inkscape:connector-curvature="0"
           style="fill:#000000;stroke-width:0" /><path
           id="path7809"
           d="m 1081.6,307.99 0,0.12 0.1,0.11 0,0.11 0,0.1 0,0.09 0.1,0.1 0,0.08 0,0.08 0.1,0.08 0,0.07 0,0.06 0.1,0.06 0,0.06 0.1,0.05 0.1,0.05 0,0.05 0.1,0.04 0.1,0.04 0.1,0.03 0.1,0.03 0.1,0.03 0,0.01 0.1,0.02 0.1,0.01 0,0.01 0.1,0.01 0.1,0.01 0,0 0.1,0.01 0.1,0.01 0.1,0 0,0.01 0.1,0.01 0.1,0 0.1,0 0.1,0.01 0.1,0 0.1,0 0.1,0.01 0.1,0 0.1,0 0.2,0 0.1,0 c 0.7,0 1.2,0 1.2,0.73 0,0.53 -0.5,0.53 -1.1,0.53 l -4.7,0 c -1.1,0 -1.1,-0.04 -1.5,-0.7 l -13.5,-19.88 -3.4,19.64 c -0.2,0.9 -0.2,0.94 -1.3,0.94 l -5,0 c -0.6,0 -1.1,0 -1.1,-0.77 0,-0.49 0.4,-0.49 1.2,-0.49 0.5,0 0.7,0 1.3,-0.07 0.7,-0.07 0.8,-0.14 0.8,-0.49 0,-0.03 0,-0.24 -0.2,-0.77 l -4.4,-17.5 c -0.3,-1.18 -0.8,-2.37 -3.6,-2.48 -0.3,0 -0.7,-0.03 -0.7,-0.76 0,-0.04 0,-0.49 0.5,-0.49 l 7.3,0 c 0.2,0 0.7,0 0.7,0.77 0,0.45 -0.4,0.48 -0.7,0.48 -2.3,0.07 -2.3,0.98 -2.3,1.47 0,0.14 0,0.32 0.2,0.87 l 4.6,18.55 0,0 3.8,-21.2 c 0.1,-0.63 0.1,-0.94 0.7,-0.94 0.4,0 0.7,0.38 1,0.77 l 14.6,21.72 0.1,-0.03 -5,-19.74 c -0.2,-1.18 -0.3,-1.47 -3,-1.47 -0.7,0 -1.1,0 -1.1,-0.76 0,-0.04 0,-0.49 0.6,-0.49 0.6,0 1.5,0.11 2.2,0.11 0.6,0 1.4,0.03 2.1,0.03 1,0 3.5,-0.14 4.5,-0.14 0.2,0 0.7,0 0.7,0.77 0,0.48 -0.4,0.48 -1.1,0.48 -0.1,0 -0.7,0 -1.3,0.07 -0.8,0.07 -0.8,0.18 -0.8,0.53 0,0.21 0.1,0.56 0.1,0.76 z"
           inkscape:connector-curvature="0"
           style="fill:#000000;stroke-width:0" /><path
           id="path7811"
           d="m 1110.6,381.67 0,0.15 0,0.15 0,0.15 0,0.07 0,0.08 -0.1,0.07 0,0.07 0,0.07 0,0.07 0,0.07 0,0.07 0,0.06 -0.1,0.06 0,0.06 0,0.06 0,0.05 -0.1,0.05 0,0.05 -0.1,0.05 0,0.04 -0.1,0.04 0,0.01 0,0.02 0,0.02 -0.1,0.01 0,0.01 0,0.02 -0.1,0.01 0,0.01 0,0.01 -0.1,0.01 0,0 -0.1,0.01 0,0 0,0.01 -0.1,0 0,0 c -1,0 -1,-1.09 -1,-1.84 l 0,-46.13 c 0,-0.8 0,-1.84 1,-1.84 1,0 1,0.9 1,1.69 z"
           inkscape:connector-curvature="0"
           style="fill:#000000;stroke-width:0" /><path
           id="path7813"
           d="m 1120.3,381.52 0,0.15 0,0.15 0,0.16 0,0.16 0,0.08 -0.1,0.08 0,0.07 0,0.08 0,0.07 0,0.08 0,0.07 0,0.07 -0.1,0.06 0,0.07 0,0.06 -0.1,0.06 0,0.05 0,0.05 -0.1,0.05 0,0.04 -0.1,0.02 0,0.02 0,0.02 -0.1,0.02 0,0.01 0,0.02 0,0.01 -0.1,0.01 0,0.01 -0.1,0.01 0,0.01 0,0.01 -0.1,0 0,0.01 -0.1,0 0,0 c -1,0 -1,-0.9 -1,-1.69 l 0,-46.43 c 0,-0.79 0,-1.69 1,-1.69 1,0 1,1.09 1,1.84 z"
           inkscape:connector-curvature="0"
           style="fill:#000000;stroke-width:0" /><path
           id="path7815"
           d="m 1146.8,334.09 0,-0.02 0,-0.03 0,-0.03 0,-0.02 0,-0.03 0,-0.03 0,-0.02 0,-0.03 0,-0.02 0,-0.02 0.1,-0.03 0,-0.02 0,-0.02 0,-0.02 0,-0.02 0,-0.02 0.1,-0.02 0,-0.02 0,-0.01 0,-0.02 0,-0.01 0.1,-0.02 0,-0.01 0,-0.01 0,-0.01 0.1,-0.01 0,-0.01 0,0 0,-0.01 0.1,0 0,0 0,0 12,0 c 0.4,0 0.6,0.25 0.6,0.54 l 0,0.9 c 0,0.3 -0.2,0.55 -0.6,0.55 l -4.4,0 -1.9,0 -4.2,0 0,45.83 4.2,0 0,-45.83 1.9,0 0,45.83 4.4,0 c 0.4,0 0.6,0.25 0.6,0.54 l 0,0.9 c 0,0.3 -0.2,0.55 -0.6,0.55 l -12,0 c -0.3,0 -0.5,-0.25 -0.5,-0.55 z"
           inkscape:connector-curvature="0"
           style="fill:#000000;stroke-width:0" /><path
           id="path7817"
           d="m 1166.8,334.09 0,-0.02 0,-0.03 0,-0.03 0,-0.02 0,-0.03 0,-0.03 0,-0.02 0,-0.03 0,-0.02 0,-0.02 0.1,-0.03 0,-0.02 0,-0.02 0,-0.02 0,-0.02 0,-0.02 0.1,-0.02 0,-0.02 0,-0.01 0,-0.02 0,-0.01 0.1,-0.02 0,-0.01 0,-0.01 0,-0.01 0.1,-0.01 0,-0.01 0,0 0,-0.01 0.1,0 0,0 0,0 12,0 c 0.4,0 0.6,0.25 0.6,0.54 l 0,0.9 c 0,0.3 -0.2,0.55 -0.6,0.55 l -4.4,0 -1.9,0 -4.2,0 0,45.83 4.2,0 0,-45.83 1.9,0 0,45.83 4.4,0 c 0.4,0 0.6,0.25 0.6,0.54 l 0,0.9 c 0,0.3 -0.2,0.55 -0.6,0.55 l -12,0 c -0.3,0 -0.5,-0.25 -0.5,-0.55 z"
           inkscape:connector-curvature="0"
           style="fill:#000000;stroke-width:0" /><path
           id="path7819"
           d="m 1202.3,376.24 0,0.13 0,0.12 0.1,0.11 0,0.11 0,0.11 0.1,0.09 0,0.1 0,0.08 0,0.09 0.1,0.07 0,0.08 0,0.06 0.1,0.07 0,0.06 0,0.05 0,0.06 0.1,0.04 0,0.05 0,0.04 0.1,0.04 0,0.03 0.1,0.04 0,0.03 0,0.02 0.1,0.03 0,0.02 0.1,0.02 0,0.02 0.1,0.02 0,0.02 0.1,0.01 0,0.02 c 0.5,0.1 2.1,0.1 3.2,0.1 5,0 7.2,-0.2 7.2,-4.09 0,-0.74 -0.2,-2.68 -0.4,-3.98 0,-0.2 -0.1,-0.8 -0.1,-0.95 0,-0.3 0.1,-0.64 0.6,-0.64 0.5,0 0.6,0.39 0.7,1.14 l 1.4,8.67 c 0,0.2 0.1,0.7 0.1,0.85 0,0.54 -0.5,0.54 -1.4,0.54 l -27.6,0 c -1.2,0 -1.3,-0.05 -1.6,-0.99 l -3,-8.77 c -0.1,-0.1 -0.3,-0.8 -0.3,-0.9 0,-0.29 0.2,-0.54 0.6,-0.54 0.5,0 0.5,0.25 0.8,1.04 2.7,7.72 4,8.62 11.4,8.62 l 1.9,0 c 1.4,0 1.4,-0.2 1.4,-0.6 0,-0.3 -0.1,-0.9 -0.2,-1.04 l -6.6,-26.61 c -0.5,-1.84 -0.6,-2.39 -6,-2.39 -1.8,0 -2.1,0 -2.1,-0.94 0,-0.6 0.6,-0.6 0.9,-0.6 1.3,0 2.7,0.1 4.1,0.1 l 8.3,0 c 1.5,0 3,-0.1 4.4,-0.1 0.5,0 1.1,0 1.1,1 0,0.54 -0.4,0.54 -1.7,0.54 -1.3,0 -1.9,0 -3.2,0.1 -1.5,0.15 -1.9,0.3 -1.9,1.1 0,0.05 0,0.3 0.2,1.05 z"
           inkscape:connector-curvature="0"
           style="fill:#000000;stroke-width:0" /><path
           id="path7821"
           d="m 1231.2,334.09 0,48.72 c 0,0.3 -0.3,0.55 -0.5,0.55 l -12,0 c -0.3,0 -0.5,-0.25 -0.5,-0.55 l 0,-0.9 c 0,-0.29 0.2,-0.54 0.5,-0.54 l 4.3,0 2,0 4.2,0 0,-45.83 -4.2,0 0,45.83 -2,0 0,-45.83 -4.3,0 c -0.3,0 -0.5,-0.25 -0.5,-0.55 l 0,-0.9 c 0,-0.29 0.2,-0.54 0.5,-0.54 l 12,0 c 0.2,0 0.5,0.25 0.5,0.54 z"
           inkscape:connector-curvature="0"
           style="fill:#000000;stroke-width:0" /><path
           id="path7823"
           d="m 1262.9,375.88 0.1,0 0,0 0.1,0 0.1,0 0.1,0 0,0.01 0.1,0 0.1,0.01 0,0 0.1,0.01 0,0.01 0.1,0.02 0,0.01 0.1,0.02 0,0.01 0.1,0.02 0.1,0.03 0,0.02 0,0.03 0.1,0.04 0,0.03 0.1,0.04 0,0.02 0,0.02 0,0.03 0,0.02 0,0.02 0.1,0.03 0,0.03 0,0.02 0,0.03 0,0.03 0,0.03 0,0.03 0,0.04 0,0.03 0,0.04 0,0.03 0,0.04 0,0.04 c 0,0.87 -0.8,0.87 -1.4,0.87 l -20.7,0 c -0.6,0 -1.4,0 -1.4,-0.84 0,-0.87 0.8,-0.87 1.4,-0.87 z"
           inkscape:connector-curvature="0"
           style="fill:#000000;stroke-width:0" /><path
           id="path7825"
           d="m 1279.7,390.18 0,0.04 0,0.04 0,0.04 0,0.04 0,0.04 0,0.04 0,0.03 0,0.04 0,0.03 0,0.03 0,0.04 0,0.03 0,0.02 0,0.03 0,0.03 0,0.03 -0.1,0.02 0,0.02 0,0.05 0,0.04 0,0.04 0,0.03 0,0.03 -0.1,0.03 0,0.03 0,0.02 0,0.02 -0.1,0.02 0,0.01 0,0.01 -0.1,0.02 0,0 -0.1,0.01 0,0 0,0.01 0,0 -0.1,0 0,0 0,0 -0.1,0.01 0,0 0,0 -0.1,0 0,0 0,0 -0.1,0 0,0 -0.1,0 0,0 -0.1,0 c -2.2,-2.19 -5.4,-2.23 -6.8,-2.23 l 0,-1.25 c 0.8,0 3.1,0 5.1,0.97 l 0,-17.78 c 0,-1.15 0,-1.61 -3.5,-1.61 l -1.4,0 0,-1.25 12.5,0 0,1.25 -1.3,0 c -3.5,0 -3.5,0.46 -3.5,1.61 z"
           inkscape:connector-curvature="0"
           style="fill:#000000;stroke-width:0" /><path
           id="path7827"
           d="m 1255,344.12 0,0.71 0,0.68 -0.1,0.66 0,0.64 -0.1,0.62 0,0.59 -0.1,0.58 -0.1,0.56 -0.2,0.55 -0.1,0.53 -0.2,0.51 -0.2,0.5 -0.2,0.49 -0.2,0.48 -0.3,0.47 -0.1,0.24 -0.2,0.23 c -1,1.6 -3.2,2.99 -6,2.99 l 0,-0.97 c 1.9,0 3.7,-1.15 4.3,-3.18 0.6,-1.88 0.6,-4.39 0.6,-7.42 0,-2.58 0,-5.17 -0.4,-7.36 -0.7,-3.17 -3.1,-3.94 -4.5,-3.94 l 0,0 c -1.6,0 -3.7,0.94 -4.4,3.8 -0.5,2.06 -0.5,4.92 -0.5,7.5 0,2.54 0,5.19 0.5,7.11 0.7,2.76 3,3.49 4.4,3.49 l 0,0.97 c -8.1,0 -8.1,-9.52 -8.1,-12.03 0,-2.51 0,-11.82 8.1,-11.82 8.1,0 8.1,9.31 8.1,11.82 z"
           inkscape:connector-curvature="0"
           style="fill:#000000;stroke-width:0" /><path
           id="path7829"
           d="m 1304.2,334.09 0,48.72 c 0,0.3 -0.3,0.55 -0.5,0.55 l -12,0 c -0.3,0 -0.5,-0.25 -0.5,-0.55 l 0,-0.9 c 0,-0.29 0.2,-0.54 0.5,-0.54 l 4.3,0 2,0 4.2,0 0,-45.83 -4.2,0 0,45.83 -2,0 0,-45.83 -4.3,0 c -0.3,0 -0.5,-0.25 -0.5,-0.55 l 0,-0.9 c 0,-0.29 0.2,-0.54 0.5,-0.54 l 12,0 c 0.2,0 0.5,0.25 0.5,0.54 z"
           inkscape:connector-curvature="0"
           style="fill:#000000;stroke-width:0" /><path
           id="path7831"
           d="m 1328,350.12 0,0.71 0,0.68 -0.1,0.66 0,0.64 -0.1,0.62 0,0.59 -0.1,0.58 -0.1,0.56 -0.2,0.55 -0.1,0.53 -0.2,0.51 -0.2,0.5 -0.2,0.49 -0.2,0.48 -0.3,0.47 -0.1,0.24 -0.2,0.23 c -1,1.6 -3.2,2.99 -6,2.99 l 0,-0.97 c 1.9,0 3.7,-1.15 4.3,-3.18 0.6,-1.88 0.6,-4.39 0.6,-7.42 0,-2.58 0,-5.17 -0.4,-7.36 -0.7,-3.17 -3.1,-3.94 -4.5,-3.94 l 0,0 c -1.6,0 -3.7,0.94 -4.4,3.8 -0.5,2.06 -0.5,4.92 -0.5,7.5 0,2.54 0,5.19 0.5,7.11 0.7,2.76 3,3.49 4.4,3.49 l 0,0.97 c -8.1,0 -8.1,-9.52 -8.1,-12.03 0,-2.51 0,-11.82 8.1,-11.82 8.1,0 8.1,9.31 8.1,11.82 z"
           inkscape:connector-curvature="0"
           style="fill:#000000;stroke-width:0" /><path
           id="path7833"
           d="m 1381.2,362.29 0.2,0 0.1,0 0.2,0.01 0,0 0.1,0 0.1,0.01 0,0.01 0.1,0.01 0.1,0.01 0.1,0.02 0,0.01 0.1,0.02 0,0.02 0.1,0.03 0.1,0.03 0,0.03 0.1,0.03 0,0.04 0.1,0.04 0,0.05 0.1,0.05 0,0.03 0,0.02 0,0.03 0,0.03 0,0.03 0,0.04 0.1,0.03 0,0.04 0,0.03 0,0.04 0,0.04 0,0.04 0,0.04 0,0.04 0,0.05 0,0.05 c 0,0.99 -0.9,0.99 -1.6,0.99 l -29.9,0 c -0.7,0 -1.6,0 -1.6,-0.99 0,-1 0.9,-1 1.7,-1 z"
           inkscape:connector-curvature="0"
           style="fill:#000000;stroke-width:0" /><path
           id="path7835"
           d="m 1381.3,352.62 0.1,0.01 0.1,0 0.2,0 0.1,0.01 0,0 0.1,0.01 0.1,0.01 0,0.01 0.1,0.01 0.1,0.01 0,0.02 0.1,0.02 0.1,0.02 0,0.02 0.1,0.03 0,0.03 0.1,0.04 0,0.04 0.1,0.04 0,0.04 0,0.03 0.1,0.03 0,0.02 0,0.03 0,0.03 0,0.03 0,0.03 0,0.03 0.1,0.04 0,0.03 0,0.04 0,0.04 0,0.04 0,0.04 0,0.04 0,0.04 0,0.05 0,0.04 c 0,1 -0.9,1 -1.7,1 l -29.7,0 c -0.8,0 -1.7,0 -1.7,-1 0,-1 0.9,-1 1.6,-1 z"
           inkscape:connector-curvature="0"
           style="fill:#000000;stroke-width:0" /><path
           id="path7837"
           d="m 1420.3,376.24 0,0.13 0,0.12 0.1,0.11 0,0.11 0,0.11 0.1,0.09 0,0.1 0,0.08 0,0.09 0.1,0.07 0,0.08 0,0.06 0.1,0.07 0,0.06 0,0.05 0,0.06 0.1,0.04 0,0.05 0,0.04 0.1,0.04 0,0.03 0.1,0.04 0,0.03 0,0.02 0.1,0.03 0,0.02 0.1,0.02 0,0.02 0.1,0.02 0,0.02 0.1,0.01 0,0.02 c 0.5,0.1 2.1,0.1 3.2,0.1 5,0 7.2,-0.2 7.2,-4.09 0,-0.74 -0.2,-2.68 -0.4,-3.98 0,-0.2 -0.1,-0.8 -0.1,-0.95 0,-0.3 0.1,-0.64 0.6,-0.64 0.5,0 0.6,0.39 0.7,1.14 l 1.4,8.67 c 0,0.2 0.1,0.7 0.1,0.85 0,0.54 -0.5,0.54 -1.4,0.54 l -27.6,0 c -1.2,0 -1.3,-0.05 -1.6,-0.99 l -3,-8.77 c -0.1,-0.1 -0.3,-0.8 -0.3,-0.9 0,-0.29 0.2,-0.54 0.6,-0.54 0.5,0 0.5,0.25 0.8,1.04 2.7,7.72 4,8.62 11.4,8.62 l 1.9,0 c 1.4,0 1.4,-0.2 1.4,-0.6 0,-0.3 -0.1,-0.9 -0.2,-1.04 l -6.6,-26.61 c -0.5,-1.84 -0.6,-2.39 -6,-2.39 -1.8,0 -2.1,0 -2.1,-0.94 0,-0.6 0.6,-0.6 0.9,-0.6 1.3,0 2.7,0.1 4.1,0.1 l 8.3,0 c 1.5,0 3,-0.1 4.4,-0.1 0.5,0 1.1,0 1.1,1 0,0.54 -0.4,0.54 -1.7,0.54 -1.3,0 -1.9,0 -3.2,0.1 -1.5,0.15 -1.9,0.3 -1.9,1.1 0,0.05 0,0.3 0.2,1.05 z"
           inkscape:connector-curvature="0"
           style="fill:#000000;stroke-width:0" /><path
           id="path7839"
           d="m 1457.6,381.67 0,0.15 0,0.15 0,0.15 0,0.07 0,0.08 -0.1,0.07 0,0.07 0,0.07 0,0.07 0,0.07 0,0.07 0,0.06 -0.1,0.06 0,0.06 0,0.06 0,0.05 -0.1,0.05 0,0.05 -0.1,0.05 0,0.04 -0.1,0.04 0,0.01 0,0.02 0,0.02 -0.1,0.01 0,0.01 0,0.02 -0.1,0.01 0,0.01 0,0.01 -0.1,0.01 0,0 -0.1,0.01 0,0 0,0.01 -0.1,0 0,0 c -1,0 -1,-1.09 -1,-1.84 l 0,-46.13 c 0,-0.8 0,-1.84 1,-1.84 1,0 1,0.9 1,1.69 z"
           inkscape:connector-curvature="0"
           style="fill:#000000;stroke-width:0" /><path
           id="path7841"
           d="m 1467.3,381.52 0,0.15 0,0.15 0,0.16 0,0.16 0,0.08 -0.1,0.08 0,0.07 0,0.08 0,0.07 0,0.08 0,0.07 0,0.07 -0.1,0.06 0,0.07 0,0.06 -0.1,0.06 0,0.05 0,0.05 -0.1,0.05 0,0.04 -0.1,0.02 0,0.02 0,0.02 -0.1,0.02 0,0.01 0,0.02 0,0.01 -0.1,0.01 0,0.01 -0.1,0.01 0,0.01 0,0.01 -0.1,0 0,0.01 -0.1,0 0,0 c -1,0 -1,-0.9 -1,-1.69 l 0,-46.43 c 0,-0.79 0,-1.69 1,-1.69 1,0 1,1.09 1,1.84 z"
           inkscape:connector-curvature="0"
           style="fill:#000000;stroke-width:0" /></g>    </g>
    <g
       id="g8567"
       transform="matrix(0.57531894,0,0,0.57531894,-365.57091,490.84729)"
       style="fill:#00be00;fill-opacity:1">
      <g
         word-spacing="normal"
         letter-spacing="normal"
         font-size-adjust="none"
         font-stretch="normal"
         font-weight="normal"
         font-variant="normal"
         font-style="normal"
         stroke-miterlimit="10.433"
         xml:space="preserve"
         transform="matrix(1.0928571,0,0,-1.0928571,-191.25,1012.5)"
         id="g8569"
         style="font-style:normal;font-variant:normal;font-weight:normal;font-stretch:normal;letter-spacing:normal;word-spacing:normal;text-anchor:start;fill:#00be00;fill-opacity:1;fill-rule:evenodd;stroke:#000000;stroke-linecap:butt;stroke-linejoin:miter;stroke-miterlimit:10.43299961;stroke-dasharray:none;stroke-dashoffset:0;stroke-opacity:1"><path
           id="path8571"
           d="m 1088.2,364.58 5.6,0 c -1.6,-7.37 -2.1,-9.51 -2.1,-12.85 0,-0.75 0,-2.09 0.4,-3.79 0.5,-2.19 1.1,-2.49 1.8,-2.49 1,0 2.1,0.9 2.1,1.89 0,0.3 0,0.4 -0.3,1.1 -1.5,3.59 -1.5,6.83 -1.5,8.22 0,2.64 0.4,5.33 0.9,7.92 l 5.7,0 c 0.6,0 2.4,0 2.4,1.69 0,1.2 -1,1.2 -2,1.2 l -16.6,0 c -1.1,0 -3,0 -5.2,-2.34 -1.8,-1.95 -3.1,-4.24 -3.1,-4.49 0,-0.05 0,-0.49 0.6,-0.49 0.4,0 0.5,0.2 0.8,0.6 2.5,3.83 5.4,3.83 6.4,3.83 l 2.8,0 c -1.6,-6.03 -4.3,-12.05 -6.4,-16.59 -0.4,-0.74 -0.4,-0.85 -0.4,-1.19 0,-0.95 0.8,-1.35 1.5,-1.35 1.5,0 1.9,1.4 2.5,3.24 0.7,2.29 0.7,2.39 1.3,4.88 z"
           inkscape:connector-curvature="0"
           style="fill:#00be00;fill-opacity:1;stroke-width:0" /><path
           id="path8573"
           d="m 1114.7,361.18 0,0.04 0,0.04 0,0.04 0,0.04 0,0.04 0,0.04 0,0.03 0,0.04 0,0.03 0,0.03 0,0.04 0,0.03 0,0.02 0,0.03 0,0.03 0,0.03 -0.1,0.02 0,0.02 0,0.05 0,0.04 0,0.04 0,0.03 0,0.03 -0.1,0.03 0,0.03 0,0.02 0,0.02 -0.1,0.02 0,0.01 0,0.01 -0.1,0.02 0,0 -0.1,0.01 0,0 0,0.01 0,0 -0.1,0 0,0 0,0 -0.1,0.01 0,0 0,0 -0.1,0 0,0 0,0 -0.1,0 0,0 -0.1,0 0,0 -0.1,0 c -2.2,-2.19 -5.4,-2.23 -6.8,-2.23 l 0,-1.25 c 0.8,0 3.1,0 5.1,0.97 l 0,-17.78 c 0,-1.15 0,-1.61 -3.5,-1.61 l -1.4,0 0,-1.25 12.5,0 0,1.25 -1.3,0 c -3.5,0 -3.5,0.46 -3.5,1.61 z"
           inkscape:connector-curvature="0"
           style="fill:#00be00;fill-opacity:1;stroke-width:0" /><path
           id="path8575"
           d="m 1150.8,368.02 -7,-0.55 0,-1.54 c 3.3,0 3.7,-0.31 3.7,-2.75 l 0,-13.39 c 0,-2.25 -0.5,-2.25 -3.9,-2.25 l 0,-1.54 10.7,0 0,1.54 c -3.3,0 -3.5,0.25 -3.5,2.19 z"
           inkscape:connector-curvature="0"
           style="fill:#00be00;fill-opacity:1;stroke-width:0" /><path
           id="path8577"
           d="m 1151,376.68 0,0.15 0,0.15 0,0.14 0,0.13 -0.1,0.14 0,0.13 0,0.13 -0.1,0.12 -0.1,0.12 0,0.11 -0.1,0.11 0,0.11 -0.1,0.1 -0.1,0.1 -0.1,0.09 -0.1,0.09 -0.1,0.09 -0.1,0.07 -0.1,0.08 -0.1,0.07 -0.1,0.06 -0.1,0.06 -0.1,0.06 -0.1,0.05 -0.1,0.04 -0.2,0.04 -0.1,0.03 -0.1,0.03 -0.1,0.02 -0.2,0.01 -0.1,0.01 -0.1,0 c -1.6,0 -2.7,-1.34 -2.7,-2.64 0,-1.34 1.1,-2.64 2.7,-2.64 1.4,0 2.6,1.05 2.6,2.64 z"
           inkscape:connector-curvature="0"
           style="fill:#00be00;fill-opacity:1;stroke-width:0" /><path
           id="path8579"
           d="m 1166.4,355.66 0.1,-0.02 0.1,-0.02 0.1,-0.03 0.2,-0.03 0.2,-0.04 0.1,-0.05 0.2,-0.05 0.2,-0.05 0.2,-0.06 0.2,-0.07 0.3,-0.08 0.2,-0.09 0.2,-0.09 0.2,-0.1 0.2,-0.12 0.3,-0.12 0.2,-0.13 0.2,-0.14 0.2,-0.15 0.2,-0.16 0.2,-0.18 0.2,-0.19 0.1,-0.2 0.2,-0.21 0.1,-0.22 0.1,-0.12 0.1,-0.12 0,-0.13 0.1,-0.12 0,-0.13 0.1,-0.14 0,-0.14 0,-0.14 0.1,-0.15 0,-0.15 0,-0.15 0,-0.16 0,-0.16 0,-0.17 c 0,-2.54 -1.7,-4.53 -5.6,-4.53 -4.2,0 -6,2.84 -6.9,7.07 -0.2,0.65 -0.2,0.85 -0.7,0.85 -0.7,0 -0.7,-0.35 -0.7,-1.25 l 0,-6.57 c 0,-0.85 0,-1.2 0.6,-1.2 0.2,0 0.3,0.05 1.2,1 0.1,0.1 0.1,0.2 1,1.14 2.2,-2.09 4.5,-2.14 5.5,-2.14 5.7,0 8,3.34 8,6.93 0,2.64 -1.5,4.13 -2.1,4.73 -1.6,1.59 -3.6,1.99 -5.6,2.39 -2.8,0.55 -6.2,1.2 -6.2,4.09 0,1.74 1.3,3.78 5.6,3.78 5.5,0 5.7,-4.48 5.8,-6.03 0.1,-0.45 0.5,-0.45 0.6,-0.45 0.7,0 0.7,0.25 0.7,1.2 l 0,5.03 c 0,0.85 0,1.2 -0.6,1.2 -0.2,0 -0.3,0 -1,-0.6 -0.1,-0.2 -0.6,-0.65 -0.8,-0.8 -1.9,1.4 -3.9,1.4 -4.7,1.4 -6.1,0 -8,-3.34 -8,-6.13 0,-1.74 0.8,-3.14 2.2,-4.23 1.6,-1.3 3,-1.6 6.6,-2.3 z"
           inkscape:connector-curvature="0"
           style="fill:#00be00;fill-opacity:1;stroke-width:0" /><path
           id="path8581"
           d="m 1211.5,349.93 0,-4.48 7.2,0.55 0,1.54 c -3.5,0 -3.9,0.35 -3.9,2.79 l 0,17.69 -7.4,-0.55 0,-1.54 c 3.5,0 3.9,-0.35 3.9,-2.79 l 0,-8.87 c 0,-4.34 -2.4,-7.72 -6,-7.72 -4.2,0 -4.4,2.34 -4.4,4.93 l 0,16.54 -7.3,-0.55 0,-1.54 c 3.9,0 3.9,-0.15 3.9,-4.59 l 0,-7.47 c 0,-3.89 0,-8.42 7.6,-8.42 2.7,0 4.9,1.4 6.4,4.48 z"
           inkscape:connector-curvature="0"
           style="fill:#00be00;fill-opacity:1;stroke-width:0" /><path
           id="path8583"
           d="m 1225.5,363.14 0,-13.35 c 0,-2.25 -0.6,-2.25 -3.9,-2.25 l 0,-1.54 11.2,0 0,1.54 c -3.3,0 -3.9,0 -3.9,2.25 l 0,9.16 c 0,5.18 3.5,7.97 6.7,7.97 3.2,0 3.7,-2.69 3.7,-5.53 l 0,-11.6 c 0,-2.25 -0.5,-2.25 -3.9,-2.25 l 0,-1.54 11.3,0 0,1.54 c -2.6,0 -3.9,0 -3.9,1.5 l 0,9.51 c 0,4.29 0,5.83 -1.6,7.63 -0.7,0.84 -2.3,1.84 -5.2,1.84 -3.6,0 -6,-2.14 -7.4,-5.23 l 0,5.23 -7,-0.55 0,-1.54 c 3.5,0 3.9,-0.35 3.9,-2.79 z"
           inkscape:connector-curvature="0"
           style="fill:#00be00;fill-opacity:1;stroke-width:0" /><path
           id="path8585"
           d="m 1256.8,368.02 -7,-0.55 0,-1.54 c 3.3,0 3.7,-0.31 3.7,-2.75 l 0,-13.39 c 0,-2.25 -0.5,-2.25 -3.9,-2.25 l 0,-1.54 10.7,0 0,1.54 c -3.3,0 -3.5,0.25 -3.5,2.19 z"
           inkscape:connector-curvature="0"
           style="fill:#00be00;fill-opacity:1;stroke-width:0" /><path
           id="path8587"
           d="m 1257,376.68 0,0.15 0,0.15 0,0.14 0,0.13 -0.1,0.14 0,0.13 0,0.13 -0.1,0.12 -0.1,0.12 0,0.11 -0.1,0.11 0,0.11 -0.1,0.1 -0.1,0.1 -0.1,0.09 -0.1,0.09 -0.1,0.09 -0.1,0.07 -0.1,0.08 -0.1,0.07 -0.1,0.06 -0.1,0.06 -0.1,0.06 -0.1,0.05 -0.1,0.04 -0.2,0.04 -0.1,0.03 -0.1,0.03 -0.1,0.02 -0.2,0.01 -0.1,0.01 -0.1,0 c -1.6,0 -2.7,-1.34 -2.7,-2.64 0,-1.34 1.1,-2.64 2.7,-2.64 1.4,0 2.6,1.05 2.6,2.64 z"
           inkscape:connector-curvature="0"
           style="fill:#00be00;fill-opacity:1;stroke-width:0" /><path
           id="path8589"
           d="m 1282.7,362.59 0.1,0.11 0,0.11 0.1,0.12 0,0.13 0.1,0.13 0,0.13 0.1,0.13 0.1,0.14 0,0.13 0.1,0.14 0.1,0.14 0.1,0.13 0.1,0.14 0.1,0.13 0.1,0.14 0.1,0.13 0.2,0.12 0.1,0.13 0.2,0.12 0.1,0.11 0.2,0.11 0.2,0.1 0.2,0.1 0.2,0.08 0.2,0.08 0.2,0.08 0.2,0.06 0.3,0.05 0.2,0.05 0.2,0.02 0.1,0.01 0.2,0.02 0.1,0.01 0.1,0 0.2,0.01 0,1.54 -8.1,0 0,-1.54 c 1.9,-0.05 2.4,-1.2 2.4,-2.14 0,-0.45 -0.1,-0.65 -0.3,-1.2 l -5.1,-12.7 -5.5,13.9 c -0.3,0.64 -0.3,0.74 -0.3,0.84 0,1.3 1.9,1.3 2.8,1.3 l 0,1.54 -10.3,0 0,-1.54 c 3.2,0 3.4,-0.31 4,-1.85 l 7.2,-17.68 c 0.3,-0.7 0.4,-0.95 1.1,-0.95 0.6,0 0.8,0.45 1,0.95 z"
           inkscape:connector-curvature="0"
           style="fill:#00be00;fill-opacity:1;stroke-width:0" /><path
           id="path8591"
           d="m 1301.6,349.79 0,-0.19 0,-0.19 0.1,-0.19 0,-0.18 0.1,-0.19 0,-0.18 0.1,-0.18 0.1,-0.18 0,-0.18 0.1,-0.18 0.1,-0.17 0.1,-0.16 0.1,-0.17 0.1,-0.15 0.1,-0.16 0.1,-0.14 0.2,-0.15 0.1,-0.13 0.1,-0.13 0.2,-0.12 0.1,-0.12 0.2,-0.1 0.1,-0.1 0.2,-0.09 0.2,-0.08 0.2,-0.07 0.1,-0.07 0.2,-0.05 0.2,-0.04 0.2,-0.03 0.3,-0.01 0.2,-0.01 c 1,0 4.1,0.7 4.1,4.73 l 0,2.79 -1.3,0 0,-2.79 c 0,-2.89 -1.2,-3.18 -1.8,-3.18 -1.6,0 -1.8,2.24 -1.8,2.48 l 0,9.97 c 0,2.09 0,4.03 -1.8,5.88 -2,1.94 -4.5,2.74 -6.8,2.74 -4.1,0 -7.6,-2.34 -7.6,-5.63 0,-1.5 1,-2.34 2.3,-2.34 1.4,0 2.3,0.99 2.3,2.29 0,0.59 -0.2,2.24 -2.5,2.29 1.3,1.74 3.8,2.29 5.4,2.29 2.4,0 5.2,-1.94 5.2,-6.38 l 0,-1.84 0,-1.04 0,-4.99 c 0,-4.73 -3.5,-6.42 -5.8,-6.42 -2.4,0 -4.5,1.74 -4.5,4.23 0,2.74 2.1,6.88 10.3,7.18 l 0,0 0,1.04 c -2.5,-0.15 -6,-0.3 -9.1,-1.79 -3.8,-1.69 -5,-4.28 -5,-6.48 0,-4.03 4.8,-5.28 8,-5.28 3.2,0 5.5,2 6.5,4.34 z"
           inkscape:connector-curvature="0"
           style="fill:#00be00;fill-opacity:1;stroke-width:0" /><path
           id="path8593"
           d="m 1318.8,380.57 -7.2,-0.55 0,-1.54 c 3.5,0 3.9,-0.35 3.9,-2.79 l 0,-25.9 c 0,-2.25 -0.5,-2.25 -3.9,-2.25 l 0,-1.54 11.1,0 0,1.54 c -3.3,0 -3.9,0 -3.9,2.25 z"
           inkscape:connector-curvature="0"
           style="fill:#00be00;fill-opacity:1;stroke-width:0" /><path
           id="path8595"
           d="m 1329.5,357.51 0.1,1.04 c 0.3,7.43 4.5,8.67 6.2,8.67 5.1,0 5.6,-6.72 5.6,-8.67 l -11.8,0 -0.1,-1.04 13.9,0 c 1.1,0 1.3,0 1.3,1.04 0,4.93 -2.7,9.77 -8.9,9.77 -5.8,0 -10.4,-5.14 -10.4,-11.36 0,-6.67 5.2,-11.51 11,-11.51 6,0 8.3,5.53 8.3,6.48 0,0.5 -0.4,0.6 -0.7,0.6 -0.4,0 -0.5,-0.3 -0.6,-0.7 -1.8,-5.13 -6.2,-5.13 -6.7,-5.13 -2.5,0 -4.5,1.49 -5.7,3.34 -1.5,2.39 -1.5,5.67 -1.5,7.47 z"
           inkscape:connector-curvature="0"
           style="fill:#00be00;fill-opacity:1;stroke-width:0" /><path
           id="path8597"
           d="m 1351.5,363.14 0,-13.35 c 0,-2.25 -0.6,-2.25 -3.9,-2.25 l 0,-1.54 11.2,0 0,1.54 c -3.3,0 -3.9,0 -3.9,2.25 l 0,9.16 c 0,5.18 3.5,7.97 6.7,7.97 3.2,0 3.7,-2.69 3.7,-5.53 l 0,-11.6 c 0,-2.25 -0.5,-2.25 -3.9,-2.25 l 0,-1.54 11.3,0 0,1.54 c -2.6,0 -3.9,0 -3.9,1.5 l 0,9.51 c 0,4.29 0,5.83 -1.6,7.63 -0.7,0.84 -2.3,1.84 -5.2,1.84 -3.6,0 -6,-2.14 -7.4,-5.23 l 0,5.23 -7,-0.55 0,-1.54 c 3.5,0 3.9,-0.35 3.9,-2.79 z"
           inkscape:connector-curvature="0"
           style="fill:#00be00;fill-opacity:1;stroke-width:0" /><path
           id="path8599"
           d="m 1380.6,365.93 7.1,0 0,1.54 -7.1,0 0,9.17 -1.2,0 c -0.1,-4.09 -1.6,-9.42 -6.5,-9.62 l 0,-1.09 4.3,0 0,-13.75 c 0,-6.13 4.6,-6.73 6.4,-6.73 3.5,0 4.9,3.54 4.9,6.73 l 0,2.84 -1.2,0 0,-2.74 c 0,-3.69 -1.5,-5.58 -3.3,-5.58 -3.4,0 -3.4,4.53 -3.4,5.38 z"
           inkscape:connector-curvature="0"
           style="fill:#00be00;fill-opacity:1;stroke-width:0" /><path
           id="path8601"
           d="m 1398.6,356.41 2,22.71 c 0,1.65 -1.4,2.55 -2.7,2.55 -1.3,0 -2.6,-0.9 -2.6,-2.55 l 1.9,-22.66 c 0.1,-0.75 0.1,-1.14 0.7,-1.14 0.5,0 0.7,0.24 0.7,1.09 z"
           inkscape:connector-curvature="0"
           style="fill:#00be00;fill-opacity:1;stroke-width:0" /><path
           id="path8603"
           d="m 1400.6,348.64 0,0.14 -0.1,0.13 0,0.13 0,0.13 0,0.13 -0.1,0.12 0,0.12 0,0.12 -0.1,0.12 -0.1,0.11 0,0.11 -0.1,0.11 -0.1,0.1 0,0.1 -0.1,0.1 -0.1,0.09 -0.1,0.09 -0.1,0.08 -0.1,0.08 -0.1,0.08 -0.1,0.07 -0.1,0.06 -0.1,0.06 -0.2,0.05 -0.1,0.05 -0.1,0.04 -0.1,0.04 -0.1,0.03 -0.2,0.02 -0.1,0.02 -0.1,0.01 -0.2,0 c -1.4,0 -2.6,-1.19 -2.6,-2.64 0,-1.44 1.2,-2.64 2.6,-2.64 1.5,0 2.7,1.2 2.7,2.64 z"
           inkscape:connector-curvature="0"
           style="fill:#00be00;fill-opacity:1;stroke-width:0" /></g>    </g>
  </g>
  <g
     id="g9708"
     transform="matrix(0.62237983,0,0,0.62237983,-479.50105,196.96328)">
    <g
       word-spacing="normal"
       letter-spacing="normal"
       font-size-adjust="none"
       font-stretch="normal"
       font-weight="normal"
       font-variant="normal"
       font-style="normal"
       stroke-miterlimit="10.433"
       xml:space="preserve"
       transform="matrix(1.0928571,0,0,-1.0928571,-191.25,742.5)"
       id="g9710"
       style="font-style:normal;font-variant:normal;font-weight:normal;font-stretch:normal;letter-spacing:normal;word-spacing:normal;text-anchor:start;fill:none;fill-opacity:1;fill-rule:evenodd;stroke:#000000;stroke-linecap:butt;stroke-linejoin:miter;stroke-miterlimit:10.43299961;stroke-dasharray:none;stroke-dashoffset:0;stroke-opacity:1"><path
         id="path9712"
         d="m 965.49,334.04 0,0.03 0,0.03 -0.01,0.01 0,0.02 0,0.01 -0.01,0.02 0,0.02 -0.01,0.01 -0.01,0.02 -0.01,0.02 -0.01,0.03 -0.01,0.02 -0.02,0.02 -0.02,0.03 -0.02,0.03 -0.02,0.03 -0.03,0.03 -0.03,0.04 -0.01,0.02 -0.02,0.02 -0.02,0.02 -0.02,0.02 -0.02,0.02 -0.02,0.03 -0.02,0.02 -0.02,0.02 -0.02,0.03 -0.03,0.02 -0.02,0.03 -0.03,0.03 -0.02,0.03 -0.03,0.03 -0.03,0.03 -0.03,0.03 -0.03,0.03 -0.03,0.03 -0.04,0.04 -0.03,0.03 -0.04,0.04 -0.03,0.03 -0.04,0.04 -0.04,0.04 c -6.23,6.28 -7.82,15.69 -7.82,23.31 0,8.67 1.9,17.34 8.02,23.57 0.65,0.59 0.65,0.69 0.65,0.84 0,0.35 -0.2,0.5 -0.5,0.5 -0.5,0 -4.98,-3.39 -7.92,-9.72 -2.54,-5.47 -3.14,-11 -3.14,-15.19 0,-3.88 0.55,-9.91 3.29,-15.54 2.99,-6.12 7.27,-9.36 7.77,-9.36 0.3,0 0.5,0.15 0.5,0.49 z"
         inkscape:connector-curvature="0"
         style="fill:#000000;stroke-width:0" /><path
         id="path9714"
         d="m 985.49,334.04 0,0.03 0,0.03 -0.01,0.01 0,0.02 0,0.01 -0.01,0.02 0,0.02 -0.01,0.01 -0.01,0.02 -0.01,0.02 -0.01,0.03 -0.01,0.02 -0.02,0.02 -0.02,0.03 -0.02,0.03 -0.02,0.03 -0.03,0.03 -0.03,0.04 -0.01,0.02 -0.02,0.02 -0.02,0.02 -0.02,0.02 -0.02,0.02 -0.02,0.03 -0.02,0.02 -0.02,0.02 -0.02,0.03 -0.03,0.02 -0.02,0.03 -0.03,0.03 -0.02,0.03 -0.03,0.03 -0.03,0.03 -0.03,0.03 -0.03,0.03 -0.03,0.03 -0.04,0.04 -0.03,0.03 -0.04,0.04 -0.03,0.03 -0.04,0.04 -0.04,0.04 c -6.23,6.28 -7.82,15.69 -7.82,23.31 0,8.67 1.9,17.34 8.02,23.57 0.65,0.59 0.65,0.69 0.65,0.84 0,0.35 -0.2,0.5 -0.5,0.5 -0.5,0 -4.98,-3.39 -7.92,-9.72 -2.54,-5.47 -3.14,-11 -3.14,-15.19 0,-3.88 0.55,-9.91 3.29,-15.54 2.99,-6.12 7.27,-9.36 7.77,-9.36 0.3,0 0.5,0.15 0.5,0.49 z"
         inkscape:connector-curvature="0"
         style="fill:#000000;stroke-width:0" /><path
         id="path9716"
         d="m 991.78,371.41 -0.09,-0.05 -0.09,-0.05 -0.1,-0.05 -0.09,-0.05 -0.09,-0.06 -0.04,-0.03 -0.04,-0.03 -0.05,-0.03 -0.04,-0.03 -0.04,-0.03 -0.03,-0.04 -0.04,-0.03 -0.04,-0.04 -0.03,-0.03 -0.03,-0.04 -0.03,-0.04 -0.03,-0.04 -0.02,-0.04 -0.03,-0.05 -0.02,-0.04 -0.02,-0.05 -0.01,-0.04 -0.02,-0.05 -0.01,-0.05 -0.01,-0.05 0,-0.06 0,-0.05 c 0,-0.55 0.5,-1 0.99,-1 0.2,0 0.3,0 0.9,0.35 l 4.98,2.54 0,-24.16 -5.08,0 c -0.75,0 -1.79,0 -1.79,-0.99 0,-1 1.04,-1 1.79,-1 l 18.57,0 c 0.9,0 1.8,0 1.8,1 0,0.99 -0.9,0.99 -1.8,0.99 l -5.1,0 -2,0 -4.4,0 0,25.21 4.4,2.24 0,-27.45 2,0 0,28.3 c 0,0.89 0,1.79 -1,1.79 -0.2,0 -0.3,0 -0.9,-0.35 z"
         inkscape:connector-curvature="0"
         style="fill:#000000;stroke-width:0" /><path
         id="path9718"
         d="m 1047.4,357.46 13.9,0 c 0.7,0 1.6,0 1.6,0.99 0,1 -0.9,1 -1.6,1 l -13.9,0 0,13.95 c 0,0.69 0,1.64 -1,1.64 -1,0 -1,-0.95 -1,-1.64 l 0,-13.95 -14,0 c -0.7,0 -1.6,0 -1.6,-1 0,-0.99 0.9,-0.99 1.6,-0.99 l 14,0 0,-13.95 c 0,-0.7 0,-1.64 1,-1.64 1,0 1,0.94 1,1.64 z"
         inkscape:connector-curvature="0"
         style="fill:#000000;stroke-width:0" /><path
         id="path9720"
         d="m 1080.8,371.41 -0.1,-0.05 -0.1,-0.05 -0.1,-0.05 -0.1,-0.05 -0.1,-0.06 0,-0.03 -0.1,-0.03 0,-0.03 0,-0.03 -0.1,-0.03 0,-0.04 -0.1,-0.03 0,-0.04 0,-0.03 -0.1,-0.04 0,-0.04 0,-0.04 0,-0.04 -0.1,-0.05 0,-0.04 0,-0.05 0,-0.04 0,-0.05 0,-0.05 -0.1,-0.05 0,-0.06 0,-0.05 c 0,-0.55 0.5,-1 1,-1 0.2,0 0.3,0 0.9,0.35 l 5,2.54 0,-24.16 -5.1,0 c -0.7,0 -1.8,0 -1.8,-0.99 0,-1 1.1,-1 1.8,-1 l 18.6,0 c 0.9,0 1.8,0 1.8,1 0,0.99 -0.9,0.99 -1.8,0.99 l -5.1,0 -2,0 -4.4,0 0,25.21 4.4,2.24 0,-27.45 2,0 0,28.3 c 0,0.89 0,1.79 -1,1.79 -0.2,0 -0.3,0 -0.9,-0.35 z"
         inkscape:connector-curvature="0"
         style="fill:#000000;stroke-width:0" /><path
         id="path9722"
         d="m 1118.4,358.45 0,0.37 0,0.39 0,0.39 0,0.41 -0.1,0.84 0,0.88 -0.1,0.92 -0.1,0.94 -0.2,0.98 -0.1,1 -0.2,1.02 -0.2,1.04 -0.3,1.05 -0.3,1.06 -0.4,1.06 -0.4,1.07 -0.2,0.53 -0.2,0.54 -0.2,0.53 -0.3,0.53 c -3,6.12 -7.3,9.36 -7.8,9.36 -0.3,0 -0.5,-0.2 -0.5,-0.5 0,-0.15 0,-0.25 1,-1.15 4.9,-4.92 7.7,-12.85 7.7,-23.26 0,-8.52 -1.8,-17.28 -8,-23.56 -0.7,-0.6 -0.7,-0.69 -0.7,-0.85 0,-0.29 0.2,-0.49 0.5,-0.49 0.5,0 5,3.38 8,9.71 2.5,5.48 3.1,11.01 3.1,15.19 z"
         inkscape:connector-curvature="0"
         style="fill:#000000;stroke-width:0" /><path
         id="path9724"
         d="m 1154.4,359.85 -10,9.91 c -0.6,0.6 -0.7,0.7 -1.1,0.7 -0.5,0 -1,-0.45 -1,-1 0,-0.35 0.1,-0.45 0.7,-1 l 9.9,-10.01 -9.9,-10.01 c -0.6,-0.55 -0.7,-0.65 -0.7,-0.99 0,-0.55 0.5,-1 1,-1 0.4,0 0.5,0.1 1.1,0.69 l 9.9,9.92 10.3,-10.31 c 0.1,-0.05 0.5,-0.3 0.8,-0.3 0.6,0 1,0.45 1,1 0,0.09 0,0.29 -0.2,0.54 0,0.1 -7.9,7.92 -10.4,10.46 l 9.1,9.12 c 0.2,0.3 1,0.95 1.2,1.24 0.1,0.1 0.3,0.3 0.3,0.65 0,0.55 -0.4,1 -1,1 -0.4,0 -0.6,-0.2 -1.2,-0.75 z"
         inkscape:connector-curvature="0"
         style="fill:#000000;stroke-width:0" /><path
         id="path9726"
         d="m 1201.5,334.04 0,0.03 0,0.03 0,0.01 0,0.02 0,0.01 0,0.02 0,0.02 0,0.01 0,0.02 -0.1,0.02 0,0.03 0,0.02 0,0.02 0,0.03 0,0.03 -0.1,0.03 0,0.03 0,0.04 0,0.02 -0.1,0.02 0,0.02 0,0.02 0,0.02 0,0.03 0,0.02 -0.1,0.02 0,0.03 0,0.02 0,0.03 -0.1,0.03 0,0.03 0,0.03 0,0.03 -0.1,0.03 0,0.03 0,0.03 -0.1,0.04 0,0.03 0,0.04 -0.1,0.03 0,0.04 -0.1,0.04 c -6.2,6.28 -7.8,15.69 -7.8,23.31 0,8.67 1.9,17.34 8,23.57 0.7,0.59 0.7,0.69 0.7,0.84 0,0.35 -0.2,0.5 -0.5,0.5 -0.5,0 -5,-3.39 -7.9,-9.72 -2.6,-5.47 -3.2,-11 -3.2,-15.19 0,-3.88 0.6,-9.91 3.3,-15.54 3,-6.12 7.3,-9.36 7.8,-9.36 0.3,0 0.5,0.15 0.5,0.49 z"
         inkscape:connector-curvature="0"
         style="fill:#000000;stroke-width:0" /><path
         id="path9728"
         d="m 1207.8,371.41 -0.1,-0.05 -0.1,-0.05 -0.1,-0.05 -0.1,-0.05 -0.1,-0.06 0,-0.03 -0.1,-0.03 0,-0.03 0,-0.03 -0.1,-0.03 0,-0.04 -0.1,-0.03 0,-0.04 0,-0.03 -0.1,-0.04 0,-0.04 0,-0.04 0,-0.04 -0.1,-0.05 0,-0.04 0,-0.05 0,-0.04 0,-0.05 0,-0.05 -0.1,-0.05 0,-0.06 0,-0.05 c 0,-0.55 0.5,-1 1,-1 0.2,0 0.3,0 0.9,0.35 l 5,2.54 0,-24.16 -5.1,0 c -0.7,0 -1.8,0 -1.8,-0.99 0,-1 1.1,-1 1.8,-1 l 18.6,0 c 0.9,0 1.8,0 1.8,1 0,0.99 -0.9,0.99 -1.8,0.99 l -5.1,0 -2,0 -4.4,0 0,25.21 4.4,2.24 0,-27.45 2,0 0,28.3 c 0,0.89 0,1.79 -1,1.79 -0.2,0 -0.3,0 -0.9,-0.35 z"
         inkscape:connector-curvature="0"
         style="fill:#000000;stroke-width:0" /><path
         id="path9730"
         d="m 1263.4,357.46 13.9,0 c 0.7,0 1.6,0 1.6,0.99 0,1 -0.9,1 -1.6,1 l -13.9,0 0,13.95 c 0,0.69 0,1.64 -1,1.64 -1,0 -1,-0.95 -1,-1.64 l 0,-13.95 -14,0 c -0.7,0 -1.6,0 -1.6,-1 0,-0.99 0.9,-0.99 1.6,-0.99 l 14,0 0,-13.95 c 0,-0.7 0,-1.64 1,-1.64 1,0 1,0.94 1,1.64 z"
         inkscape:connector-curvature="0"
         style="fill:#000000;stroke-width:0" /><path
         id="path9732"
         d="m 1295.8,371.41 -0.1,-0.05 -0.1,-0.05 -0.1,-0.05 -0.1,-0.05 -0.1,-0.06 0,-0.03 -0.1,-0.03 0,-0.03 0,-0.03 -0.1,-0.03 0,-0.04 -0.1,-0.03 0,-0.04 0,-0.03 -0.1,-0.04 0,-0.04 0,-0.04 0,-0.04 -0.1,-0.05 0,-0.04 0,-0.05 0,-0.04 0,-0.05 0,-0.05 -0.1,-0.05 0,-0.06 0,-0.05 c 0,-0.55 0.5,-1 1,-1 0.2,0 0.3,0 0.9,0.35 l 5,2.54 0,-24.16 -5.1,0 c -0.7,0 -1.8,0 -1.8,-0.99 0,-1 1.1,-1 1.8,-1 l 18.6,0 c 0.9,0 1.8,0 1.8,1 0,0.99 -0.9,0.99 -1.8,0.99 l -5.1,0 -2,0 -4.4,0 0,25.21 4.4,2.24 0,-27.45 2,0 0,28.3 c 0,0.89 0,1.79 -1,1.79 -0.2,0 -0.3,0 -0.9,-0.35 z"
         inkscape:connector-curvature="0"
         style="fill:#000000;stroke-width:0" /><path
         id="path9734"
         d="m 1334.4,358.45 0,0.37 0,0.39 0,0.39 0,0.41 -0.1,0.84 0,0.88 -0.1,0.92 -0.1,0.94 -0.2,0.98 -0.1,1 -0.2,1.02 -0.2,1.04 -0.3,1.05 -0.3,1.06 -0.4,1.06 -0.4,1.07 -0.2,0.53 -0.2,0.54 -0.2,0.53 -0.3,0.53 c -3,6.12 -7.3,9.36 -7.8,9.36 -0.3,0 -0.5,-0.2 -0.5,-0.5 0,-0.15 0,-0.25 1,-1.15 4.9,-4.92 7.7,-12.85 7.7,-23.26 0,-8.52 -1.8,-17.28 -8,-23.56 -0.7,-0.6 -0.7,-0.69 -0.7,-0.85 0,-0.29 0.2,-0.49 0.5,-0.49 0.5,0 5,3.38 8,9.71 2.5,5.48 3.1,11.01 3.1,15.19 z"
         inkscape:connector-curvature="0"
         style="fill:#000000;stroke-width:0" /><path
         id="path9736"
         d="m 1350.1,346.05 0,0.31 0,0.29 0,0.29 0,0.28 -0.1,0.27 0,0.26 -0.1,0.26 0,0.24 -0.1,0.24 0,0.23 -0.1,0.22 -0.1,0.21 -0.1,0.2 -0.1,0.19 -0.1,0.18 -0.1,0.18 -0.1,0.16 -0.1,0.15 -0.1,0.15 -0.1,0.13 -0.1,0.13 -0.2,0.11 -0.1,0.1 -0.2,0.1 -0.1,0.08 -0.2,0.07 -0.1,0.06 -0.2,0.05 -0.1,0.04 -0.2,0.03 -0.2,0.02 -0.2,0 c -1.6,0 -2.6,-1.24 -2.6,-2.64 0,-1.34 1,-2.64 2.6,-2.64 0.6,0 1.3,0.2 1.8,0.65 0.1,0.1 0.2,0.15 0.2,0.15 0.1,0 0.1,-0.05 0.1,-0.75 0,-3.69 -1.7,-6.67 -3.4,-8.32 -0.5,-0.55 -0.5,-0.65 -0.5,-0.8 0,-0.34 0.2,-0.54 0.5,-0.54 0.5,0 4.5,3.83 4.5,9.66 z"
         inkscape:connector-curvature="0"
         style="fill:#000000;stroke-width:0" /><path
         id="path9738"
         d="m 1376.6,354.22 0,-4.33 c 0,-1.8 0,-2.35 -3.7,-2.35 l -1.1,0 0,-1.54 13.5,0 0,1.54 -1,0 c -3.7,0 -3.8,0.55 -3.8,2.35 l 0,4.33 5,0 0,1.54 -5,0 0,22.67 c 0,1 0,1.29 -0.8,1.29 -0.5,0 -0.6,0 -1,-0.6 l -15.3,-23.36 1.4,0 12.1,18.58 0,-18.58 -12.1,0 -1.4,0 0,-1.54 z"
         inkscape:connector-curvature="0"
         style="fill:#000000;stroke-width:0" /><path
         id="path9740"
         d="m 1397.1,346.05 0,0.31 0,0.29 0,0.29 0,0.28 -0.1,0.27 0,0.26 -0.1,0.26 0,0.24 -0.1,0.24 0,0.23 -0.1,0.22 -0.1,0.21 -0.1,0.2 -0.1,0.19 -0.1,0.18 -0.1,0.18 -0.1,0.16 -0.1,0.15 -0.1,0.15 -0.1,0.13 -0.1,0.13 -0.2,0.11 -0.1,0.1 -0.2,0.1 -0.1,0.08 -0.2,0.07 -0.1,0.06 -0.2,0.05 -0.1,0.04 -0.2,0.03 -0.2,0.02 -0.2,0 c -1.6,0 -2.6,-1.24 -2.6,-2.64 0,-1.34 1,-2.64 2.6,-2.64 0.6,0 1.3,0.2 1.8,0.65 0.1,0.1 0.2,0.15 0.2,0.15 0.1,0 0.1,-0.05 0.1,-0.75 0,-3.69 -1.7,-6.67 -3.4,-8.32 -0.5,-0.55 -0.5,-0.65 -0.5,-0.8 0,-0.34 0.2,-0.54 0.5,-0.54 0.5,0 4.5,3.83 4.5,9.66 z"
         inkscape:connector-curvature="0"
         style="fill:#000000;stroke-width:0" /><path
         id="path9742"
         d="m 1416.9,381.57 0,0.16 0,0.17 0,0.17 0,0.08 0,0.08 0,0.07 0,0.08 0,0.08 0,0.07 0,0.07 -0.1,0.07 0,0.07 0,0.06 0,0.06 -0.1,0.06 0,0.06 0,0.05 -0.1,0.05 0,0.04 0,0.05 -0.1,0.04 -0.1,0.03 0,0.02 0,0.01 0,0.01 -0.1,0.02 0,0.01 0,0.01 -0.1,0.01 0,0.01 -0.1,0 0,0.01 0,0 -0.1,0.01 0,0 -0.1,0 c -1,0 -1,-0.9 -1,-1.79 l 0,-46.23 c 0,-0.89 0,-1.79 1,-1.79 1,0 1,0.9 1,1.79 z"
         inkscape:connector-curvature="0"
         style="fill:#000000;stroke-width:0" /><path
         id="path9744"
         d="m 1438.2,339.92 0,-0.15 0,-0.15 -0.1,-0.14 0,-0.13 0,-0.13 -0.1,-0.11 0,-0.12 0,-0.1 -0.1,-0.1 0,-0.09 -0.1,-0.09 0,-0.08 -0.1,-0.07 0,-0.07 -0.1,-0.07 0,-0.05 -0.1,-0.06 -0.1,-0.05 -0.1,-0.04 0,-0.04 -0.1,-0.04 -0.1,-0.03 -0.1,-0.03 -0.2,-0.02 -0.1,-0.02 -0.1,-0.02 -0.1,0 -0.1,-0.01 0,-0.01 -0.1,0 -0.1,-0.01 -0.1,0 -0.1,0 -0.1,-0.01 -0.1,0 -0.1,0 0,0 -0.1,0 c -0.7,0 -1.2,0 -1.2,-0.95 0,-0.39 0.3,-0.59 0.7,-0.59 l 9.1,0 c 0.2,0 0.9,0 0.9,0.99 0,0.55 -0.5,0.55 -1.2,0.55 -2.5,0 -2.5,0.35 -2.5,0.8 0,0.59 2.1,8.71 2.4,9.96 0.7,-1.44 2.1,-3.19 4.6,-3.19 l 0,1.1 c -3.3,0 -4,4.13 -4,4.43 0,0.1 0,0.2 0.2,0.8 l 2.4,9.76 c 0.4,1.35 1.7,2.74 2.6,3.49 1.7,1.54 3.2,1.89 4,1.89 2,0 3.2,-1.74 3.2,-4.68 0,-2.94 -1.6,-8.67 -2.5,-10.56 -1.7,-3.49 -4.1,-5.13 -5.9,-5.13 l 0,-1.1 c 5.8,0 12,7.28 12,14.6 0,4.68 -2.8,7.97 -6.6,7.97 -2.5,0 -4.9,-1.8 -6.5,-3.74 -0.5,2.69 -2.7,3.74 -4.5,3.74 -2.3,0 -3.3,-1.95 -3.7,-2.84 -0.9,-1.7 -1.6,-4.68 -1.6,-4.83 0,-0.5 0.5,-0.5 0.6,-0.5 0.5,0 0.6,0.05 0.9,1.14 0.8,3.54 1.8,5.93 3.6,5.93 0.9,0 1.6,-0.4 1.6,-2.29 0,-1.15 -0.2,-1.69 -0.4,-2.54 z"
         inkscape:connector-curvature="0"
         style="fill:#000000;stroke-width:0" /><path
         id="path9746"
         d="m 1470.5,350.64 0.3,0 0.2,-0.02 0.3,-0.02 0.2,-0.04 0.2,-0.05 0.3,-0.06 0.2,-0.07 0.2,-0.09 0.2,-0.09 0.2,-0.11 0.2,-0.11 0.2,-0.13 0.2,-0.13 0.1,-0.15 0.2,-0.16 0.2,-0.17 0.1,-0.18 0.2,-0.2 0.1,-0.2 0.1,-0.21 0.1,-0.23 0.2,-0.23 0.1,-0.25 0,-0.26 0.1,-0.27 0.1,-0.28 0.1,-0.29 0,-0.3 0,-0.31 0.1,-0.32 0,-0.33 0,-0.35 c 0,-4.32 -2.5,-5.61 -4.5,-5.61 -1.4,0 -4.5,0.38 -6,2.44 1.7,0.07 2.1,1.22 2.1,1.95 0,1.12 -0.9,1.92 -2,1.92 -0.9,0 -1.9,-0.59 -1.9,-2.02 0,-3.28 3.6,-5.41 7.8,-5.41 4.9,0 8.2,3.25 8.2,6.73 0,2.72 -2.2,5.44 -6,6.24 3.6,1.33 4.9,3.94 4.9,6.07 0,2.76 -3.1,4.81 -7,4.81 -3.9,0 -6.8,-1.88 -6.8,-4.67 0,-1.18 0.7,-1.85 1.8,-1.85 1.1,0 1.8,0.8 1.8,1.78 0,1.01 -0.7,1.75 -1.8,1.81 1.2,1.54 3.6,1.92 4.9,1.92 1.6,0 3.8,-0.76 3.8,-3.8 0,-1.46 -0.5,-3.07 -1.4,-4.15 -1.2,-1.32 -2.2,-1.39 -3.9,-1.5 -0.9,-0.07 -1,-0.07 -1.1,-0.1 -0.1,0 -0.4,-0.07 -0.4,-0.46 0,-0.49 0.3,-0.49 0.9,-0.49 z"
         inkscape:connector-curvature="0"
         style="fill:#000000;stroke-width:0" /><path
         id="path9748"
         d="m 1505.9,381.57 0,0.16 0,0.17 0,0.17 0,0.08 0,0.08 0,0.07 0,0.08 0,0.08 0,0.07 0,0.07 -0.1,0.07 0,0.07 0,0.06 0,0.06 -0.1,0.06 0,0.06 0,0.05 -0.1,0.05 0,0.04 0,0.05 -0.1,0.04 -0.1,0.03 0,0.02 0,0.01 0,0.01 -0.1,0.02 0,0.01 0,0.01 -0.1,0.01 0,0.01 -0.1,0 0,0.01 0,0 -0.1,0.01 0,0 -0.1,0 c -1,0 -1,-0.9 -1,-1.79 l 0,-46.23 c 0,-0.89 0,-1.79 1,-1.79 1,0 1,0.9 1,1.79 z"
         inkscape:connector-curvature="0"
         style="fill:#000000;stroke-width:0" /><path
         id="path9750"
         d="m 1526.4,358.45 0,0.37 0,0.39 0,0.39 0,0.41 -0.1,0.84 0,0.88 -0.1,0.92 -0.1,0.94 -0.2,0.98 -0.1,1 -0.2,1.02 -0.2,1.04 -0.3,1.05 -0.3,1.06 -0.4,1.06 -0.4,1.07 -0.2,0.53 -0.2,0.54 -0.2,0.53 -0.3,0.53 c -3,6.12 -7.3,9.36 -7.8,9.36 -0.3,0 -0.5,-0.2 -0.5,-0.5 0,-0.15 0,-0.25 1,-1.15 4.9,-4.92 7.7,-12.85 7.7,-23.26 0,-8.52 -1.8,-17.28 -8,-23.56 -0.7,-0.6 -0.7,-0.69 -0.7,-0.85 0,-0.29 0.2,-0.49 0.5,-0.49 0.5,0 5,3.38 8,9.71 2.5,5.48 3.1,11.01 3.1,15.19 z"
         inkscape:connector-curvature="0"
         style="fill:#000000;stroke-width:0" /></g>  </g>
  <g
     id="g5326"
     transform="matrix(0.59330688,0,0,0.59330688,-445.15215,299.7773)">
    <g
       word-spacing="normal"
       letter-spacing="normal"
       font-size-adjust="none"
       font-stretch="normal"
       font-weight="normal"
       font-variant="normal"
       font-style="normal"
       stroke-miterlimit="10.433"
       xml:space="preserve"
       transform="matrix(1.0928571,0,0,-1.0928571,-191.25,742.5)"
       id="g5328"
       style="font-style:normal;font-variant:normal;font-weight:normal;font-stretch:normal;letter-spacing:normal;word-spacing:normal;text-anchor:start;fill:none;fill-opacity:1;fill-rule:evenodd;stroke:#000000;stroke-linecap:butt;stroke-linejoin:miter;stroke-miterlimit:10.43299961;stroke-dasharray:none;stroke-dashoffset:0;stroke-opacity:1"><path
         id="path5330"
         d="m 955.49,334.04 0,0.03 0,0.03 -0.01,0.01 0,0.02 0,0.01 -0.01,0.02 0,0.02 -0.01,0.01 -0.01,0.02 -0.01,0.02 -0.01,0.03 -0.01,0.02 -0.02,0.02 -0.02,0.03 -0.02,0.03 -0.02,0.03 -0.03,0.03 -0.03,0.04 -0.01,0.02 -0.02,0.02 -0.02,0.02 -0.02,0.02 -0.02,0.02 -0.02,0.03 -0.02,0.02 -0.02,0.02 -0.02,0.03 -0.03,0.02 -0.02,0.03 -0.03,0.03 -0.02,0.03 -0.03,0.03 -0.03,0.03 -0.03,0.03 -0.03,0.03 -0.03,0.03 -0.04,0.04 -0.03,0.03 -0.04,0.04 -0.03,0.03 -0.04,0.04 -0.04,0.04 c -6.23,6.28 -7.82,15.69 -7.82,23.31 0,8.67 1.9,17.34 8.02,23.57 0.65,0.59 0.65,0.69 0.65,0.84 0,0.35 -0.2,0.5 -0.5,0.5 -0.5,0 -4.98,-3.39 -7.92,-9.72 -2.54,-5.47 -3.14,-11 -3.14,-15.19 0,-3.88 0.55,-9.91 3.29,-15.54 2.99,-6.12 7.27,-9.36 7.77,-9.36 0.3,0 0.5,0.15 0.5,0.49 z"
         inkscape:connector-curvature="0"
         style="fill:#000000;stroke-width:0" /><path
         id="path5332"
         d="m 961.78,371.41 -0.09,-0.05 -0.09,-0.05 -0.1,-0.05 -0.09,-0.05 -0.09,-0.06 -0.04,-0.03 -0.04,-0.03 -0.05,-0.03 -0.04,-0.03 -0.04,-0.03 -0.03,-0.04 -0.04,-0.03 -0.04,-0.04 -0.03,-0.03 -0.03,-0.04 -0.03,-0.04 -0.03,-0.04 -0.02,-0.04 -0.03,-0.05 -0.02,-0.04 -0.02,-0.05 -0.01,-0.04 -0.02,-0.05 -0.01,-0.05 -0.01,-0.05 0,-0.06 0,-0.05 c 0,-0.55 0.5,-1 0.99,-1 0.2,0 0.3,0 0.9,0.35 l 4.98,2.54 0,-24.16 1.99,0 0,25.21 4.39,2.24 0,-27.45 -4.39,0 -1.99,0 -5.08,0 c -0.75,0 -1.79,0 -1.79,-0.99 0,-1 1.04,-1 1.79,-1 l 18.58,0 c 0.85,0 1.74,0 1.74,1 0,0.99 -0.89,0.99 -1.74,0.99 l -5.13,0 0,28.3 c 0,0.89 0,1.79 -1,1.79 -0.14,0 -0.24,0 -0.84,-0.35 z"
         inkscape:connector-curvature="0"
         style="fill:#000000;stroke-width:0" /><path
         id="path5334"
         d="m 1017.4,357.46 13.9,0 c 0.7,0 1.6,0 1.6,0.99 0,1 -0.9,1 -1.6,1 l -13.9,0 0,13.95 c 0,0.69 0,1.64 -1,1.64 -1,0 -1,-0.95 -1,-1.64 l 0,-13.95 -14,0 c -0.7,0 -1.61,0 -1.61,-1 0,-0.99 0.91,-0.99 1.61,-0.99 l 14,0 0,-13.95 c 0,-0.7 0,-1.64 1,-1.64 1,0 1,0.94 1,1.64 z"
         inkscape:connector-curvature="0"
         style="fill:#000000;stroke-width:0" /><path
         id="path5336"
         d="m 1049.8,371.41 -0.1,-0.05 -0.1,-0.05 -0.1,-0.05 -0.1,-0.05 -0.1,-0.06 0,-0.03 -0.1,-0.03 0,-0.03 0,-0.03 -0.1,-0.03 0,-0.04 -0.1,-0.03 0,-0.04 0,-0.03 -0.1,-0.04 0,-0.04 0,-0.04 0,-0.04 -0.1,-0.05 0,-0.04 0,-0.05 0,-0.04 0,-0.05 0,-0.05 -0.1,-0.05 0,-0.06 0,-0.05 c 0,-0.55 0.5,-1 1,-1 0.2,0 0.3,0 0.9,0.35 l 5,2.54 0,-24.16 -5.1,0 c -0.7,0 -1.8,0 -1.8,-0.99 0,-1 1.1,-1 1.8,-1 l 18.6,0 c 0.9,0 1.8,0 1.8,1 0,0.99 -0.9,0.99 -1.8,0.99 l -5.1,0 -2,0 -4.4,0 0,25.21 4.4,2.24 0,-27.45 2,0 0,28.3 c 0,0.89 0,1.79 -1,1.79 -0.2,0 -0.3,0 -0.9,-0.35 z"
         inkscape:connector-curvature="0"
         style="fill:#000000;stroke-width:0" /><path
         id="path5338"
         d="m 1105.4,357.46 13.9,0 c 0.7,0 1.6,0 1.6,0.99 0,1 -0.9,1 -1.6,1 l -13.9,0 0,13.95 c 0,0.69 0,1.64 -1,1.64 -1,0 -1,-0.95 -1,-1.64 l 0,-13.95 -14,0 c -0.7,0 -1.6,0 -1.6,-1 0,-0.99 0.9,-0.99 1.6,-0.99 l 14,0 0,-13.95 c 0,-0.7 0,-1.64 1,-1.64 1,0 1,0.94 1,1.64 z"
         inkscape:connector-curvature="0"
         style="fill:#000000;stroke-width:0" /><path
         id="path5340"
         d="m 1138.8,371.41 -0.1,-0.05 -0.1,-0.05 -0.1,-0.05 -0.1,-0.05 -0.1,-0.06 0,-0.03 -0.1,-0.03 0,-0.03 0,-0.03 -0.1,-0.03 0,-0.04 -0.1,-0.03 0,-0.04 0,-0.03 -0.1,-0.04 0,-0.04 0,-0.04 0,-0.04 -0.1,-0.05 0,-0.04 0,-0.05 0,-0.04 0,-0.05 0,-0.05 -0.1,-0.05 0,-0.06 0,-0.05 c 0,-0.55 0.5,-1 1,-1 0.2,0 0.3,0 0.9,0.35 l 5,2.54 0,-24.16 -5.1,0 c -0.7,0 -1.8,0 -1.8,-0.99 0,-1 1.1,-1 1.8,-1 l 18.6,0 c 0.9,0 1.8,0 1.8,1 0,0.99 -0.9,0.99 -1.8,0.99 l -5.1,0 -2,0 -4.4,0 0,25.21 4.4,2.24 0,-27.45 2,0 0,28.3 c 0,0.89 0,1.79 -1,1.79 -0.2,0 -0.3,0 -0.9,-0.35 z"
         inkscape:connector-curvature="0"
         style="fill:#000000;stroke-width:0" /><path
         id="path5342"
         d="m 1194.4,357.46 13.9,0 c 0.7,0 1.6,0 1.6,0.99 0,1 -0.9,1 -1.6,1 l -13.9,0 0,13.95 c 0,0.69 0,1.64 -1,1.64 -1,0 -1,-0.95 -1,-1.64 l 0,-13.95 -14,0 c -0.7,0 -1.6,0 -1.6,-1 0,-0.99 0.9,-0.99 1.6,-0.99 l 14,0 0,-13.95 c 0,-0.7 0,-1.64 1,-1.64 1,0 1,0.94 1,1.64 z"
         inkscape:connector-curvature="0"
         style="fill:#000000;stroke-width:0" /><path
         id="path5344"
         d="m 1227.8,371.41 -0.1,-0.05 -0.1,-0.05 -0.1,-0.05 -0.1,-0.05 -0.1,-0.06 0,-0.03 -0.1,-0.03 0,-0.03 0,-0.03 -0.1,-0.03 0,-0.04 -0.1,-0.03 0,-0.04 0,-0.03 -0.1,-0.04 0,-0.04 0,-0.04 0,-0.04 -0.1,-0.05 0,-0.04 0,-0.05 0,-0.04 0,-0.05 0,-0.05 -0.1,-0.05 0,-0.06 0,-0.05 c 0,-0.55 0.5,-1 1,-1 0.2,0 0.3,0 0.9,0.35 l 5,2.54 0,-24.16 -5.1,0 c -0.7,0 -1.8,0 -1.8,-0.99 0,-1 1.1,-1 1.8,-1 l 18.6,0 c 0.9,0 1.8,0 1.8,1 0,0.99 -0.9,0.99 -1.8,0.99 l -5.1,0 -2,0 -4.4,0 0,25.21 4.4,2.24 0,-27.45 2,0 0,28.3 c 0,0.89 0,1.79 -1,1.79 -0.2,0 -0.3,0 -0.9,-0.35 z"
         inkscape:connector-curvature="0"
         style="fill:#000000;stroke-width:0" /><path
         id="path5346"
         d="m 1282.4,357.46 13.9,0 c 0.7,0 1.6,0 1.6,0.99 0,1 -0.9,1 -1.6,1 l -13.9,0 0,13.95 c 0,0.69 0,1.64 -1,1.64 -1,0 -1,-0.95 -1,-1.64 l 0,-13.95 -14,0 c -0.7,0 -1.6,0 -1.6,-1 0,-0.99 0.9,-0.99 1.6,-0.99 l 14,0 0,-13.95 c 0,-0.7 0,-1.64 1,-1.64 1,0 1,0.94 1,1.64 z"
         inkscape:connector-curvature="0"
         style="fill:#000000;stroke-width:0" /><path
         id="path5348"
         d="m 1336.9,362.04 -0.1,0.84 0,0.84 0,0.83 -0.1,0.81 -0.1,0.81 -0.1,0.8 -0.2,0.78 -0.1,0.77 -0.2,0.75 -0.2,0.74 -0.2,0.72 -0.3,0.69 -0.3,0.68 -0.3,0.65 -0.3,0.63 -0.3,0.61 -0.4,0.58 -0.3,0.55 -0.4,0.52 -0.5,0.49 -0.4,0.46 -0.5,0.43 -0.5,0.39 -0.5,0.36 -0.5,0.32 -0.5,0.28 -0.6,0.24 -0.6,0.2 -0.6,0.16 -0.7,0.11 -0.6,0.07 -0.7,0.03 0,-2 c 6.7,0 9.1,-8.47 9.1,-15.14 0,-6.72 -2.4,-15.14 -9.1,-15.14 -1.4,0 -2.6,0.44 -2.7,0.49 l 0,29.29 c 0.1,0.05 1.3,0.5 2.7,0.5 l 0,2 c -7.4,0 -11.1,-8.17 -11.1,-17.14 l 2,0 c 0,4.03 0.9,10.16 4.4,13.35 l 0,-26.7 c -3.6,3.24 -4.4,9.56 -4.4,13.35 l -2,0 c 0,-9.02 3.7,-17.14 11.1,-17.14 7.4,0 11.1,8.17 11.1,17.14 z"
         inkscape:connector-curvature="0"
         style="fill:#000000;stroke-width:0" /><path
         id="path5350"
         d="m 1350.1,346.05 0,0.31 0,0.29 0,0.29 0,0.28 -0.1,0.27 0,0.26 -0.1,0.26 0,0.24 -0.1,0.24 0,0.23 -0.1,0.22 -0.1,0.21 -0.1,0.2 -0.1,0.19 -0.1,0.18 -0.1,0.18 -0.1,0.16 -0.1,0.15 -0.1,0.15 -0.1,0.13 -0.1,0.13 -0.2,0.11 -0.1,0.1 -0.2,0.1 -0.1,0.08 -0.2,0.07 -0.1,0.06 -0.2,0.05 -0.1,0.04 -0.2,0.03 -0.2,0.02 -0.2,0 c -1.6,0 -2.6,-1.24 -2.6,-2.64 0,-1.34 1,-2.64 2.6,-2.64 0.6,0 1.3,0.2 1.8,0.65 0.1,0.1 0.2,0.15 0.2,0.15 0.1,0 0.1,-0.05 0.1,-0.75 0,-3.69 -1.7,-6.67 -3.4,-8.32 -0.5,-0.55 -0.5,-0.65 -0.5,-0.8 0,-0.34 0.2,-0.54 0.5,-0.54 0.5,0 4.5,3.83 4.5,9.66 z"
         inkscape:connector-curvature="0"
         style="fill:#000000;stroke-width:0" /><path
         id="path5352"
         d="m 1376.6,354.22 0,-4.33 c 0,-1.8 0,-2.35 -3.7,-2.35 l -1.1,0 0,-1.54 13.5,0 0,1.54 -1,0 c -3.7,0 -3.8,0.55 -3.8,2.35 l 0,4.33 5,0 0,1.54 -5,0 0,22.67 c 0,1 0,1.29 -0.8,1.29 -0.5,0 -0.6,0 -1,-0.6 l -15.3,-23.36 1.4,0 12.1,18.58 0,-18.58 -12.1,0 -1.4,0 0,-1.54 z"
         inkscape:connector-curvature="0"
         style="fill:#000000;stroke-width:0" /><path
         id="path5354"
         d="m 1397.1,346.05 0,0.31 0,0.29 0,0.29 0,0.28 -0.1,0.27 0,0.26 -0.1,0.26 0,0.24 -0.1,0.24 0,0.23 -0.1,0.22 -0.1,0.21 -0.1,0.2 -0.1,0.19 -0.1,0.18 -0.1,0.18 -0.1,0.16 -0.1,0.15 -0.1,0.15 -0.1,0.13 -0.1,0.13 -0.2,0.11 -0.1,0.1 -0.2,0.1 -0.1,0.08 -0.2,0.07 -0.1,0.06 -0.2,0.05 -0.1,0.04 -0.2,0.03 -0.2,0.02 -0.2,0 c -1.6,0 -2.6,-1.24 -2.6,-2.64 0,-1.34 1,-2.64 2.6,-2.64 0.6,0 1.3,0.2 1.8,0.65 0.1,0.1 0.2,0.15 0.2,0.15 0.1,0 0.1,-0.05 0.1,-0.75 0,-3.69 -1.7,-6.67 -3.4,-8.32 -0.5,-0.55 -0.5,-0.65 -0.5,-0.8 0,-0.34 0.2,-0.54 0.5,-0.54 0.5,0 4.5,3.83 4.5,9.66 z"
         inkscape:connector-curvature="0"
         style="fill:#000000;stroke-width:0" /><path
         id="path5356"
         d="m 1416.9,381.57 0,0.16 0,0.17 0,0.17 0,0.08 0,0.08 0,0.07 0,0.08 0,0.08 0,0.07 0,0.07 -0.1,0.07 0,0.07 0,0.06 0,0.06 -0.1,0.06 0,0.06 0,0.05 -0.1,0.05 0,0.04 0,0.05 -0.1,0.04 -0.1,0.03 0,0.02 0,0.01 0,0.01 -0.1,0.02 0,0.01 0,0.01 -0.1,0.01 0,0.01 -0.1,0 0,0.01 0,0 -0.1,0.01 0,0 -0.1,0 c -1,0 -1,-0.9 -1,-1.79 l 0,-46.23 c 0,-0.89 0,-1.79 1,-1.79 1,0 1,0.9 1,1.79 z"
         inkscape:connector-curvature="0"
         style="fill:#000000;stroke-width:0" /><path
         id="path5358"
         d="m 1446.6,348.64 0,0.14 -0.1,0.13 0,0.13 0,0.13 0,0.13 -0.1,0.12 0,0.12 0,0.12 -0.1,0.12 -0.1,0.11 0,0.11 -0.1,0.11 -0.1,0.1 0,0.1 -0.1,0.1 -0.1,0.09 -0.1,0.09 -0.1,0.08 -0.1,0.08 -0.1,0.08 -0.1,0.07 -0.1,0.06 -0.1,0.06 -0.2,0.05 -0.1,0.05 -0.1,0.04 -0.1,0.04 -0.1,0.03 -0.2,0.02 -0.1,0.02 -0.1,0.01 -0.2,0 c -1.4,0 -2.6,-1.19 -2.6,-2.64 0,-1.44 1.2,-2.64 2.6,-2.64 1.5,0 2.7,1.2 2.7,2.64 z"
         inkscape:connector-curvature="0"
         style="fill:#000000;stroke-width:0" /><path
         id="path5360"
         d="m 1468.6,348.64 0,0.14 -0.1,0.13 0,0.13 0,0.13 0,0.13 -0.1,0.12 0,0.12 0,0.12 -0.1,0.12 -0.1,0.11 0,0.11 -0.1,0.11 -0.1,0.1 0,0.1 -0.1,0.1 -0.1,0.09 -0.1,0.09 -0.1,0.08 -0.1,0.08 -0.1,0.08 -0.1,0.07 -0.1,0.06 -0.1,0.06 -0.2,0.05 -0.1,0.05 -0.1,0.04 -0.1,0.04 -0.1,0.03 -0.2,0.02 -0.1,0.02 -0.1,0.01 -0.2,0 c -1.4,0 -2.6,-1.19 -2.6,-2.64 0,-1.44 1.2,-2.64 2.6,-2.64 1.5,0 2.7,1.2 2.7,2.64 z"
         inkscape:connector-curvature="0"
         style="fill:#000000;stroke-width:0" /><path
         id="path5362"
         d="m 1490.6,348.64 0,0.14 -0.1,0.13 0,0.13 0,0.13 0,0.13 -0.1,0.12 0,0.12 0,0.12 -0.1,0.12 -0.1,0.11 0,0.11 -0.1,0.11 -0.1,0.1 0,0.1 -0.1,0.1 -0.1,0.09 -0.1,0.09 -0.1,0.08 -0.1,0.08 -0.1,0.08 -0.1,0.07 -0.1,0.06 -0.1,0.06 -0.2,0.05 -0.1,0.05 -0.1,0.04 -0.1,0.04 -0.1,0.03 -0.2,0.02 -0.1,0.02 -0.1,0.01 -0.2,0 c -1.4,0 -2.6,-1.19 -2.6,-2.64 0,-1.44 1.2,-2.64 2.6,-2.64 1.5,0 2.7,1.2 2.7,2.64 z"
         inkscape:connector-curvature="0"
         style="fill:#000000;stroke-width:0" /><path
         id="path5364"
         d="m 1515.9,381.57 0,0.16 0,0.17 0,0.17 0,0.08 0,0.08 0,0.07 0,0.08 0,0.08 0,0.07 0,0.07 -0.1,0.07 0,0.07 0,0.06 0,0.06 -0.1,0.06 0,0.06 0,0.05 -0.1,0.05 0,0.04 0,0.05 -0.1,0.04 -0.1,0.03 0,0.02 0,0.01 0,0.01 -0.1,0.02 0,0.01 0,0.01 -0.1,0.01 0,0.01 -0.1,0 0,0.01 0,0 -0.1,0.01 0,0 -0.1,0 c -1,0 -1,-0.9 -1,-1.79 l 0,-46.23 c 0,-0.89 0,-1.79 1,-1.79 1,0 1,0.9 1,1.79 z"
         inkscape:connector-curvature="0"
         style="fill:#000000;stroke-width:0" /><path
         id="path5366"
         d="m 1536.4,358.45 0,0.37 0,0.39 0,0.39 0,0.41 -0.1,0.84 0,0.88 -0.1,0.92 -0.1,0.94 -0.2,0.98 -0.1,1 -0.2,1.02 -0.2,1.04 -0.3,1.05 -0.3,1.06 -0.4,1.06 -0.4,1.07 -0.2,0.53 -0.2,0.54 -0.2,0.53 -0.3,0.53 c -3,6.12 -7.3,9.36 -7.8,9.36 -0.3,0 -0.5,-0.2 -0.5,-0.5 0,-0.15 0,-0.25 1,-1.15 4.9,-4.92 7.7,-12.85 7.7,-23.26 0,-8.52 -1.8,-17.28 -8,-23.56 -0.7,-0.6 -0.7,-0.69 -0.7,-0.85 0,-0.29 0.2,-0.49 0.5,-0.49 0.5,0 5,3.38 8,9.71 2.5,5.48 3.1,11.01 3.1,15.19 z"
         inkscape:connector-curvature="0"
         style="fill:#000000;stroke-width:0" /></g>  </g>
  <path
     style="fill:none;fill-rule:evenodd;stroke:#0000d1;stroke-width:1px;stroke-linecap:butt;stroke-linejoin:miter;stroke-opacity:1;marker-end:url(#marker6637)"
     d="M 576.79711,414.47707 C 441.43666,489.22835 441.43666,490.23851 441.43666,490.23851"
     id="path5499"
     inkscape:connector-curvature="0" />
  <g
     transform="matrix(0.54609478,0,0,0.54609478,555.43887,77.159907)"
     id="g15403">
    <g
       style="font-style:normal;font-variant:normal;font-weight:normal;font-stretch:normal;letter-spacing:normal;word-spacing:normal;text-anchor:start;fill:none;fill-opacity:1;fill-rule:evenodd;stroke:#000000;stroke-linecap:butt;stroke-linejoin:miter;stroke-miterlimit:10.43299961;stroke-dasharray:none;stroke-dashoffset:0;stroke-opacity:1"
       id="g15405"
       transform="matrix(1.0928571,0,0,-1.0928571,-191.25,1012.5)"
       xml:space="preserve"
       stroke-miterlimit="10.433"
       font-style="normal"
       font-variant="normal"
       font-weight="normal"
       font-stretch="normal"
       font-size-adjust="none"
       letter-spacing="normal"
       word-spacing="normal"><path
         style="fill:#000000;stroke-width:0"
         inkscape:connector-curvature="0"
         d="m 1057.2,362.29 0.2,0 0.1,0 0.2,0.01 0,0 0.1,0 0.1,0.01 0,0.01 0.1,0.01 0.1,0.01 0.1,0.02 0,0.01 0.1,0.02 0,0.02 0.1,0.03 0.1,0.03 0,0.03 0.1,0.03 0,0.04 0.1,0.04 0,0.05 0.1,0.05 0,0.03 0,0.02 0,0.03 0,0.03 0,0.03 0,0.04 0.1,0.03 0,0.04 0,0.03 0,0.04 0,0.04 0,0.04 0,0.04 0,0.04 0,0.05 0,0.05 c 0,0.99 -0.9,0.99 -1.6,0.99 l -29.9,0 c -0.7,0 -1.6,0 -1.6,-0.99 0,-1 0.9,-1 1.7,-1 z"
         id="path15407" /><path
         style="fill:#000000;stroke-width:0"
         inkscape:connector-curvature="0"
         d="m 1057.3,352.62 0.1,0.01 0.1,0 0.2,0 0.1,0.01 0,0 0.1,0.01 0.1,0.01 0,0.01 0.1,0.01 0.1,0.01 0,0.02 0.1,0.02 0.1,0.02 0,0.02 0.1,0.03 0,0.03 0.1,0.04 0,0.04 0.1,0.04 0,0.04 0,0.03 0.1,0.03 0,0.02 0,0.03 0,0.03 0,0.03 0,0.03 0,0.03 0.1,0.04 0,0.03 0,0.04 0,0.04 0,0.04 0,0.04 0,0.04 0,0.04 0,0.05 0,0.04 c 0,1 -0.9,1 -1.7,1 l -29.7,0 c -0.8,0 -1.7,0 -1.7,-1 0,-1 0.9,-1 1.6,-1 z"
         id="path15409" /><path
         style="fill:#000000;stroke-width:0"
         inkscape:connector-curvature="0"
         d="m 1078.8,371.41 -0.1,-0.05 -0.1,-0.05 -0.1,-0.05 -0.1,-0.05 -0.1,-0.06 0,-0.03 -0.1,-0.03 0,-0.03 0,-0.03 -0.1,-0.03 0,-0.04 -0.1,-0.03 0,-0.04 0,-0.03 -0.1,-0.04 0,-0.04 0,-0.04 0,-0.04 -0.1,-0.05 0,-0.04 0,-0.05 0,-0.04 0,-0.05 0,-0.05 -0.1,-0.05 0,-0.06 0,-0.05 c 0,-0.55 0.5,-1 1,-1 0.2,0 0.3,0 0.9,0.35 l 5,2.54 0,-24.16 -5.1,0 c -0.7,0 -1.8,0 -1.8,-0.99 0,-1 1.1,-1 1.8,-1 l 18.6,0 c 0.9,0 1.8,0 1.8,1 0,0.99 -0.9,0.99 -1.8,0.99 l -5.1,0 -2,0 -4.4,0 0,25.21 4.4,2.24 0,-27.45 2,0 0,28.3 c 0,0.89 0,1.79 -1,1.79 -0.2,0 -0.3,0 -0.9,-0.35 z"
         id="path15411" /><path
         style="fill:#000000;stroke-width:0"
         inkscape:connector-curvature="0"
         d="m 1134.4,357.46 13.9,0 c 0.7,0 1.6,0 1.6,0.99 0,1 -0.9,1 -1.6,1 l -13.9,0 0,13.95 c 0,0.69 0,1.64 -1,1.64 -1,0 -1,-0.95 -1,-1.64 l 0,-13.95 -14,0 c -0.7,0 -1.6,0 -1.6,-1 0,-0.99 0.9,-0.99 1.6,-0.99 l 14,0 0,-13.95 c 0,-0.7 0,-1.64 1,-1.64 1,0 1,0.94 1,1.64 z"
         id="path15413" /><path
         style="fill:#000000;stroke-width:0"
         inkscape:connector-curvature="0"
         d="m 1167.8,371.41 -0.1,-0.05 -0.1,-0.05 -0.1,-0.05 -0.1,-0.05 -0.1,-0.06 0,-0.03 -0.1,-0.03 0,-0.03 0,-0.03 -0.1,-0.03 0,-0.04 -0.1,-0.03 0,-0.04 0,-0.03 -0.1,-0.04 0,-0.04 0,-0.04 0,-0.04 -0.1,-0.05 0,-0.04 0,-0.05 0,-0.04 0,-0.05 0,-0.05 -0.1,-0.05 0,-0.06 0,-0.05 c 0,-0.55 0.5,-1 1,-1 0.2,0 0.3,0 0.9,0.35 l 5,2.54 0,-24.16 -5.1,0 c -0.7,0 -1.8,0 -1.8,-0.99 0,-1 1.1,-1 1.8,-1 l 18.6,0 c 0.9,0 1.8,0 1.8,1 0,0.99 -0.9,0.99 -1.8,0.99 l -5.1,0 -2,0 -4.4,0 0,25.21 4.4,2.24 0,-27.45 2,0 0,28.3 c 0,0.89 0,1.79 -1,1.79 -0.2,0 -0.3,0 -0.9,-0.35 z"
         id="path15415" /><path
         style="fill:#000000;stroke-width:0"
         inkscape:connector-curvature="0"
         d="m 1223.4,357.46 13.9,0 c 0.7,0 1.6,0 1.6,0.99 0,1 -0.9,1 -1.6,1 l -13.9,0 0,13.95 c 0,0.69 0,1.64 -1,1.64 -1,0 -1,-0.95 -1,-1.64 l 0,-13.95 -14,0 c -0.7,0 -1.6,0 -1.6,-1 0,-0.99 0.9,-0.99 1.6,-0.99 l 14,0 0,-13.95 c 0,-0.7 0,-1.64 1,-1.64 1,0 1,0.94 1,1.64 z"
         id="path15417" /><path
         style="fill:#000000;stroke-width:0"
         inkscape:connector-curvature="0"
         d="m 1256.8,371.41 -0.1,-0.05 -0.1,-0.05 -0.1,-0.05 -0.1,-0.05 -0.1,-0.06 0,-0.03 -0.1,-0.03 0,-0.03 0,-0.03 -0.1,-0.03 0,-0.04 -0.1,-0.03 0,-0.04 0,-0.03 -0.1,-0.04 0,-0.04 0,-0.04 0,-0.04 -0.1,-0.05 0,-0.04 0,-0.05 0,-0.04 0,-0.05 0,-0.05 -0.1,-0.05 0,-0.06 0,-0.05 c 0,-0.55 0.5,-1 1,-1 0.2,0 0.3,0 0.9,0.35 l 5,2.54 0,-24.16 -5.1,0 c -0.7,0 -1.8,0 -1.8,-0.99 0,-1 1.1,-1 1.8,-1 l 18.6,0 c 0.9,0 1.8,0 1.8,1 0,0.99 -0.9,0.99 -1.8,0.99 l -5.1,0 -2,0 -4.4,0 0,25.21 4.4,2.24 0,-27.45 2,0 0,28.3 c 0,0.89 0,1.79 -1,1.79 -0.2,0 -0.3,0 -0.9,-0.35 z"
         id="path15419" /><path
         style="fill:#000000;stroke-width:0"
         inkscape:connector-curvature="0"
         d="m 1311.4,357.46 13.9,0 c 0.7,0 1.6,0 1.6,0.99 0,1 -0.9,1 -1.6,1 l -13.9,0 0,13.95 c 0,0.69 0,1.64 -1,1.64 -1,0 -1,-0.95 -1,-1.64 l 0,-13.95 -14,0 c -0.7,0 -1.6,0 -1.6,-1 0,-0.99 0.9,-0.99 1.6,-0.99 l 14,0 0,-13.95 c 0,-0.7 0,-1.64 1,-1.64 1,0 1,0.94 1,1.64 z"
         id="path15421" /><path
         style="fill:#000000;stroke-width:0"
         inkscape:connector-curvature="0"
         d="m 1344.8,371.41 -0.1,-0.05 -0.1,-0.05 -0.1,-0.05 -0.1,-0.05 -0.1,-0.06 0,-0.03 -0.1,-0.03 0,-0.03 0,-0.03 -0.1,-0.03 0,-0.04 -0.1,-0.03 0,-0.04 0,-0.03 -0.1,-0.04 0,-0.04 0,-0.04 0,-0.04 -0.1,-0.05 0,-0.04 0,-0.05 0,-0.04 0,-0.05 0,-0.05 -0.1,-0.05 0,-0.06 0,-0.05 c 0,-0.55 0.5,-1 1,-1 0.2,0 0.3,0 0.9,0.35 l 5,2.54 0,-24.16 -5.1,0 c -0.7,0 -1.8,0 -1.8,-0.99 0,-1 1.1,-1 1.8,-1 l 18.6,0 c 0.9,0 1.8,0 1.8,1 0,0.99 -0.9,0.99 -1.8,0.99 l -5.1,0 -2,0 -4.4,0 0,25.21 4.4,2.24 0,-27.45 2,0 0,28.3 c 0,0.89 0,1.79 -1,1.79 -0.2,0 -0.3,0 -0.9,-0.35 z"
         id="path15423" /><path
         style="fill:#000000;stroke-width:0"
         inkscape:connector-curvature="0"
         d="m 1400.4,357.46 13.9,0 c 0.7,0 1.6,0 1.6,0.99 0,1 -0.9,1 -1.6,1 l -13.9,0 0,13.95 c 0,0.69 0,1.64 -1,1.64 -1,0 -1,-0.95 -1,-1.64 l 0,-13.95 -14,0 c -0.7,0 -1.6,0 -1.6,-1 0,-0.99 0.9,-0.99 1.6,-0.99 l 14,0 0,-13.95 c 0,-0.7 0,-1.64 1,-1.64 1,0 1,0.94 1,1.64 z"
         id="path15425" /><path
         style="fill:#000000;stroke-width:0"
         inkscape:connector-curvature="0"
         d="m 1454.9,362.04 -0.1,0.84 0,0.84 0,0.83 -0.1,0.81 -0.1,0.81 -0.1,0.8 -0.2,0.78 -0.1,0.77 -0.2,0.75 -0.2,0.74 -0.2,0.72 -0.3,0.69 -0.3,0.68 -0.3,0.65 -0.3,0.63 -0.3,0.61 -0.4,0.58 -0.3,0.55 -0.4,0.52 -0.5,0.49 -0.4,0.46 -0.5,0.43 -0.5,0.39 -0.5,0.36 -0.5,0.32 -0.5,0.28 -0.6,0.24 -0.6,0.2 -0.6,0.16 -0.7,0.11 -0.6,0.07 -0.7,0.03 0,-2 c 6.7,0 9.1,-8.47 9.1,-15.14 0,-6.72 -2.4,-15.14 -9.1,-15.14 -1.4,0 -2.6,0.44 -2.7,0.49 l 0,29.29 c 0.1,0.05 1.3,0.5 2.7,0.5 l 0,2 c -7.4,0 -11.1,-8.17 -11.1,-17.14 l 2,0 c 0,4.03 0.9,10.16 4.4,13.35 l 0,-26.7 c -3.6,3.24 -4.4,9.56 -4.4,13.35 l -2,0 c 0,-9.02 3.7,-17.14 11.1,-17.14 7.4,0 11.1,8.17 11.1,17.14 z"
         id="path15427" /></g>  </g>
  <g
     id="g15800"
     transform="matrix(0.54609478,0,0,0.54609478,486.48399,42.406647)">
    <g
       word-spacing="normal"
       letter-spacing="normal"
       font-size-adjust="none"
       font-stretch="normal"
       font-weight="normal"
       font-variant="normal"
       font-style="normal"
       stroke-miterlimit="10.433"
       xml:space="preserve"
       transform="matrix(1.0928571,0,0,-1.0928571,-191.25,1012.5)"
       id="g15802"
       style="font-style:normal;font-variant:normal;font-weight:normal;font-stretch:normal;letter-spacing:normal;word-spacing:normal;text-anchor:start;fill:none;fill-opacity:1;fill-rule:evenodd;stroke:#000000;stroke-linecap:butt;stroke-linejoin:miter;stroke-miterlimit:10.43299961;stroke-dasharray:none;stroke-dashoffset:0;stroke-opacity:1"><path
         id="path15804"
         d="m 1012.2,339.92 0,-0.15 0,-0.15 -0.1,-0.14 0,-0.13 0,-0.13 -0.1,-0.11 0,-0.12 0,-0.1 -0.1,-0.1 0,-0.09 -0.1,-0.09 0,-0.08 -0.1,-0.07 0,-0.07 -0.1,-0.07 0,-0.05 -0.1,-0.06 -0.1,-0.05 -0.1,-0.04 0,-0.04 -0.1,-0.04 -0.1,-0.03 -0.1,-0.03 -0.2,-0.02 -0.1,-0.02 -0.1,-0.02 -0.1,0 -0.1,-0.01 0,-0.01 -0.1,0 -0.1,-0.01 -0.1,0 -0.1,0 -0.1,-0.01 -0.1,0 -0.1,0 0,0 -0.2,0 c -0.5,0 -1.1,0 -1.1,-0.95 0,-0.39 0.3,-0.59 0.6,-0.59 l 9.2,0 c 0.2,0 0.9,0 0.9,0.99 0,0.55 -0.5,0.55 -1.2,0.55 -2.5,0 -2.5,0.35 -2.5,0.8 0,0.59 2.1,8.71 2.4,9.96 0.7,-1.44 2.1,-3.19 4.6,-3.19 l 0,1.1 c -3.3,0 -4,4.13 -4,4.43 0,0.1 0,0.2 0.2,0.8 l 2.4,9.76 c 0.4,1.35 1.7,2.74 2.6,3.49 1.7,1.54 3.2,1.89 4,1.89 2,0 3.2,-1.74 3.2,-4.68 0,-2.94 -1.6,-8.67 -2.5,-10.56 -1.7,-3.49 -4.1,-5.13 -5.9,-5.13 l 0,-1.1 c 5.8,0 12,7.28 12,14.6 0,4.68 -2.8,7.97 -6.6,7.97 -2.5,0 -4.9,-1.8 -6.5,-3.74 -0.5,2.69 -2.7,3.74 -4.5,3.74 -2.3,0 -3.3,-1.95 -3.7,-2.84 -0.9,-1.7 -1.6,-4.68 -1.6,-4.83 0,-0.5 0.5,-0.5 0.6,-0.5 0.5,0 0.6,0.05 0.9,1.14 0.8,3.54 1.8,5.93 3.6,5.93 0.9,0 1.6,-0.4 1.6,-2.29 0,-1.15 -0.2,-1.69 -0.4,-2.54 z"
         inkscape:connector-curvature="0"
         style="fill:#000000;stroke-width:0" /><path
         id="path15806"
         d="m 1044.5,350.64 0.3,0 0.2,-0.02 0.3,-0.02 0.2,-0.04 0.2,-0.05 0.3,-0.06 0.2,-0.07 0.2,-0.09 0.2,-0.09 0.2,-0.11 0.2,-0.11 0.2,-0.13 0.2,-0.13 0.1,-0.15 0.2,-0.16 0.2,-0.17 0.1,-0.18 0.2,-0.2 0.1,-0.2 0.1,-0.21 0.1,-0.23 0.2,-0.23 0.1,-0.25 0,-0.26 0.1,-0.27 0.1,-0.28 0.1,-0.29 0,-0.3 0,-0.31 0.1,-0.32 0,-0.33 0,-0.35 c 0,-4.32 -2.5,-5.61 -4.5,-5.61 -1.4,0 -4.5,0.38 -6,2.44 1.7,0.07 2.1,1.22 2.1,1.95 0,1.12 -0.9,1.92 -2,1.92 -0.9,0 -1.9,-0.59 -1.9,-2.02 0,-3.28 3.6,-5.41 7.8,-5.41 4.9,0 8.2,3.25 8.2,6.73 0,2.72 -2.2,5.44 -6,6.24 3.6,1.33 4.9,3.94 4.9,6.07 0,2.76 -3.1,4.81 -7,4.81 -3.9,0 -6.8,-1.88 -6.8,-4.67 0,-1.18 0.7,-1.85 1.8,-1.85 1.1,0 1.8,0.8 1.8,1.78 0,1.01 -0.7,1.75 -1.8,1.81 1.2,1.54 3.6,1.92 4.9,1.92 1.6,0 3.8,-0.76 3.8,-3.8 0,-1.46 -0.5,-3.07 -1.4,-4.15 -1.2,-1.32 -2.2,-1.39 -3.9,-1.5 -0.9,-0.07 -1,-0.07 -1.1,-0.1 -0.1,0 -0.4,-0.07 -0.4,-0.46 0,-0.49 0.3,-0.49 0.9,-0.49 z"
         inkscape:connector-curvature="0"
         style="fill:#000000;stroke-width:0" /><path
         id="path15808"
         d="m 1080.6,364.83 0,0.13 -0.1,0.14 0,0.13 0,0.13 0,0.12 -0.1,0.13 0,0.12 0,0.12 -0.1,0.12 -0.1,0.11 0,0.11 -0.1,0.11 -0.1,0.1 0,0.1 -0.1,0.1 -0.1,0.09 -0.1,0.09 -0.1,0.08 -0.1,0.08 -0.1,0.07 -0.1,0.07 -0.1,0.07 -0.1,0.06 -0.2,0.05 -0.1,0.05 -0.1,0.04 -0.1,0.04 -0.1,0.02 -0.2,0.03 -0.1,0.02 -0.1,0.01 -0.2,0 c -1.4,0 -2.6,-1.2 -2.6,-2.64 0,-1.45 1.2,-2.64 2.6,-2.64 1.5,0 2.7,1.19 2.7,2.64 z"
         inkscape:connector-curvature="0"
         style="fill:#000000;stroke-width:0" /><path
         id="path15810"
         d="m 1080.6,348.64 0,0.14 -0.1,0.13 0,0.13 0,0.13 0,0.13 -0.1,0.12 0,0.12 0,0.12 -0.1,0.12 -0.1,0.11 0,0.11 -0.1,0.11 -0.1,0.1 0,0.1 -0.1,0.1 -0.1,0.09 -0.1,0.09 -0.1,0.08 -0.1,0.08 -0.1,0.08 -0.1,0.07 -0.1,0.06 -0.1,0.06 -0.2,0.05 -0.1,0.05 -0.1,0.04 -0.1,0.04 -0.1,0.03 -0.2,0.02 -0.1,0.02 -0.1,0.01 -0.2,0 c -1.4,0 -2.6,-1.19 -2.6,-2.64 0,-1.44 1.2,-2.64 2.6,-2.64 1.5,0 2.7,1.2 2.7,2.64 z"
         inkscape:connector-curvature="0"
         style="fill:#000000;stroke-width:0" /><path
         id="path15812"
         d="m 1115.5,334.04 0,0.03 0,0.03 0,0.01 0,0.02 0,0.01 0,0.02 0,0.02 0,0.01 0,0.02 -0.1,0.02 0,0.03 0,0.02 0,0.02 0,0.03 0,0.03 -0.1,0.03 0,0.03 0,0.04 0,0.02 -0.1,0.02 0,0.02 0,0.02 0,0.02 0,0.03 0,0.02 -0.1,0.02 0,0.03 0,0.02 0,0.03 -0.1,0.03 0,0.03 0,0.03 0,0.03 -0.1,0.03 0,0.03 0,0.03 -0.1,0.04 0,0.03 0,0.04 -0.1,0.03 0,0.04 -0.1,0.04 c -6.2,6.28 -7.8,15.69 -7.8,23.31 0,8.67 1.9,17.34 8,23.57 0.7,0.59 0.7,0.69 0.7,0.84 0,0.35 -0.2,0.5 -0.5,0.5 -0.5,0 -5,-3.39 -7.9,-9.72 -2.6,-5.47 -3.2,-11 -3.2,-15.19 0,-3.88 0.6,-9.91 3.3,-15.54 3,-6.12 7.3,-9.36 7.8,-9.36 0.3,0 0.5,0.15 0.5,0.49 z"
         inkscape:connector-curvature="0"
         style="fill:#000000;stroke-width:0" /><path
         id="path15814"
         d="m 1122.8,371.41 -0.1,-0.05 -0.1,-0.05 -0.1,-0.05 -0.1,-0.05 -0.1,-0.06 0,-0.03 -0.1,-0.03 0,-0.03 0,-0.03 -0.1,-0.03 0,-0.04 -0.1,-0.03 0,-0.04 0,-0.03 -0.1,-0.04 0,-0.04 0,-0.04 0,-0.04 -0.1,-0.05 0,-0.04 0,-0.05 0,-0.04 0,-0.05 0,-0.05 -0.1,-0.05 0,-0.06 0,-0.05 c 0,-0.55 0.5,-1 1,-1 0.2,0 0.3,0 0.9,0.35 l 5,2.54 0,-24.16 -5.1,0 c -0.7,0 -1.8,0 -1.8,-0.99 0,-1 1.1,-1 1.8,-1 l 18.6,0 c 0.9,0 1.8,0 1.8,1 0,0.99 -0.9,0.99 -1.8,0.99 l -5.1,0 -2,0 -4.4,0 0,25.21 4.4,2.24 0,-27.45 2,0 0,28.3 c 0,0.89 0,1.79 -1,1.79 -0.2,0 -0.3,0 -0.9,-0.35 z"
         inkscape:connector-curvature="0"
         style="fill:#000000;stroke-width:0" /><path
         id="path15816"
         d="m 1177.4,357.46 13.9,0 c 0.7,0 1.6,0 1.6,0.99 0,1 -0.9,1 -1.6,1 l -13.9,0 0,13.95 c 0,0.69 0,1.64 -1,1.64 -1,0 -1,-0.95 -1,-1.64 l 0,-13.95 -14,0 c -0.7,0 -1.6,0 -1.6,-1 0,-0.99 0.9,-0.99 1.6,-0.99 l 14,0 0,-13.95 c 0,-0.7 0,-1.64 1,-1.64 1,0 1,0.94 1,1.64 z"
         inkscape:connector-curvature="0"
         style="fill:#000000;stroke-width:0" /><path
         id="path15818"
         d="m 1210.8,371.41 -0.1,-0.05 -0.1,-0.05 -0.1,-0.05 -0.1,-0.05 -0.1,-0.06 0,-0.03 -0.1,-0.03 0,-0.03 0,-0.03 -0.1,-0.03 0,-0.04 -0.1,-0.03 0,-0.04 0,-0.03 -0.1,-0.04 0,-0.04 0,-0.04 0,-0.04 -0.1,-0.05 0,-0.04 0,-0.05 0,-0.04 0,-0.05 0,-0.05 -0.1,-0.05 0,-0.06 0,-0.05 c 0,-0.55 0.5,-1 1,-1 0.2,0 0.3,0 0.9,0.35 l 5,2.54 0,-24.16 -5.1,0 c -0.7,0 -1.8,0 -1.8,-0.99 0,-1 1.1,-1 1.8,-1 l 18.6,0 c 0.9,0 1.8,0 1.8,1 0,0.99 -0.9,0.99 -1.8,0.99 l -5.1,0 -2,0 -4.4,0 0,25.21 4.4,2.24 0,-27.45 2,0 0,28.3 c 0,0.89 0,1.79 -1,1.79 -0.2,0 -0.3,0 -0.9,-0.35 z"
         inkscape:connector-curvature="0"
         style="fill:#000000;stroke-width:0" /><path
         id="path15820"
         d="m 1249.4,358.45 0,0.37 0,0.39 0,0.39 0,0.41 -0.1,0.84 0,0.88 -0.1,0.92 -0.1,0.94 -0.2,0.98 -0.1,1 -0.2,1.02 -0.2,1.04 -0.3,1.05 -0.3,1.06 -0.4,1.06 -0.4,1.07 -0.2,0.53 -0.2,0.54 -0.2,0.53 -0.3,0.53 c -3,6.12 -7.3,9.36 -7.8,9.36 -0.3,0 -0.5,-0.2 -0.5,-0.5 0,-0.15 0,-0.25 1,-1.15 4.9,-4.92 7.7,-12.85 7.7,-23.26 0,-8.52 -1.8,-17.28 -8,-23.56 -0.7,-0.6 -0.7,-0.69 -0.7,-0.85 0,-0.29 0.2,-0.49 0.5,-0.49 0.5,0 5,3.38 8,9.71 2.5,5.48 3.1,11.01 3.1,15.19 z"
         inkscape:connector-curvature="0"
         style="fill:#000000;stroke-width:0" /><path
         id="path15822"
         d="m 1284.4,359.85 -10,9.91 c -0.6,0.6 -0.7,0.7 -1.1,0.7 -0.5,0 -1,-0.45 -1,-1 0,-0.35 0.1,-0.45 0.7,-1 l 9.9,-10.01 -9.9,-10.01 c -0.6,-0.55 -0.7,-0.65 -0.7,-0.99 0,-0.55 0.5,-1 1,-1 0.4,0 0.5,0.1 1.1,0.69 l 9.9,9.92 10.3,-10.31 c 0.1,-0.05 0.5,-0.3 0.8,-0.3 0.6,0 1,0.45 1,1 0,0.09 0,0.29 -0.2,0.54 0,0.1 -7.9,7.92 -10.4,10.46 l 9.1,9.12 c 0.2,0.3 1,0.95 1.2,1.24 0.1,0.1 0.3,0.3 0.3,0.65 0,0.55 -0.4,1 -1,1 -0.4,0 -0.6,-0.2 -1.2,-0.75 z"
         inkscape:connector-curvature="0"
         style="fill:#000000;stroke-width:0" /><path
         id="path15824"
         d="m 1331.5,334.04 0,0.03 0,0.03 0,0.01 0,0.02 0,0.01 0,0.02 0,0.02 0,0.01 0,0.02 -0.1,0.02 0,0.03 0,0.02 0,0.02 0,0.03 0,0.03 -0.1,0.03 0,0.03 0,0.04 0,0.02 -0.1,0.02 0,0.02 0,0.02 0,0.02 0,0.03 0,0.02 -0.1,0.02 0,0.03 0,0.02 0,0.03 -0.1,0.03 0,0.03 0,0.03 0,0.03 -0.1,0.03 0,0.03 0,0.03 -0.1,0.04 0,0.03 0,0.04 -0.1,0.03 0,0.04 -0.1,0.04 c -6.2,6.28 -7.8,15.69 -7.8,23.31 0,8.67 1.9,17.34 8,23.57 0.7,0.59 0.7,0.69 0.7,0.84 0,0.35 -0.2,0.5 -0.5,0.5 -0.5,0 -5,-3.39 -7.9,-9.72 -2.6,-5.47 -3.2,-11 -3.2,-15.19 0,-3.88 0.6,-9.91 3.3,-15.54 3,-6.12 7.3,-9.36 7.8,-9.36 0.3,0 0.5,0.15 0.5,0.49 z"
         inkscape:connector-curvature="0"
         style="fill:#000000;stroke-width:0" /><path
         id="path15826"
         d="m 1337.8,371.41 -0.1,-0.05 -0.1,-0.05 -0.1,-0.05 -0.1,-0.05 -0.1,-0.06 0,-0.03 -0.1,-0.03 0,-0.03 0,-0.03 -0.1,-0.03 0,-0.04 -0.1,-0.03 0,-0.04 0,-0.03 -0.1,-0.04 0,-0.04 0,-0.04 0,-0.04 -0.1,-0.05 0,-0.04 0,-0.05 0,-0.04 0,-0.05 0,-0.05 -0.1,-0.05 0,-0.06 0,-0.05 c 0,-0.55 0.5,-1 1,-1 0.2,0 0.3,0 0.9,0.35 l 5,2.54 0,-24.16 -5.1,0 c -0.7,0 -1.8,0 -1.8,-0.99 0,-1 1.1,-1 1.8,-1 l 18.6,0 c 0.9,0 1.8,0 1.8,1 0,0.99 -0.9,0.99 -1.8,0.99 l -5.1,0 -2,0 -4.4,0 0,25.21 4.4,2.24 0,-27.45 2,0 0,28.3 c 0,0.89 0,1.79 -1,1.79 -0.2,0 -0.3,0 -0.9,-0.35 z"
         inkscape:connector-curvature="0"
         style="fill:#000000;stroke-width:0" /><path
         id="path15828"
         d="m 1393.4,357.46 13.9,0 c 0.7,0 1.6,0 1.6,0.99 0,1 -0.9,1 -1.6,1 l -13.9,0 0,13.95 c 0,0.69 0,1.64 -1,1.64 -1,0 -1,-0.95 -1,-1.64 l 0,-13.95 -14,0 c -0.7,0 -1.6,0 -1.6,-1 0,-0.99 0.9,-0.99 1.6,-0.99 l 14,0 0,-13.95 c 0,-0.7 0,-1.64 1,-1.64 1,0 1,0.94 1,1.64 z"
         inkscape:connector-curvature="0"
         style="fill:#000000;stroke-width:0" /><path
         id="path15830"
         d="m 1426.8,371.41 -0.1,-0.05 -0.1,-0.05 -0.1,-0.05 -0.1,-0.05 -0.1,-0.06 0,-0.03 -0.1,-0.03 0,-0.03 0,-0.03 -0.1,-0.03 0,-0.04 -0.1,-0.03 0,-0.04 0,-0.03 -0.1,-0.04 0,-0.04 0,-0.04 0,-0.04 -0.1,-0.05 0,-0.04 0,-0.05 0,-0.04 0,-0.05 0,-0.05 -0.1,-0.05 0,-0.06 0,-0.05 c 0,-0.55 0.5,-1 1,-1 0.2,0 0.3,0 0.9,0.35 l 5,2.54 0,-24.16 -5.1,0 c -0.7,0 -1.8,0 -1.8,-0.99 0,-1 1.1,-1 1.8,-1 l 18.6,0 c 0.9,0 1.8,0 1.8,1 0,0.99 -0.9,0.99 -1.8,0.99 l -5.1,0 -2,0 -4.4,0 0,25.21 4.4,2.24 0,-27.45 2,0 0,28.3 c 0,0.89 0,1.79 -1,1.79 -0.2,0 -0.3,0 -0.9,-0.35 z"
         inkscape:connector-curvature="0"
         style="fill:#000000;stroke-width:0" /><path
         id="path15832"
         d="m 1465.4,358.45 0,0.37 0,0.39 0,0.39 0,0.41 -0.1,0.84 0,0.88 -0.1,0.92 -0.1,0.94 -0.2,0.98 -0.1,1 -0.2,1.02 -0.2,1.04 -0.3,1.05 -0.3,1.06 -0.4,1.06 -0.4,1.07 -0.2,0.53 -0.2,0.54 -0.2,0.53 -0.3,0.53 c -3,6.12 -7.3,9.36 -7.8,9.36 -0.3,0 -0.5,-0.2 -0.5,-0.5 0,-0.15 0,-0.25 1,-1.15 4.9,-4.92 7.7,-12.85 7.7,-23.26 0,-8.52 -1.8,-17.28 -8,-23.56 -0.7,-0.6 -0.7,-0.69 -0.7,-0.85 0,-0.29 0.2,-0.49 0.5,-0.49 0.5,0 5,3.38 8,9.71 2.5,5.48 3.1,11.01 3.1,15.19 z"
         inkscape:connector-curvature="0"
         style="fill:#000000;stroke-width:0" /></g>  </g>
  <path
     style="fill:none;fill-rule:evenodd;stroke:#ba0000;stroke-width:1px;stroke-linecap:butt;stroke-linejoin:miter;stroke-opacity:1;marker-end:url(#marker6875)"
     d="m 195.96959,436.70042 c 0,46.46702 0,45.45687 0,45.45687"
     id="path6801"
     inkscape:connector-curvature="0" />
  <g
     transform="matrix(0.57338965,0,0,0.57338965,-504.34598,99.748913)"
     id="g7252">
    <g
       style="font-style:normal;font-variant:normal;font-weight:normal;font-stretch:normal;letter-spacing:normal;word-spacing:normal;text-anchor:start;fill:none;fill-opacity:1;fill-rule:evenodd;stroke:#000000;stroke-linecap:butt;stroke-linejoin:miter;stroke-miterlimit:10.43299961;stroke-dasharray:none;stroke-dashoffset:0;stroke-opacity:1"
       id="g7254"
       transform="matrix(1.0928571,0,0,-1.0928571,-191.25,1012.5)"
       xml:space="preserve"
       stroke-miterlimit="10.433"
       font-style="normal"
       font-variant="normal"
       font-weight="normal"
       font-stretch="normal"
       font-size-adjust="none"
       letter-spacing="normal"
       word-spacing="normal"><path
         style="fill:#000000;stroke-width:0"
         inkscape:connector-curvature="0"
         d="m 1218.2,339.92 0,-0.15 0,-0.15 -0.1,-0.14 0,-0.13 0,-0.13 -0.1,-0.11 0,-0.12 0,-0.1 -0.1,-0.1 0,-0.09 -0.1,-0.09 0,-0.08 -0.1,-0.07 0,-0.07 -0.1,-0.07 0,-0.05 -0.1,-0.06 -0.1,-0.05 -0.1,-0.04 0,-0.04 -0.1,-0.04 -0.1,-0.03 -0.1,-0.03 -0.2,-0.02 -0.1,-0.02 -0.1,-0.02 -0.1,0 -0.1,-0.01 0,-0.01 -0.1,0 -0.1,-0.01 -0.1,0 -0.1,0 -0.1,-0.01 -0.1,0 -0.1,0 0,0 -0.1,0 c -0.7,0 -1.2,0 -1.2,-0.95 0,-0.39 0.3,-0.59 0.7,-0.59 l 9.1,0 c 0.2,0 0.9,0 0.9,0.99 0,0.55 -0.5,0.55 -1.2,0.55 -2.5,0 -2.5,0.35 -2.5,0.8 0,0.59 2.1,8.71 2.4,9.96 0.7,-1.44 2.1,-3.19 4.6,-3.19 l 0,1.1 c -3.3,0 -4,4.13 -4,4.43 0,0.1 0,0.2 0.2,0.8 l 2.4,9.76 c 0.4,1.35 1.7,2.74 2.6,3.49 1.7,1.54 3.2,1.89 4,1.89 2,0 3.2,-1.74 3.2,-4.68 0,-2.94 -1.6,-8.67 -2.5,-10.56 -1.7,-3.49 -4.1,-5.13 -5.9,-5.13 l 0,-1.1 c 5.8,0 12,7.28 12,14.6 0,4.68 -2.8,7.97 -6.6,7.97 -2.5,0 -4.9,-1.8 -6.5,-3.74 -0.5,2.69 -2.7,3.74 -4.5,3.74 -2.3,0 -3.3,-1.95 -3.7,-2.84 -0.9,-1.7 -1.6,-4.68 -1.6,-4.83 0,-0.5 0.5,-0.5 0.6,-0.5 0.5,0 0.6,0.05 0.9,1.14 0.8,3.54 1.8,5.93 3.6,5.93 0.9,0 1.6,-0.4 1.6,-2.29 0,-1.15 -0.2,-1.69 -0.4,-2.54 z"
         id="path7256" /><path
         style="fill:#000000;stroke-width:0"
         inkscape:connector-curvature="0"
         d="m 1251.5,350.64 0.3,0 0.2,-0.02 0.3,-0.02 0.2,-0.04 0.2,-0.05 0.3,-0.06 0.2,-0.07 0.2,-0.09 0.2,-0.09 0.2,-0.11 0.2,-0.11 0.2,-0.13 0.2,-0.13 0.1,-0.15 0.2,-0.16 0.2,-0.17 0.1,-0.18 0.2,-0.2 0.1,-0.2 0.1,-0.21 0.1,-0.23 0.2,-0.23 0.1,-0.25 0,-0.26 0.1,-0.27 0.1,-0.28 0.1,-0.29 0,-0.3 0,-0.31 0.1,-0.32 0,-0.33 0,-0.35 c 0,-4.32 -2.5,-5.61 -4.5,-5.61 -1.4,0 -4.5,0.38 -6,2.44 1.7,0.07 2.1,1.22 2.1,1.95 0,1.12 -0.9,1.92 -2,1.92 -0.9,0 -1.9,-0.59 -1.9,-2.02 0,-3.28 3.6,-5.41 7.8,-5.41 4.9,0 8.2,3.25 8.2,6.73 0,2.72 -2.2,5.44 -6,6.24 3.6,1.33 4.9,3.94 4.9,6.07 0,2.76 -3.1,4.81 -7,4.81 -3.9,0 -6.8,-1.88 -6.8,-4.67 0,-1.18 0.7,-1.85 1.8,-1.85 1.1,0 1.8,0.8 1.8,1.78 0,1.01 -0.7,1.75 -1.8,1.81 1.2,1.54 3.6,1.92 4.9,1.92 1.6,0 3.8,-0.76 3.8,-3.8 0,-1.46 -0.5,-3.07 -1.4,-4.15 -1.2,-1.32 -2.2,-1.39 -3.9,-1.5 -0.9,-0.07 -1,-0.07 -1.1,-0.1 -0.1,0 -0.4,-0.07 -0.4,-0.46 0,-0.49 0.3,-0.49 0.9,-0.49 z"
         id="path7258" /></g>  </g>
  <path
     inkscape:connector-curvature="0"
     id="path7409"
     d="m 336.3808,434.68012 c 0,49.49747 0,50.50762 0,50.50762"
     style="fill:none;fill-rule:evenodd;stroke:#00be00;stroke-width:1;stroke-linecap:butt;stroke-linejoin:miter;stroke-opacity:1;stroke-miterlimit:4;stroke-dasharray:6, 6;stroke-dashoffset:0;marker-end:url(#marker6821)" />
  <path
     inkscape:connector-curvature="0"
     id="path7409-7"
     d="m 393.94188,434.85442 c 0,49.49747 0,50.50762 0,50.50762"
     style="fill:none;fill-rule:evenodd;stroke:#00be00;stroke-width:1;stroke-linecap:butt;stroke-linejoin:miter;stroke-miterlimit:4;stroke-dasharray:6, 6;stroke-dashoffset:0;stroke-opacity:1;marker-end:url(#marker6821-3)" />
</svg>
