<?xml version="1.0" encoding="UTF-8" standalone="no"?>
<!-- Created with Inkscape (http://www.inkscape.org/) -->

<svg
   xmlns:dc="http://purl.org/dc/elements/1.1/"
   xmlns:cc="http://creativecommons.org/ns#"
   xmlns:rdf="http://www.w3.org/1999/02/22-rdf-syntax-ns#"
   xmlns:svg="http://www.w3.org/2000/svg"
   xmlns="http://www.w3.org/2000/svg"
   xmlns:sodipodi="http://sodipodi.sourceforge.net/DTD/sodipodi-0.dtd"
   xmlns:inkscape="http://www.inkscape.org/namespaces/inkscape"
   width="210mm"
   height="297mm"
   viewBox="0 0 744.09448819 1052.3622047"
   id="svg2"
   version="1.1"
   inkscape:version="0.91 r13725"
   sodipodi:docname="drawing.svg"
   inkscape:export-filename="/home/siva/Projects/reu/HoTT/paper/pictures/isFinite.png"
   inkscape:export-xdpi="90"
   inkscape:export-ydpi="90">
  <sodipodi:namedview
     id="base"
     pagecolor="#ffffff"
     bordercolor="#666666"
     borderopacity="1.0"
     inkscape:pageopacity="0.0"
     inkscape:pageshadow="2"
     inkscape:zoom="0.49497475"
     inkscape:cx="325.27933"
     inkscape:cy="636.21141"
     inkscape:document-units="px"
     inkscape:current-layer="layer1"
     showgrid="false"
     inkscape:window-width="960"
     inkscape:window-height="1016"
     inkscape:window-x="0"
     inkscape:window-y="27"
     inkscape:window-maximized="0" />
  <defs
     id="defs4" />
  <metadata
     id="metadata7">
    <rdf:RDF>
      <cc:Work
         rdf:about="">
        <dc:format>image/svg+xml</dc:format>
        <dc:type
           rdf:resource="http://purl.org/dc/dcmitype/StillImage" />
        <dc:title></dc:title>
      </cc:Work>
    </rdf:RDF>
  </metadata>
  <g
     id="layer1"
     inkscape:groupmode="layer"
     inkscape:label="Layer 1">
    <ellipse
       ry="412.60529"
       rx="315.46243"
       cy="599.50507"
       cx="372.85712"
       id="path4136"
       style="fill:#ffffff;fill-opacity:1;stroke:#000000;stroke-width:4.50372744;stroke-miterlimit:4;stroke-dasharray:none;stroke-opacity:1" />
    <g
       id="g4149"
       transform="translate(-751.06328,-329.94351)">
      <g
         word-spacing="normal"
         letter-spacing="normal"
         font-size-adjust="none"
         font-stretch="normal"
         font-weight="normal"
         font-variant="normal"
         font-style="normal"
         stroke-miterlimit="10.433"
         xml:space="preserve"
         transform="matrix(1.0629921,0,0,-1.0629921,-186.02362,789.27165)"
         id="content"
         style="font-style:normal;font-variant:normal;font-weight:normal;font-stretch:normal;letter-spacing:normal;word-spacing:normal;text-anchor:start;fill:none;fill-opacity:1;fill-rule:evenodd;stroke:#000000;stroke-linecap:butt;stroke-linejoin:miter;stroke-miterlimit:10.43299961;stroke-dasharray:none;stroke-dashoffset:0;stroke-opacity:1"><path
           id="path4152"
           d="m 1067.7,379.07 0.1,1.4 -8.3,0 -0.8,-1.54 c -1.3,-2.54 -2.3,-4.24 -3.4,-6.23 l -12.3,-21.02 -7.4,28.79 -8.4,0 -0.1,-1.4 1.3,-0.09 c 2.6,-0.2 3.5,-0.7 3.5,-2 0,-0.3 -0.1,-0.64 -0.2,-0.99 l -7.2,-25.36 c -0.8,-2.59 -1.6,-3.24 -4.3,-3.49 l -0.2,-1.29 11.1,0 0.2,1.4 -1.9,0.14 c -1.6,0.11 -2.5,0.6 -2.5,1.35 0,0.5 0.1,1.15 0.4,2.04 l 6.1,23.11 7.5,-28.79 1.1,0 2.9,5.19 c 3.9,7.02 8.5,15.09 11.9,20.62 l 2.6,4.33 -1.9,-25.9 c -0.2,-1.4 -0.8,-1.75 -3.3,-1.95 l -1.6,-0.14 -0.1,-1.4 13.3,0 0.1,1.4 -1.8,0.14 c -1.8,0.15 -2.7,0.7 -2.7,1.75 l 0,1.84 2.1,26.45 c 0.1,0.95 0.8,1.45 2.3,1.55 z"
           inkscape:connector-curvature="0"
           style="fill:#000000;stroke-width:0" /><path
           id="path4154"
           d="m 1104.3,389.7 0,0.07 0,0.06 -0.1,0.06 0,0.06 -0.1,0.05 0,0.05 0,0.05 -0.1,0.05 0,0.04 0,0.04 -0.1,0.04 0,0.03 -0.1,0.03 0,0.03 0,0.03 -0.1,0.03 0,0.02 0,0.02 -0.1,0.02 0,0.02 0,0.01 -0.1,0.02 0,0.01 0,0.01 -0.1,0.01 0,0.01 0,0 -0.1,0.01 0,0 0,0 -0.1,0.01 c -0.4,0 -0.7,-0.16 -1.1,-0.89 l -9.6,-16.55 c -0.4,-0.73 -0.4,-0.88 -0.4,-1.1 0,-1.03 0.9,-1.03 1.8,-1.03 l 18.5,0 -0.9,2.07 -16.6,0 8.3,14.38 8.3,-14.38 0.9,-2.07 c 1.2,0 1.9,0 1.9,1.35 z"
           inkscape:connector-curvature="0"
           style="fill:#000000;stroke-width:0" /><path
           id="path4156"
           d="m 1087.8,354.98 -0.2,0 -0.2,0 -0.1,-0.01 -0.1,0 -0.1,-0.01 -0.1,0 -0.1,-0.01 0,-0.01 -0.1,-0.01 -0.1,-0.02 -0.1,-0.02 0,-0.02 -0.1,-0.02 -0.1,-0.03 0,-0.02 -0.1,-0.04 0,-0.03 -0.1,-0.04 0,-0.05 -0.1,-0.05 0,-0.05 0,-0.03 -0.1,-0.03 0,-0.03 0,-0.03 0,-0.03 0,-0.03 0,-0.04 0,-0.04 -0.1,-0.03 0,-0.04 0,-0.04 0,-0.05 0,-0.04 0,-0.04 0,-0.05 0,-0.05 c 0,-1.04 0.9,-1.04 1.8,-1.04 l 31,0 c 0.8,0 1.8,0 1.8,1.04 0,1.04 -1,1.04 -1.9,1.04 z"
           inkscape:connector-curvature="0"
           style="fill:#000000;stroke-width:0" /><path
           id="path4158"
           d="m 1087.7,365.05 -0.1,0 -0.2,0 -0.2,-0.01 -0.1,0 0,-0.01 -0.1,0 -0.1,-0.01 -0.1,-0.01 0,-0.01 -0.1,-0.02 -0.1,-0.02 0,-0.02 -0.1,-0.02 -0.1,-0.02 0,-0.03 -0.1,-0.04 0,-0.03 -0.1,-0.04 0,-0.05 -0.1,-0.04 0,-0.06 0,-0.03 -0.1,-0.02 0,-0.03 0,-0.04 0,-0.03 0,-0.03 0,-0.04 0,-0.04 -0.1,-0.03 0,-0.04 0,-0.04 0,-0.05 0,-0.04 0,-0.04 0,-0.05 0,-0.05 c 0,-1.04 1,-1.04 1.9,-1.04 l 30.8,0 c 0.9,0 1.9,0 1.9,1.04 0,1.04 -1,1.04 -1.8,1.04 z"
           inkscape:connector-curvature="0"
           style="fill:#000000;stroke-width:0" /><path
           id="path4160"
           d="m 1148.1,388.09 15.3,-31.38 -15.8,-27.33 0,-1.96 48.8,0 c 0,4.05 2.3,12.62 3.9,16.11 l -2.4,0 -0.7,-2.37 c -0.9,-2.86 -3.8,-5.93 -4.8,-6.28 -1.2,-0.49 -6.1,-0.83 -12.2,-0.83 l -25.5,0 14.7,25.52 -0.2,1.19 -13.4,26.36 27.2,0 c 8.5,0 10.6,-0.42 11.2,-3.28 l 1.2,-4.95 2.4,0 c -1,4.74 -1.2,7.6 -1.4,11.3 l -48.1,0 z"
           inkscape:connector-curvature="0"
           style="fill:#000000;stroke-width:0" /><path
           id="path4162"
           d="m 1153.8,293.95 0,-1.06 10.1,0 0,1.06 -1,0.07 c -1.5,0.12 -2,0.38 -2.5,1.29 l -6.5,11.62 8.4,9.54 c 1.1,1.25 1.4,1.48 2.4,1.59 l 1.1,0.08 0,1.06 -4.3,-0.11 c -0.5,0 -1,0 -4.4,0.11 l 0,-1.06 1.3,-0.08 c 1.2,-0.08 1.7,-0.26 1.7,-0.72 0,-0.41 -0.2,-0.75 -0.9,-1.59 l -6.1,-7.42 -3.9,7.54 c -0.4,0.68 -0.6,1.13 -0.6,1.43 0,0.46 0.5,0.68 1.7,0.76 l 1.4,0.08 0,1.06 -10.1,0 0,-1.06 1,-0.08 c 1.8,-0.19 2.3,-0.45 3.1,-1.85 l 5.5,-10.23 -9,-10.67 c -0.6,-0.68 -1.5,-1.14 -2.4,-1.25 l -1,-0.11 0,-1.06 9.2,0 0,1.06 -1.2,0.11 c -1.5,0.15 -2.1,0.38 -2.1,0.83 0,0.31 0.1,0.65 0.4,0.95 l 6.9,8.75 4.5,-8.56 c 0.3,-0.68 0.5,-1.17 0.5,-1.51 0,-0.31 -0.3,-0.42 -1.2,-0.42 l -0.6,-0.04 z"
           inkscape:connector-curvature="0"
           style="fill:#000000;stroke-width:0" /><path
           id="path4164"
           d="m 1171.7,297.2 -0.1,0 -0.2,-0.01 -0.1,-0.01 -0.1,-0.02 -0.1,-0.03 -0.1,-0.03 -0.1,-0.04 -0.1,-0.04 -0.1,-0.05 0,-0.05 -0.1,-0.05 -0.1,-0.06 -0.1,-0.07 -0.1,-0.06 -0.1,-0.07 0,-0.08 -0.1,-0.08 -0.1,-0.08 -0.1,-0.08 0,-0.09 -0.1,-0.09 0,-0.09 -0.1,-0.09 0,-0.1 -0.1,-0.1 0,-0.1 0,-0.1 -0.1,-0.1 0,-0.11 0,-0.1 0,-0.11 0,-0.1 c 0,-1.14 1,-2.2 2.1,-2.2 1.2,0 2.3,1.02 2.3,2.2 0,1.13 -1.1,2.19 -2.2,2.19 z"
           inkscape:connector-curvature="0"
           style="fill:#000000;stroke-width:0" /><path
           id="path4166"
           d="m 1171.7,310.26 -0.1,0 -0.2,-0.01 -0.1,-0.02 -0.1,-0.02 -0.1,-0.02 -0.1,-0.03 -0.1,-0.04 -0.1,-0.04 -0.1,-0.05 0,-0.05 -0.1,-0.05 -0.1,-0.06 -0.1,-0.07 -0.1,-0.06 -0.1,-0.08 0,-0.07 -0.1,-0.08 -0.1,-0.08 -0.1,-0.08 0,-0.09 -0.1,-0.09 0,-0.09 -0.1,-0.09 0,-0.1 -0.1,-0.1 0,-0.1 0,-0.1 -0.1,-0.1 0,-0.11 0,-0.1 0,-0.11 0,-0.1 c 0,-1.14 1,-2.2 2.1,-2.2 1.2,0 2.3,1.02 2.3,2.16 0,1.17 -1.1,2.23 -2.2,2.23 z"
           inkscape:connector-curvature="0"
           style="fill:#000000;stroke-width:0" /><path
           id="path4168"
           d="m 1207.1,318.14 0.1,1.06 -9.4,0 -0.2,-1.06 1.8,-0.08 c 1,-0.04 1.4,-0.34 1.4,-1.06 0,-0.19 0,-0.3 -0.1,-0.45 l -2.6,-16.85 c -1.9,-2.2 -3,-3.18 -4.9,-4.13 -1.5,-0.75 -2.9,-1.09 -4.3,-1.09 -3.2,0 -5.3,1.7 -5.3,4.35 0,0.64 0.1,1.25 0.3,2.31 l 3.3,18.06 -6.8,0 -0.1,-1.06 2,-0.08 c 1,-0.04 1.3,-0.22 1.3,-0.87 0,-0.34 -0.1,-1.4 -0.3,-2.19 l -2.4,-14.2 c -0.1,-0.8 -0.2,-1.74 -0.2,-2.35 0,-3.82 2.5,-6.17 6.7,-6.17 1.7,0 3.3,0.38 5.1,1.29 2.2,1.09 3.4,2.04 5.4,4.31 -0.3,-1.74 -0.5,-2.72 -1,-4.81 l 0.2,-0.18 6.6,0 0.1,1.06 -2.2,0.15 c -0.9,0.07 -1.2,0.3 -1.2,0.79 0,0.57 0,0.76 0.2,2.12 l 3.2,19.2 c 0.2,1.43 0.5,1.66 1.9,1.81 z"
           inkscape:connector-curvature="0"
           style="fill:#000000;stroke-width:0" /><path
           id="path4170"
           d="m 1218.7,365.33 0.3,-1 1.6,1.05 c 1.9,1.14 2,1.24 2.4,1.24 0.5,0 0.9,-0.5 0.9,-1.14 0,-0.35 -0.2,-1.5 -0.4,-2.19 l -3.3,-11.96 c -0.4,-1.54 -0.7,-2.89 -0.7,-3.83 0,-1.2 0.6,-1.95 1.5,-1.95 1.3,0 3.1,1.05 8,4.68 l -0.5,0.9 -1.3,-0.84 c -1.4,-0.95 -2.6,-1.5 -3,-1.5 -0.4,0 -0.7,0.5 -0.7,1 0,0.5 0.1,0.94 0.4,1.99 l 3.8,15.14 c 0.2,0.85 0.3,1.4 0.3,1.79 0,0.85 -0.4,1.3 -1.2,1.3 -1.1,0 -3,-1.05 -6.7,-3.69 z"
           inkscape:connector-curvature="0"
           style="fill:#000000;stroke-width:0" /><path
           id="path4172"
           d="m 1228.4,381.47 -0.2,-0.01 -0.1,-0.01 -0.1,-0.02 -0.2,-0.03 -0.1,-0.05 -0.1,-0.04 -0.2,-0.06 -0.1,-0.06 -0.1,-0.08 -0.2,-0.07 -0.1,-0.09 -0.1,-0.09 -0.1,-0.1 -0.1,-0.1 -0.1,-0.11 -0.1,-0.12 -0.1,-0.11 -0.1,-0.13 -0.1,-0.13 -0.1,-0.13 -0.1,-0.14 -0.1,-0.14 0,-0.14 -0.1,-0.14 0,-0.15 -0.1,-0.15 0,-0.16 -0.1,-0.15 0,-0.16 0,-0.15 0,-0.16 0,-0.16 c 0,-1.25 0.7,-2.04 1.9,-2.04 1.6,0 2.8,1.44 2.8,3.34 0,1.19 -0.8,2.04 -1.8,2.04 z"
           inkscape:connector-curvature="0"
           style="fill:#000000;stroke-width:0" /><path
           id="path4174"
           d="m 1233.5,353.37 0,-0.47 -0.1,-0.45 0,-0.43 -0.1,-0.42 0,-0.42 -0.1,-0.4 0,-0.4 -0.1,-0.39 -0.1,-0.77 -0.1,-0.39 -0.1,-0.4 -0.1,-0.39 -0.1,-0.41 0,-0.41 -0.2,-0.42 c 1.9,-0.9 3.6,-1.35 5.4,-1.35 2.4,0 4.7,0.9 7.3,2.89 2.5,1.99 3.5,3.84 3.5,6.33 0,2.69 -1.6,4.13 -5.2,4.83 l -2.2,0.4 c -3,0.55 -3.9,1.39 -3.9,3.44 0,2.64 2.2,4.68 5.1,4.68 2,0 3.9,-0.9 4.7,-2.24 l 0,-2.74 1.1,0 c 0.2,1.74 0.4,3.08 1,5.62 -2,0.95 -3.4,1.35 -5,1.35 -2.6,0 -5.6,-1.49 -8,-3.89 -1.3,-1.34 -1.9,-2.58 -1.9,-4.38 0,-2.79 1.6,-4.38 4.9,-5.03 l 3.1,-0.6 c 2.2,-0.4 3,-1.29 3,-3.23 0,-3.24 -2.3,-5.43 -5.8,-5.43 -1.8,0 -3.3,0.54 -4.7,1.74 l 0,4.18 z"
           inkscape:connector-curvature="0"
           style="fill:#000000;stroke-width:0" /><path
           id="path4176"
           d="m 1268.2,378.18 5.3,0.2 c 3.1,0 5.1,-0.45 5.2,-1.2 l 0.4,-4.43 1.1,0 c 0.2,3.14 0.6,5.68 1.1,7.57 -1.1,0.1 -2.5,0.15 -3.3,0.15 l -19.3,0 -0.2,-1.4 2.8,-0.09 c 1.2,-0.05 1.8,-0.5 1.8,-1.35 0,-0.7 -0.2,-2.29 -0.5,-3.79 l -3.7,-21.61 c -0.9,-4.59 -0.9,-4.64 -2.9,-4.84 l -1.8,-0.14 -0.2,-1.4 13.2,0 0.1,1.4 -3.1,0.14 c -1.4,0.06 -1.8,0.45 -1.8,1.45 0,0.3 0,0.85 0.1,1.05 l 1.8,11.1 5.8,0 c 1.3,0 2.9,-0.04 5.3,-0.15 l 1.3,-0.05 0.9,2.25 -0.2,0.34 c -4,-0.2 -7,-0.29 -10.9,-0.29 l -1.8,0 2.2,13.5 c 0.2,0.79 0.3,1.04 0.5,1.59 z"
           inkscape:connector-curvature="0"
           style="fill:#000000;stroke-width:0" /><path
           id="path4178"
           d="m 1284.7,365.33 0.3,-1 1.6,1.05 c 1.9,1.14 2,1.24 2.4,1.24 0.5,0 0.9,-0.5 0.9,-1.14 0,-0.35 -0.2,-1.5 -0.4,-2.19 l -3.3,-11.96 c -0.4,-1.54 -0.7,-2.89 -0.7,-3.83 0,-1.2 0.6,-1.95 1.5,-1.95 1.3,0 3.1,1.05 8,4.68 l -0.5,0.9 -1.3,-0.84 c -1.4,-0.95 -2.6,-1.5 -3,-1.5 -0.4,0 -0.7,0.5 -0.7,1 0,0.5 0.1,0.94 0.4,1.99 l 3.8,15.14 c 0.2,0.85 0.3,1.4 0.3,1.79 0,0.85 -0.4,1.3 -1.2,1.3 -1.1,0 -3,-1.05 -6.7,-3.69 z"
           inkscape:connector-curvature="0"
           style="fill:#000000;stroke-width:0" /><path
           id="path4180"
           d="m 1294.4,381.47 -0.2,-0.01 -0.1,-0.01 -0.1,-0.02 -0.2,-0.03 -0.1,-0.05 -0.1,-0.04 -0.2,-0.06 -0.1,-0.06 -0.1,-0.08 -0.2,-0.07 -0.1,-0.09 -0.1,-0.09 -0.1,-0.1 -0.1,-0.1 -0.1,-0.11 -0.1,-0.12 -0.1,-0.11 -0.1,-0.13 -0.1,-0.13 -0.1,-0.13 -0.1,-0.14 -0.1,-0.14 0,-0.14 -0.1,-0.14 0,-0.15 -0.1,-0.15 0,-0.16 -0.1,-0.15 0,-0.16 0,-0.15 0,-0.16 0,-0.16 c 0,-1.25 0.7,-2.04 1.9,-2.04 1.6,0 2.8,1.44 2.8,3.34 0,1.19 -0.8,2.04 -1.8,2.04 z"
           inkscape:connector-curvature="0"
           style="fill:#000000;stroke-width:0" /><path
           id="path4182"
           d="m 1299.2,365.33 0.3,-1 1.6,1.05 c 1.9,1.14 2,1.24 2.4,1.24 0.5,0 0.9,-0.5 0.9,-1.24 0,-2.54 -2.1,-12.16 -4.1,-19.28 l 0.3,-0.55 c 1.3,0.35 2.4,0.65 3.5,0.85 1,6.28 2,9.51 4.3,12.95 2.7,4.19 6.4,7.27 8.7,7.27 0.5,0 0.8,-0.44 0.8,-1.19 0,-0.9 -0.1,-1.95 -0.5,-3.54 l -2.6,-10.56 c -0.5,-1.84 -0.7,-2.99 -0.7,-3.79 0,-1.24 0.6,-1.99 1.5,-1.99 1.3,0 3.1,1.05 8,4.68 l -0.5,0.9 -1.3,-0.84 c -1.4,-0.95 -2.5,-1.5 -3,-1.5 -0.4,0 -0.7,0.45 -0.7,1 0,0.25 0.1,0.79 0.1,0.99 l 3.3,13.75 c 0.4,1.45 0.6,2.84 0.6,3.68 0,1.15 -0.6,1.8 -1.6,1.8 -2.1,0 -5.5,-1.89 -8.4,-4.63 -1.9,-1.75 -3.3,-3.44 -5.9,-7.08 l 1.9,8.02 c 0.2,0.9 0.3,1.5 0.3,2.05 0,1.04 -0.4,1.64 -1.2,1.64 -1,0 -3,-1.1 -6.6,-3.69 z"
           inkscape:connector-curvature="0"
           style="fill:#000000;stroke-width:0" /><path
           id="path4184"
           d="m 1328.7,365.33 0.3,-1 1.6,1.05 c 1.9,1.14 2,1.24 2.4,1.24 0.5,0 0.9,-0.5 0.9,-1.14 0,-0.35 -0.2,-1.5 -0.4,-2.19 l -3.3,-11.96 c -0.4,-1.54 -0.7,-2.89 -0.7,-3.83 0,-1.2 0.6,-1.95 1.5,-1.95 1.3,0 3.1,1.05 8,4.68 l -0.5,0.9 -1.3,-0.84 c -1.4,-0.95 -2.6,-1.5 -3,-1.5 -0.4,0 -0.7,0.5 -0.7,1 0,0.5 0.1,0.94 0.4,1.99 l 3.8,15.14 c 0.2,0.85 0.3,1.4 0.3,1.79 0,0.85 -0.4,1.3 -1.2,1.3 -1.1,0 -3,-1.05 -6.7,-3.69 z"
           inkscape:connector-curvature="0"
           style="fill:#000000;stroke-width:0" /><path
           id="path4186"
           d="m 1338.4,381.47 -0.2,-0.01 -0.1,-0.01 -0.1,-0.02 -0.2,-0.03 -0.1,-0.05 -0.1,-0.04 -0.2,-0.06 -0.1,-0.06 -0.1,-0.08 -0.2,-0.07 -0.1,-0.09 -0.1,-0.09 -0.1,-0.1 -0.1,-0.1 -0.1,-0.11 -0.1,-0.12 -0.1,-0.11 -0.1,-0.13 -0.1,-0.13 -0.1,-0.13 -0.1,-0.14 -0.1,-0.14 0,-0.14 -0.1,-0.14 0,-0.15 -0.1,-0.15 0,-0.16 -0.1,-0.15 0,-0.16 0,-0.15 0,-0.16 0,-0.16 c 0,-1.25 0.7,-2.04 1.9,-2.04 1.6,0 2.8,1.44 2.8,3.34 0,1.19 -0.8,2.04 -1.8,2.04 z"
           inkscape:connector-curvature="0"
           style="fill:#000000;stroke-width:0" /><path
           id="path4188"
           d="m 1348.2,365.43 -2.8,-14.1 c 0,-0.35 -0.1,-0.45 -0.2,-1.04 -0.3,-1.4 -0.4,-2.15 -0.4,-2.75 0,-1.24 0.5,-1.99 1.5,-1.99 1.7,0 3.5,1 7.4,4.14 l 0.7,0.6 0.8,0.64 -0.5,0.9 -2.2,-1.54 c -1.5,-1 -2.5,-1.5 -3,-1.5 -0.5,0 -0.7,0.4 -0.7,1 0,1.29 0.7,5.33 2.1,12.55 l 0.7,3.09 5.3,0 0.5,2.49 c -1.8,-0.2 -3.5,-0.3 -5.4,-0.3 0.8,4.68 1.3,7.12 2.2,9.81 l -0.5,0.75 c -1,-0.6 -2.4,-1.2 -3.9,-1.79 l -1.3,-8.47 c -2.2,-1.05 -3.5,-1.6 -4.4,-1.85 l -0.1,-0.64 z"
           inkscape:connector-curvature="0"
           style="fill:#000000;stroke-width:0" /><path
           id="path4190"
           d="m 1376.3,351.53 -1.2,-0.85 c -2.6,-1.89 -5,-2.89 -6.8,-2.89 -2.3,0 -3.8,1.85 -3.8,4.83 0,1.25 0.2,2.59 0.4,4.04 l 0.3,1.14 0.4,1.85 c 0.9,3.44 1.9,5.58 3.3,6.87 0.9,0.8 2.5,1.4 3.7,1.4 1.4,0 2.3,-1 2.3,-2.59 0,-2.19 -1.7,-4.54 -4.3,-5.78 -1.4,-0.7 -3.2,-1.25 -5.4,-1.75 l -0.3,-1.14 4.1,1 c 0.9,0.2 2.2,0.7 3.4,1.24 4.3,1.85 6.2,4.14 6.2,7.22 0,2.34 -1.7,3.89 -4.2,3.89 -3.2,0 -8.7,-3.44 -10.7,-6.63 -1.5,-2.49 -2.9,-8.42 -2.9,-11.75 0,-3.89 2.1,-6.18 5.7,-6.18 2.9,0 5.7,1.4 10.2,5.13 z"
           inkscape:connector-curvature="0"
           style="fill:#000000;stroke-width:0" /><path
           id="path4192"
           d="m 1397.2,333.54 0,0.03 0,0.03 0,0.02 0,0.01 0,0.02 0,0.01 0,0.02 0,0.02 -0.1,0.02 0,0.02 0,0.02 0,0.03 0,0.02 0,0.03 -0.1,0.03 0,0.03 0,0.04 0,0.04 -0.1,0.02 0,0.02 0,0.02 0,0.02 0,0.02 0,0.03 -0.1,0.02 0,0.03 0,0.02 0,0.03 -0.1,0.03 0,0.02 0,0.03 0,0.03 -0.1,0.04 0,0.03 0,0.03 -0.1,0.04 0,0.03 0,0.04 -0.1,0.03 0,0.04 -0.1,0.04 0,0.04 c -6.5,6.55 -8.1,16.36 -8.1,24.3 0,9.03 1.9,18.06 8.3,24.55 0.7,0.62 0.7,0.72 0.7,0.88 0,0.36 -0.2,0.52 -0.5,0.52 -0.6,0 -5.2,-3.53 -8.3,-10.12 -2.6,-5.71 -3.3,-11.47 -3.3,-15.83 0,-4.05 0.6,-10.33 3.5,-16.2 3.1,-6.38 7.5,-9.76 8.1,-9.76 0.3,0 0.5,0.16 0.5,0.52 z"
           inkscape:connector-curvature="0"
           style="fill:#000000;stroke-width:0" /><path
           id="path4194"
           d="m 1422.7,347.25 0,-1.4 13.4,0 0,1.4 -1.3,0.09 c -2,0.16 -2.7,0.5 -3.4,1.7 l -8.5,15.29 11,12.55 c 1.5,1.65 2,1.95 3.3,2.1 l 1.4,0.09 0,1.4 -5.7,-0.15 c -0.6,0 -1.3,0 -5.7,0.15 l 0,-1.4 1.6,-0.09 c 1.6,-0.1 2.2,-0.35 2.2,-0.95 0,-0.55 -0.2,-0.99 -1.1,-2.09 l -8,-9.76 -5.2,9.91 c -0.5,0.89 -0.7,1.49 -0.7,1.89 0,0.6 0.6,0.9 2.1,1 l 1.9,0.09 0,1.4 -13.3,0 0,-1.4 1.3,-0.09 c 2.5,-0.25 3.1,-0.6 4.1,-2.44 l 7.2,-13.45 -11.8,-14.05 c -0.8,-0.9 -1.9,-1.5 -3.1,-1.65 l -1.4,-0.14 0,-1.4 12.2,0 0,1.4 -1.6,0.14 c -1.9,0.2 -2.8,0.5 -2.8,1.1 0,0.4 0.2,0.85 0.5,1.24 l 9.1,11.51 5.9,-11.26 c 0.5,-0.89 0.7,-1.54 0.7,-1.99 0,-0.4 -0.3,-0.54 -1.6,-0.54 l -0.8,-0.06 z"
           inkscape:connector-curvature="0"
           style="fill:#000000;stroke-width:0" /><path
           id="path4196"
           d="m 1456,358.98 0,0.38 0,0.4 0,0.41 0,0.42 -0.1,0.88 0,0.92 -0.1,0.95 -0.1,0.99 -0.2,1.02 -0.1,1.04 -0.2,1.07 -0.3,1.08 -0.3,1.09 -0.3,1.11 -0.4,1.11 -0.4,1.11 -0.2,0.55 -0.2,0.56 -0.3,0.55 -0.2,0.55 c -3.1,6.38 -7.6,9.76 -8.1,9.76 -0.3,0 -0.5,-0.21 -0.5,-0.52 0,-0.16 0,-0.26 0.9,-1.2 5.1,-5.13 8.1,-13.39 8.1,-24.23 0,-8.88 -1.9,-18.02 -8.4,-24.55 -0.6,-0.63 -0.6,-0.73 -0.6,-0.89 0,-0.31 0.2,-0.52 0.5,-0.52 0.5,0 5.2,3.53 8.2,10.12 2.7,5.72 3.3,11.48 3.3,15.84 z"
           inkscape:connector-curvature="0"
           style="fill:#000000;stroke-width:0" /></g>    </g>
    <g
       id="g5541"
       transform="translate(-705.08648,385.87827)">
      <g
         word-spacing="normal"
         letter-spacing="normal"
         font-size-adjust="none"
         font-stretch="normal"
         font-weight="normal"
         font-variant="normal"
         font-style="normal"
         stroke-miterlimit="10.433"
         xml:space="preserve"
         transform="matrix(1.0629921,0,0,-1.0629921,-186.02362,789.27165)"
         id="g5543"
         style="font-style:normal;font-variant:normal;font-weight:normal;font-stretch:normal;letter-spacing:normal;word-spacing:normal;text-anchor:start;fill:none;fill-opacity:1;fill-rule:evenodd;stroke:#000000;stroke-linecap:butt;stroke-linejoin:miter;stroke-miterlimit:10.43299961;stroke-dasharray:none;stroke-dashoffset:0;stroke-opacity:1"><path
           id="path5545"
           d="m 1076.2,333.54 0,0.03 0,0.03 0,0.02 0,0.01 0,0.02 0,0.01 0,0.02 0,0.02 -0.1,0.02 0,0.02 0,0.02 0,0.03 0,0.02 0,0.03 -0.1,0.03 0,0.03 0,0.04 0,0.04 -0.1,0.02 0,0.02 0,0.02 0,0.02 0,0.02 0,0.03 -0.1,0.02 0,0.03 0,0.02 0,0.03 -0.1,0.03 0,0.02 0,0.03 0,0.03 -0.1,0.04 0,0.03 0,0.03 -0.1,0.04 0,0.03 0,0.04 -0.1,0.03 0,0.04 -0.1,0.04 0,0.04 c -6.5,6.55 -8.1,16.36 -8.1,24.3 0,9.03 1.9,18.06 8.3,24.55 0.7,0.62 0.7,0.72 0.7,0.88 0,0.36 -0.2,0.52 -0.5,0.52 -0.6,0 -5.2,-3.53 -8.3,-10.12 -2.6,-5.71 -3.3,-11.47 -3.3,-15.83 0,-4.05 0.6,-10.33 3.5,-16.2 3.1,-6.38 7.5,-9.76 8.1,-9.76 0.3,0 0.5,0.16 0.5,0.52 z"
           inkscape:connector-curvature="0"
           style="fill:#000000;stroke-width:0" /><path
           id="path5547"
           d="m 1092,362.64 5.8,0 c 1.4,0 2.9,-0.05 5.3,-0.15 l 1.3,-0.05 1,2.24 -0.2,0.35 c -4.1,-0.2 -7.1,-0.3 -11,-0.3 l -1.8,0 2.1,11.86 c 0.2,0.79 0.3,1.19 0.4,1.59 l 2.4,0.1 c 1.6,0.05 3.2,0.1 4.3,0.1 3.1,0 5.1,-0.45 5.2,-1.2 l 0.4,-4.43 1.1,0 c 0.2,3.19 0.5,5.68 1.1,7.57 -1.1,0.1 -2.6,0.15 -3.4,0.15 l -19.8,0 -0.1,-1.4 2.7,-0.09 c 1.2,-0.05 1.7,-0.45 1.7,-1.35 0,-0.7 -0.2,-2.29 -0.4,-3.79 l -4.4,-25.1 c -0.2,-0.9 -0.8,-1.24 -3,-1.6 l -0.2,-1.29 18.9,0 c 0.7,0 1.9,0.05 3.6,0.1 l 1.6,0.05 0.2,1.79 c 0.1,1 0.4,2.5 0.8,4.94 l 0.2,1.29 -1.3,0 -0.8,-2.99 c -0.5,-1.79 -0.9,-2.39 -2,-2.64 -1,-0.2 -4.7,-0.45 -7.4,-0.45 -2,0 -3.1,0.05 -6.5,0.35 l 0,0.2 c 0,0.7 0,1.1 0.1,1.55 z"
           inkscape:connector-curvature="0"
           style="fill:#000000;stroke-width:0" /><path
           id="path5549"
           d="m 1149.4,351.13 -1.3,-0.84 c -1.5,-0.95 -2.6,-1.5 -3.1,-1.5 -0.3,0 -0.6,0.45 -0.6,1 0,0.5 0.1,0.94 0.3,1.99 l 3.8,14.79 c 0.2,0.85 0.3,1.64 0.3,2.04 0,0.85 -0.5,1.4 -1.3,1.4 -1.4,0 -3.3,-0.9 -6.4,-3.04 -3.1,-2.24 -4.8,-3.99 -7.3,-7.42 l 1.5,6.83 c 0.2,0.99 0.4,1.74 0.4,2.08 0,0.95 -0.5,1.55 -1.3,1.55 -1.5,0 -3.8,-1.1 -6.6,-3.19 -2.1,-1.69 -3.1,-2.74 -6.4,-7.12 l 1.7,6.62 c 0.2,0.8 0.3,1.55 0.3,2.14 0,0.95 -0.5,1.55 -1.2,1.55 -1,0 -2.9,-1.05 -6.6,-3.69 l -1.4,-0.99 0.3,-1 1.6,1.05 c 1.9,1.14 2,1.24 2.4,1.24 0.5,0 0.9,-0.5 0.9,-1.24 0,-2.54 -2.1,-12.16 -4.1,-19.28 l 0.1,-0.55 3.4,0.75 1.1,5.08 c 1.2,5.53 2.6,8.47 5.3,11.46 2.1,2.29 4.3,3.78 5.7,3.78 0.4,0 0.6,-0.4 0.6,-1.04 0,-1.75 -1.1,-7.42 -3.2,-16.14 l -0.7,-3.34 0.2,-0.55 3.4,0.75 1.1,5.33 c 0.8,4.03 2.5,7.77 4.7,10.21 2.7,3.04 5.2,4.78 6.8,4.78 0.4,0 0.6,-0.44 0.6,-1.24 0,-1.2 -0.1,-1.9 -1.2,-6.23 -0.8,-3.14 -1.7,-6.13 -2.2,-7.82 -0.4,-1.4 -0.6,-2.69 -0.6,-3.79 0,-1.24 0.5,-1.99 1.5,-1.99 1.3,0 3.1,1.05 8,4.68 z"
           inkscape:connector-curvature="0"
           style="fill:#000000;stroke-width:0" /><path
           id="path5551"
           d="m 1160.7,346.15 0.5,-0.15 c 1.3,-0.4 2,-0.55 2.6,-0.55 l 1.5,2.34 c -1.5,0 -2.8,0.35 -4.1,1.15 l 0.9,5.28 c 1.1,6.37 6.5,12.9 10.6,12.9 1.3,0 1.9,-1.1 1.9,-3.39 0,-4.03 -2,-9.96 -4.7,-13.75 -1,-1.44 -2.5,-2.19 -4.6,-2.19 l -1.5,-2.34 c 2.8,0 8.5,3.64 10.6,6.78 2.1,3.04 3.8,8.52 3.8,12.25 0,3.34 -1.2,5.53 -3,5.53 -2.1,0 -4.7,-1.3 -7.3,-3.63 -2,-1.75 -3,-3.04 -4.8,-5.99 l 1.2,5.93 c 0.1,0.85 0.2,1.6 0.2,2.2 0,0.94 -0.4,1.49 -1.1,1.49 -1,0 -2.9,-1.05 -6.6,-3.69 l -1.4,-0.99 0.4,-1 1.5,1.05 c 1.4,0.89 2,1.14 2.4,1.14 0.5,0 0.9,-0.45 0.9,-1.14 0,-0.4 -0.1,-1.4 -0.2,-1.9 l -2.9,-17.08 c -0.5,-2.99 -1.4,-7.52 -2.4,-12.01 l -0.4,-1.84 0.3,-0.3 c 1.1,0.35 2,0.6 3.6,0.85 z"
           inkscape:connector-curvature="0"
           style="fill:#000000;stroke-width:0" /><path
           id="path5553"
           d="m 1188.2,365.43 -2.8,-14.1 c 0,-0.35 -0.1,-0.45 -0.2,-1.04 -0.3,-1.4 -0.4,-2.15 -0.4,-2.75 0,-1.24 0.5,-1.99 1.5,-1.99 1.7,0 3.5,1 7.4,4.14 l 0.7,0.6 0.8,0.64 -0.5,0.9 -2.2,-1.54 c -1.5,-1 -2.5,-1.5 -3,-1.5 -0.5,0 -0.7,0.4 -0.7,1 0,1.29 0.7,5.33 2.1,12.55 l 0.7,3.09 5.3,0 0.5,2.49 c -1.8,-0.2 -3.5,-0.3 -5.4,-0.3 0.8,4.68 1.3,7.12 2.2,9.81 l -0.5,0.75 c -1,-0.6 -2.4,-1.2 -3.9,-1.79 l -1.3,-8.47 c -2.2,-1.05 -3.5,-1.6 -4.4,-1.85 l -0.1,-0.64 z"
           inkscape:connector-curvature="0"
           style="fill:#000000;stroke-width:0" /><path
           id="path5555"
           d="m 1198.7,337.04 -0.1,-0.07 0,-0.06 0,-0.07 0,-0.06 0,-0.06 0,-0.06 0,-0.06 0,-0.05 0,-0.06 0,-0.05 0,-0.05 0,-0.06 0,-0.05 0,-0.05 0,-0.05 0,-0.04 c 0,-2.14 1.8,-3.89 4.1,-3.89 5.3,0 10.7,6.18 13.7,15.39 l 7,21.92 -0.5,0.45 c -1.5,-0.55 -2.6,-0.85 -3.7,-0.95 l -1.8,-6.57 c -0.6,-2.34 -2.3,-5.98 -4,-8.42 -1.7,-2.54 -4.1,-4.73 -5.2,-4.73 -0.6,0 -1.1,1.14 -1,2.39 l 0,0.65 0.8,9.66 c 0.1,1.55 0.2,3.44 0.2,4.83 0,2.24 -0.4,3.14 -1.2,3.14 -0.7,0 -1.4,-0.35 -3.8,-1.99 l -4,-2.79 0.5,-0.9 2.5,1.49 0.2,0.16 c 0.5,0.29 0.8,0.44 1,0.44 0.7,0 1.1,-0.94 1.1,-2.59 0,-0.04 0,-0.35 0,-0.74 l -0.9,-12.11 0,-1.99 c 0,-2.09 0.9,-3.54 2.1,-3.54 1.9,0 6.1,4.24 9.8,9.87 l -2.4,-8.52 c -2.6,-8.82 -5.1,-12.46 -8.6,-12.46 -1.7,0 -3.1,1.35 -3.1,3.09 0,0.25 0.1,0.65 0.1,1.1 l -0.5,0.2 z"
           inkscape:connector-curvature="0"
           style="fill:#000000;stroke-width:0" /><path
           id="path5557"
           d="m 1235.2,352.13 -0.3,-0.08 -0.2,-0.08 -0.3,-0.08 -0.2,-0.08 -0.2,-0.08 -0.3,-0.07 -0.2,-0.08 -0.2,-0.05 -0.1,-0.04 -0.1,-0.04 -0.2,-0.04 -0.1,-0.05 -0.2,-0.04 -0.1,-0.05 -0.2,-0.05 -0.2,-0.05 -0.1,-0.05 -0.2,-0.06 -0.2,-0.05 -0.2,-0.06 -0.2,-0.06 -0.2,-0.06 -0.2,-0.06 -0.3,-0.07 -0.2,-0.07 c -0.4,-3.78 -1.6,-7.02 -4.5,-11.8 l 0.7,-0.55 2,0.95 c 4.1,5.23 6,8.36 7.4,12.2 z"
           inkscape:connector-curvature="0"
           style="fill:#000000;stroke-width:0" /><path
           id="path5559"
           d="m 1259.1,380.32 -0.7,-0.02 -0.7,-0.05 -0.7,-0.09 -0.6,-0.13 -0.6,-0.16 -0.6,-0.19 -0.6,-0.24 -0.6,-0.27 -0.5,-0.3 -0.5,-0.34 -0.5,-0.37 -0.5,-0.41 -0.4,-0.45 -0.4,-0.48 -0.4,-0.52 -0.4,-0.55 -0.4,-0.59 -0.3,-0.62 -0.3,-0.66 -0.3,-0.69 -0.3,-0.73 -0.2,-0.76 -0.2,-0.8 -0.2,-0.83 -0.2,-0.87 -0.1,-0.91 -0.2,-0.93 -0.1,-0.98 0,-1.01 -0.1,-1.04 0,-1.08 -0.1,-1.11 c 0,-5.83 1.1,-10.86 2.8,-13.3 1.8,-2.44 4.6,-3.84 7.7,-3.84 l 0.6,1.75 c -4.8,0 -6.9,5.03 -6.9,17.18 0,10.51 1.9,14.65 6.6,14.65 l 0,0 c 4.8,0 6.8,-4.88 6.8,-16.84 0,-10.61 -1.9,-14.99 -6.5,-14.99 l -0.6,-1.75 c 7.5,0 11.3,6.48 11.3,19.23 0,10.91 -3.3,16.09 -10.1,16.09 z"
           inkscape:connector-curvature="0"
           style="fill:#000000;stroke-width:0" /><path
           id="path5561"
           d="m 1281.2,352.13 -0.3,-0.08 -0.2,-0.08 -0.3,-0.08 -0.2,-0.08 -0.2,-0.08 -0.3,-0.07 -0.2,-0.08 -0.2,-0.05 -0.1,-0.04 -0.1,-0.04 -0.2,-0.04 -0.1,-0.05 -0.2,-0.04 -0.1,-0.05 -0.2,-0.05 -0.2,-0.05 -0.1,-0.05 -0.2,-0.06 -0.2,-0.05 -0.2,-0.06 -0.2,-0.06 -0.2,-0.06 -0.2,-0.06 -0.3,-0.07 -0.2,-0.07 c -0.4,-3.78 -1.6,-7.02 -4.5,-11.8 l 0.7,-0.55 2,0.95 c 4.1,5.23 6,8.36 7.4,12.2 z"
           inkscape:connector-curvature="0"
           style="fill:#000000;stroke-width:0" /><path
           id="path5563"
           d="m 1300.2,383.06 0,0.17 0,0.18 0,0.17 0,0.08 0,0.09 0,0.08 0,0.08 0,0.08 0,0.07 0,0.08 0,0.07 -0.1,0.07 0,0.07 0,0.06 0,0.06 -0.1,0.06 0,0.06 0,0.05 -0.1,0.04 0,0.05 -0.1,0.04 0,0.04 -0.1,0.01 0,0.02 0,0.01 -0.1,0.02 0,0.01 0,0.01 -0.1,0.01 0,0.01 -0.1,0 0,0.01 -0.1,0 0,0.01 0,0 -0.1,0 c -1,0 -1,-0.93 -1,-1.87 l 0,-48.17 c 0,-0.93 0,-1.87 1,-1.87 1,0 1,0.94 1,1.87 z"
           inkscape:connector-curvature="0"
           style="fill:#000000;stroke-width:0" /><path
           id="path5565"
           d="m 1329.7,346.15 0.5,-0.15 c 1.3,-0.4 2,-0.55 2.6,-0.55 l 1.5,2.34 c -1.5,0 -2.8,0.35 -4.1,1.15 l 0.9,5.28 c 1.1,6.37 6.5,12.9 10.6,12.9 1.3,0 1.9,-1.1 1.9,-3.39 0,-4.03 -2,-9.96 -4.7,-13.75 -1,-1.44 -2.5,-2.19 -4.6,-2.19 l -1.5,-2.34 c 2.8,0 8.5,3.64 10.6,6.78 2.1,3.04 3.8,8.52 3.8,12.25 0,3.34 -1.2,5.53 -3,5.53 -2.1,0 -4.7,-1.3 -7.3,-3.63 -2,-1.75 -3,-3.04 -4.8,-5.99 l 1.2,5.93 c 0.1,0.85 0.2,1.6 0.2,2.2 0,0.94 -0.4,1.49 -1.1,1.49 -1,0 -2.9,-1.05 -6.6,-3.69 l -1.4,-0.99 0.4,-1 1.5,1.05 c 1.4,0.89 2,1.14 2.4,1.14 0.5,0 0.9,-0.45 0.9,-1.14 0,-0.4 -0.1,-1.4 -0.2,-1.9 l -2.9,-17.08 c -0.5,-2.99 -1.4,-7.52 -2.4,-12.01 l -0.4,-1.84 0.3,-0.3 c 1.1,0.35 2,0.6 3.6,0.85 z"
           inkscape:connector-curvature="0"
           style="fill:#000000;stroke-width:0" /><path
           id="path5567"
           d="m 1351.6,356.85 1.2,0 0.7,2.12 c 0.4,1.29 2.8,2.58 4.7,2.58 2.5,0 4.5,-2.01 4.5,-4.39 0,-2.84 -2.2,-5.23 -4.9,-5.23 -0.3,0 -0.7,0.04 -1.2,0.08 l -0.6,0.04 -0.4,-2.01 0.2,-0.23 c 1.5,0.65 2.2,0.83 3.2,0.83 3.2,0 5,-2 5,-5.45 0,-3.86 -2.3,-6.39 -5.9,-6.39 -1.7,0 -3.3,0.56 -4.4,1.62 -0.9,0.83 -1.4,1.7 -2.1,3.75 l -1,-0.38 c 0.8,-2.31 1.1,-3.67 1.3,-5.56 2,-0.68 3.7,-0.99 5.1,-0.99 3,0 6.5,1.71 8.6,4.24 1.2,1.56 1.9,3.22 1.9,5 0,1.82 -0.8,3.41 -2.1,4.35 -1,0.69 -1.8,0.99 -3.7,1.33 3,2.35 4.1,4.09 4.1,6.32 0,3.37 -2.8,5.61 -7,5.61 -2.6,0 -4.3,-0.73 -6.1,-2.54 z"
           inkscape:connector-curvature="0"
           style="fill:#000000;stroke-width:0" /><path
           id="path5569"
           d="m 1394.2,383.06 0,0.17 0,0.18 0,0.17 0,0.08 0,0.09 0,0.08 0,0.08 0,0.08 0,0.07 0,0.08 0,0.07 -0.1,0.07 0,0.07 0,0.06 0,0.06 -0.1,0.06 0,0.06 0,0.05 -0.1,0.04 0,0.05 -0.1,0.04 0,0.04 -0.1,0.01 0,0.02 0,0.01 -0.1,0.02 0,0.01 0,0.01 -0.1,0.01 0,0.01 -0.1,0 0,0.01 -0.1,0 0,0.01 0,0 -0.1,0 c -1,0 -1,-0.93 -1,-1.87 l 0,-48.17 c 0,-0.93 0,-1.87 1,-1.87 1,0 1,0.94 1,1.87 z"
           inkscape:connector-curvature="0"
           style="fill:#000000;stroke-width:0" /><path
           id="path5571"
           d="m 1416,358.98 0,0.38 0,0.4 0,0.41 0,0.42 -0.1,0.88 0,0.92 -0.1,0.95 -0.1,0.99 -0.2,1.02 -0.1,1.04 -0.2,1.07 -0.3,1.08 -0.3,1.09 -0.3,1.11 -0.4,1.11 -0.4,1.11 -0.2,0.55 -0.2,0.56 -0.3,0.55 -0.2,0.55 c -3.1,6.38 -7.6,9.76 -8.1,9.76 -0.3,0 -0.5,-0.21 -0.5,-0.52 0,-0.16 0,-0.26 0.9,-1.2 5.1,-5.13 8.1,-13.39 8.1,-24.23 0,-8.88 -1.9,-18.02 -8.4,-24.55 -0.6,-0.63 -0.6,-0.73 -0.6,-0.89 0,-0.31 0.2,-0.52 0.5,-0.52 0.5,0 5.2,3.53 8.2,10.12 2.7,5.72 3.3,11.48 3.3,15.84 z"
           inkscape:connector-curvature="0"
           style="fill:#000000;stroke-width:0" /></g>    </g>
    <g
       transform="translate(-749.53319,6.0609153)"
       id="g5739">
      <g
         style="font-style:normal;font-variant:normal;font-weight:normal;font-stretch:normal;letter-spacing:normal;word-spacing:normal;text-anchor:start;fill:none;fill-opacity:1;fill-rule:evenodd;stroke:#000000;stroke-linecap:butt;stroke-linejoin:miter;stroke-miterlimit:10.43299961;stroke-dasharray:none;stroke-dashoffset:0;stroke-opacity:1"
         id="g5741"
         transform="matrix(1.0629921,0,0,-1.0629921,-186.02362,789.27165)"
         xml:space="preserve"
         stroke-miterlimit="10.433"
         font-style="normal"
         font-variant="normal"
         font-weight="normal"
         font-stretch="normal"
         font-size-adjust="none"
         letter-spacing="normal"
         word-spacing="normal"><path
           style="fill:#000000;stroke-width:0"
           inkscape:connector-curvature="0"
           d="m 1100.2,333.54 0,0.03 0,0.03 0,0.02 0,0.01 0,0.02 0,0.01 0,0.02 0,0.02 -0.1,0.02 0,0.02 0,0.02 0,0.03 0,0.02 0,0.03 -0.1,0.03 0,0.03 0,0.04 0,0.04 -0.1,0.02 0,0.02 0,0.02 0,0.02 0,0.02 0,0.03 -0.1,0.02 0,0.03 0,0.02 0,0.03 -0.1,0.03 0,0.02 0,0.03 0,0.03 -0.1,0.04 0,0.03 0,0.03 -0.1,0.04 0,0.03 0,0.04 -0.1,0.03 0,0.04 -0.1,0.04 0,0.04 c -6.5,6.55 -8.1,16.36 -8.1,24.3 0,9.03 1.9,18.06 8.3,24.55 0.7,0.62 0.7,0.72 0.7,0.88 0,0.36 -0.2,0.52 -0.5,0.52 -0.6,0 -5.2,-3.53 -8.3,-10.12 -2.6,-5.71 -3.3,-11.47 -3.3,-15.83 0,-4.05 0.6,-10.33 3.5,-16.2 3.1,-6.38 7.5,-9.76 8.1,-9.76 0.3,0 0.5,0.16 0.5,0.52 z"
           id="path5743" /><path
           style="fill:#000000;stroke-width:0"
           inkscape:connector-curvature="0"
           d="m 1109.8,379.07 2.7,-0.09 c 1.2,-0.05 1.7,-0.45 1.7,-1.35 0,-0.7 -0.2,-2.29 -0.4,-3.79 l -4.4,-25.1 c -0.2,-0.9 -0.8,-1.24 -2.9,-1.6 l -0.2,-1.29 1.8,0.05 c 1.4,0.1 2.1,0.1 2.7,0.1 0.6,0 1.9,-0.05 3.2,-0.1 l 1.8,-0.05 1,-0.05 c 1,-0.05 1.6,-0.1 2,-0.1 l 0.3,2 c -1,0 -2.5,0.04 -4.1,0.19 -0.3,0.05 -0.9,0.1 -1.7,0.15 l 2.5,14.9 0.3,1.79 2.5,13.65 c 0.5,0 0.6,0.05 1.6,0.1 1.1,0.1 1.7,0.15 2.3,0.15 4.1,0 6.1,-1.79 6.1,-5.53 0,-5.23 -3.7,-8.37 -9.9,-8.37 l -2.6,0 -0.3,-1.79 4.2,0 c 5.2,0 7.7,-2.1 7.7,-6.43 0,-5.13 -3.7,-8.81 -8.6,-8.81 l -0.3,-2 c 2.4,0 4.8,0.7 7.1,2.09 4,2.34 6.2,5.73 6.2,9.52 0,2.14 -0.8,3.78 -2.1,4.88 -1.3,1.04 -2.8,1.49 -6.2,1.99 2.8,1 4.1,1.6 5.6,2.99 2.3,1.94 3.4,4.28 3.4,6.83 0,4.08 -2.8,6.47 -7.8,6.47 l -15,0 z"
           id="path5745" /><path
           style="fill:#000000;stroke-width:0"
           inkscape:connector-curvature="0"
           d="m 1150.8,370.01 -0.4,-0.01 -0.4,-0.03 -0.4,-0.05 -0.4,-0.07 -0.4,-0.08 -0.4,-0.11 -0.5,-0.13 -0.4,-0.14 -0.4,-0.16 -0.4,-0.19 -0.5,-0.2 -0.4,-0.22 -0.4,-0.23 -0.4,-0.26 -0.5,-0.27 -0.4,-0.29 1.9,-0.3 c 0.7,0.55 1.8,0.85 3,0.85 l 0,0 c 3,0 4.7,-2.24 4.7,-6.43 0,-4.78 -1.6,-10.06 -3.8,-12.7 -0.8,-1.05 -2.1,-1.65 -3.7,-1.65 -2.9,0 -4.6,2.25 -4.6,6.18 0,5.63 2,11.76 4.4,13.75 l -1.9,0.3 c -4,-2.89 -6.3,-7.92 -6.3,-14 0,-5.28 2.3,-8.12 6.4,-8.12 2.8,0 5.7,1.3 8,3.39 3.1,2.94 5.3,8.62 5.3,13.65 0,4.68 -2.5,7.52 -6.7,7.52 z"
           id="path5747" /><path
           style="fill:#000000;stroke-width:0"
           inkscape:connector-curvature="0"
           d="m 1174.8,370.01 -0.4,-0.01 -0.4,-0.03 -0.4,-0.05 -0.4,-0.07 -0.4,-0.08 -0.4,-0.11 -0.5,-0.13 -0.4,-0.14 -0.4,-0.16 -0.4,-0.19 -0.5,-0.2 -0.4,-0.22 -0.4,-0.23 -0.4,-0.26 -0.5,-0.27 -0.4,-0.29 1.9,-0.3 c 0.7,0.55 1.8,0.85 3,0.85 l 0,0 c 3,0 4.7,-2.24 4.7,-6.43 0,-4.78 -1.6,-10.06 -3.8,-12.7 -0.8,-1.05 -2.1,-1.65 -3.7,-1.65 -2.9,0 -4.6,2.25 -4.6,6.18 0,5.63 2,11.76 4.4,13.75 l -1.9,0.3 c -4,-2.89 -6.3,-7.92 -6.3,-14 0,-5.28 2.3,-8.12 6.4,-8.12 2.8,0 5.7,1.3 8,3.39 3.1,2.94 5.3,8.62 5.3,13.65 0,4.68 -2.5,7.52 -6.7,7.52 z"
           id="path5749" /><path
           style="fill:#000000;stroke-width:0"
           inkscape:connector-curvature="0"
           d="m 1197.5,381.96 -0.6,0.55 c -2.6,-1.29 -4.4,-1.74 -8,-2.09 l -0.2,-1.04 2.4,0 c 1.2,0 1.7,-0.35 1.7,-1.1 0,-0.15 0,-0.4 -0.1,-1.3 l -0.2,-1.09 c -0.3,-2.74 -3.3,-18.23 -4.1,-20.73 l -0.7,-2.59 c -0.6,-2.48 -0.9,-3.98 -0.9,-5.03 0,-1.24 0.5,-1.99 1.5,-1.99 1.3,0 3.1,1.05 8,4.68 l -0.5,0.9 -1.3,-0.84 c -1.5,-0.95 -2.6,-1.5 -3.1,-1.5 -0.3,0 -0.6,0.5 -0.6,1 0,0.3 0,0.64 0.2,1.39 l 0.1,0.45 z"
           id="path5751" /><path
           style="fill:#000000;stroke-width:0"
           inkscape:connector-curvature="0"
           d="m 1210.2,352.13 -0.3,-0.08 -0.2,-0.08 -0.3,-0.08 -0.2,-0.08 -0.2,-0.08 -0.3,-0.07 -0.2,-0.08 -0.2,-0.05 -0.1,-0.04 -0.1,-0.04 -0.2,-0.04 -0.1,-0.05 -0.2,-0.04 -0.1,-0.05 -0.2,-0.05 -0.2,-0.05 -0.1,-0.05 -0.2,-0.06 -0.2,-0.05 -0.2,-0.06 -0.2,-0.06 -0.2,-0.06 -0.2,-0.06 -0.3,-0.07 -0.2,-0.07 c -0.4,-3.78 -1.6,-7.02 -4.5,-11.8 l 0.7,-0.55 2,0.95 c 4.1,5.23 6,8.36 7.4,12.2 z"
           id="path5753" /><path
           style="fill:#000000;stroke-width:0"
           inkscape:connector-curvature="0"
           d="m 1221.8,347.14 0,-1.29 22.5,0 c -0.1,1.05 -0.1,1.54 -0.1,2.24 0,0.65 0,1.15 0.1,2.24 -5.7,-0.24 -8,-0.29 -17.2,-0.49 l 9,9.61 c 4.9,5.13 6.4,7.87 6.4,11.6 0,5.74 -3.9,9.27 -10.2,9.27 -3.6,0 -6.1,-1 -8.5,-3.48 l -0.9,-6.78 1.5,0 0.6,2.29 c 0.8,2.89 2.6,4.13 6,4.13 4.2,0 7,-2.68 7,-6.92 0,-3.74 -2.1,-7.42 -7.7,-13.4 z"
           id="path5755" /><path
           style="fill:#000000;stroke-width:0"
           inkscape:connector-curvature="0"
           d="m 1256.2,352.13 -0.3,-0.08 -0.2,-0.08 -0.3,-0.08 -0.2,-0.08 -0.2,-0.08 -0.3,-0.07 -0.2,-0.08 -0.2,-0.05 -0.1,-0.04 -0.1,-0.04 -0.2,-0.04 -0.1,-0.05 -0.2,-0.04 -0.1,-0.05 -0.2,-0.05 -0.2,-0.05 -0.1,-0.05 -0.2,-0.06 -0.2,-0.05 -0.2,-0.06 -0.2,-0.06 -0.2,-0.06 -0.2,-0.06 -0.3,-0.07 -0.2,-0.07 c -0.4,-3.78 -1.6,-7.02 -4.5,-11.8 l 0.7,-0.55 2,0.95 c 4.1,5.23 6,8.36 7.4,12.2 z"
           id="path5757" /><path
           style="fill:#000000;stroke-width:0"
           inkscape:connector-curvature="0"
           d="m 1276.2,383.06 0,0.17 0,0.18 0,0.17 0,0.08 0,0.09 0,0.08 0,0.08 0,0.08 0,0.07 0,0.08 0,0.07 -0.1,0.07 0,0.07 0,0.06 0,0.06 -0.1,0.06 0,0.06 0,0.05 -0.1,0.04 0,0.05 -0.1,0.04 0,0.04 -0.1,0.01 0,0.02 0,0.01 -0.1,0.02 0,0.01 0,0.01 -0.1,0.01 0,0.01 -0.1,0 0,0.01 -0.1,0 0,0.01 0,0 -0.1,0 c -1,0 -1,-0.93 -1,-1.87 l 0,-48.17 c 0,-0.93 0,-1.87 1,-1.87 1,0 1,0.94 1,1.87 z"
           id="path5759" /><path
           style="fill:#000000;stroke-width:0"
           inkscape:connector-curvature="0"
           d="m 1305.7,346.15 0.5,-0.15 c 1.3,-0.4 2,-0.55 2.6,-0.55 l 1.5,2.34 c -1.5,0 -2.8,0.35 -4.1,1.15 l 0.9,5.28 c 1.1,6.37 6.5,12.9 10.6,12.9 1.3,0 1.9,-1.1 1.9,-3.39 0,-4.03 -2,-9.96 -4.7,-13.75 -1,-1.44 -2.5,-2.19 -4.6,-2.19 l -1.5,-2.34 c 2.8,0 8.5,3.64 10.6,6.78 2.1,3.04 3.8,8.52 3.8,12.25 0,3.34 -1.2,5.53 -3,5.53 -2.1,0 -4.7,-1.3 -7.3,-3.63 -2,-1.75 -3,-3.04 -4.8,-5.99 l 1.2,5.93 c 0.1,0.85 0.2,1.6 0.2,2.2 0,0.94 -0.4,1.49 -1.1,1.49 -1,0 -2.9,-1.05 -6.6,-3.69 l -1.4,-0.99 0.4,-1 1.5,1.05 c 1.4,0.89 2,1.14 2.4,1.14 0.5,0 0.9,-0.45 0.9,-1.14 0,-0.4 -0.1,-1.4 -0.2,-1.9 l -2.9,-17.08 c -0.5,-2.99 -1.4,-7.52 -2.4,-12.01 l -0.4,-1.84 0.3,-0.3 c 1.1,0.35 2,0.6 3.6,0.85 z"
           id="path5761" /><path
           style="fill:#000000;stroke-width:0"
           inkscape:connector-curvature="0"
           d="m 1328.5,358.01 0.4,0 4.9,2.2 c 0,0.04 0.1,0.04 0.1,0.04 0.2,0 0.3,-0.35 0.3,-1.25 l 0,-18.37 c 0,-1.97 -0.4,-2.38 -2.4,-2.49 l -2.2,-0.12 0,-1.13 12.2,0 0,1.13 -1.9,0.12 c -2.1,0.11 -2.5,0.52 -2.5,2.49 l 0,22.46 -0.5,0.18 c -2.5,-1.29 -5.2,-2.42 -8.6,-3.63 z"
           id="path5763" /><path
           style="fill:#000000;stroke-width:0"
           inkscape:connector-curvature="0"
           d="m 1369.2,383.06 0,0.17 0,0.18 0,0.17 0,0.08 0,0.09 0,0.08 0,0.08 0,0.08 0,0.07 0,0.08 0,0.07 -0.1,0.07 0,0.07 0,0.06 0,0.06 -0.1,0.06 0,0.06 0,0.05 -0.1,0.04 0,0.05 -0.1,0.04 0,0.04 -0.1,0.01 0,0.02 0,0.01 -0.1,0.02 0,0.01 0,0.01 -0.1,0.01 0,0.01 -0.1,0 0,0.01 -0.1,0 0,0.01 0,0 -0.1,0 c -1,0 -1,-0.93 -1,-1.87 l 0,-48.17 c 0,-0.93 0,-1.87 1,-1.87 1,0 1,0.94 1,1.87 z"
           id="path5765" /><path
           style="fill:#000000;stroke-width:0"
           inkscape:connector-curvature="0"
           d="m 1392,358.98 0,0.38 0,0.4 0,0.41 0,0.42 -0.1,0.88 0,0.92 -0.1,0.95 -0.1,0.99 -0.2,1.02 -0.1,1.04 -0.2,1.07 -0.3,1.08 -0.3,1.09 -0.3,1.11 -0.4,1.11 -0.4,1.11 -0.2,0.55 -0.2,0.56 -0.3,0.55 -0.2,0.55 c -3.1,6.38 -7.6,9.76 -8.1,9.76 -0.3,0 -0.5,-0.21 -0.5,-0.52 0,-0.16 0,-0.26 0.9,-1.2 5.1,-5.13 8.1,-13.39 8.1,-24.23 0,-8.88 -1.9,-18.02 -8.4,-24.55 -0.6,-0.63 -0.6,-0.73 -0.6,-0.89 0,-0.31 0.2,-0.52 0.5,-0.52 0.5,0 5.2,3.53 8.2,10.12 2.7,5.72 3.3,11.48 3.3,15.84 z"
           id="path5767" /></g>    </g>
    <g
       id="g5928"
       transform="translate(-824.28447,197.98989)">
      <g
         word-spacing="normal"
         letter-spacing="normal"
         font-size-adjust="none"
         font-stretch="normal"
         font-weight="normal"
         font-variant="normal"
         font-style="normal"
         stroke-miterlimit="10.433"
         xml:space="preserve"
         transform="matrix(1.0629921,0,0,-1.0629921,-186.02362,789.27165)"
         id="g5930"
         style="font-style:normal;font-variant:normal;font-weight:normal;font-stretch:normal;letter-spacing:normal;word-spacing:normal;text-anchor:start;fill:none;fill-opacity:1;fill-rule:evenodd;stroke:#000000;stroke-linecap:butt;stroke-linejoin:miter;stroke-miterlimit:10.43299961;stroke-dasharray:none;stroke-dashoffset:0;stroke-opacity:1"><path
           id="path5932"
           d="m 1077.2,333.54 0,0.03 0,0.03 0,0.02 0,0.01 0,0.02 0,0.01 0,0.02 0,0.02 -0.1,0.02 0,0.02 0,0.02 0,0.03 0,0.02 0,0.03 -0.1,0.03 0,0.03 0,0.04 0,0.04 -0.1,0.02 0,0.02 0,0.02 0,0.02 0,0.02 0,0.03 -0.1,0.02 0,0.03 0,0.02 0,0.03 -0.1,0.03 0,0.02 0,0.03 0,0.03 -0.1,0.04 0,0.03 0,0.03 -0.1,0.04 0,0.03 0,0.04 -0.1,0.03 0,0.04 -0.1,0.04 0,0.04 c -6.5,6.55 -8.1,16.36 -8.1,24.3 0,9.03 1.9,18.06 8.3,24.55 0.7,0.62 0.7,0.72 0.7,0.88 0,0.36 -0.2,0.52 -0.5,0.52 -0.6,0 -5.2,-3.53 -8.3,-10.12 -2.6,-5.71 -3.3,-11.47 -3.3,-15.83 0,-4.05 0.6,-10.33 3.5,-16.2 3.1,-6.38 7.5,-9.76 8.1,-9.76 0.3,0 0.5,0.16 0.5,0.52 z"
           inkscape:connector-curvature="0"
           style="fill:#000000;stroke-width:0" /><path
           id="path5934"
           d="m 1097.2,378.18 5.3,0.2 c 3.1,0 5.1,-0.45 5.2,-1.2 l 0.4,-4.43 1.1,0 c 0.2,3.14 0.6,5.68 1.1,7.57 -1.1,0.1 -2.5,0.15 -3.3,0.15 l -19.3,0 -0.2,-1.4 2.8,-0.09 c 1.2,-0.05 1.8,-0.5 1.8,-1.35 0,-0.7 -0.2,-2.29 -0.5,-3.79 l -3.7,-21.61 c -0.9,-4.59 -0.9,-4.64 -2.9,-4.84 l -1.8,-0.14 -0.2,-1.4 13.2,0 0.1,1.4 -3.1,0.14 c -1.4,0.06 -1.8,0.45 -1.8,1.45 0,0.3 0,0.85 0.1,1.05 l 1.8,11.1 5.8,0 c 1.3,0 2.9,-0.04 5.3,-0.15 l 1.3,-0.05 0.9,2.25 -0.2,0.34 c -4,-0.2 -7,-0.29 -10.9,-0.29 l -1.8,0 2.2,13.5 c 0.2,0.79 0.3,1.04 0.5,1.59 z"
           inkscape:connector-curvature="0"
           style="fill:#000000;stroke-width:0" /><path
           id="path5936"
           d="m 1113.7,365.33 0.3,-1 1.6,1.05 c 1.9,1.14 2,1.24 2.4,1.24 0.5,0 0.9,-0.5 0.9,-1.14 0,-0.35 -0.2,-1.5 -0.4,-2.19 l -3.3,-11.96 c -0.4,-1.54 -0.7,-2.89 -0.7,-3.83 0,-1.2 0.6,-1.95 1.5,-1.95 1.3,0 3.1,1.05 8,4.68 l -0.5,0.9 -1.3,-0.84 c -1.4,-0.95 -2.6,-1.5 -3,-1.5 -0.4,0 -0.7,0.5 -0.7,1 0,0.5 0.1,0.94 0.4,1.99 l 3.8,15.14 c 0.2,0.85 0.3,1.4 0.3,1.79 0,0.85 -0.4,1.3 -1.2,1.3 -1.1,0 -3,-1.05 -6.7,-3.69 z"
           inkscape:connector-curvature="0"
           style="fill:#000000;stroke-width:0" /><path
           id="path5938"
           d="m 1123.4,381.47 -0.2,-0.01 -0.1,-0.01 -0.1,-0.02 -0.2,-0.03 -0.1,-0.05 -0.1,-0.04 -0.2,-0.06 -0.1,-0.06 -0.1,-0.08 -0.2,-0.07 -0.1,-0.09 -0.1,-0.09 -0.1,-0.1 -0.1,-0.1 -0.1,-0.11 -0.1,-0.12 -0.1,-0.11 -0.1,-0.13 -0.1,-0.13 -0.1,-0.13 -0.1,-0.14 -0.1,-0.14 0,-0.14 -0.1,-0.14 0,-0.15 -0.1,-0.15 0,-0.16 -0.1,-0.15 0,-0.16 0,-0.15 0,-0.16 0,-0.16 c 0,-1.25 0.7,-2.04 1.9,-2.04 1.6,0 2.8,1.44 2.8,3.34 0,1.19 -0.8,2.04 -1.8,2.04 z"
           inkscape:connector-curvature="0"
           style="fill:#000000;stroke-width:0" /><path
           id="path5940"
           d="m 1128.2,365.33 0.3,-1 1.6,1.05 c 1.9,1.14 2,1.24 2.4,1.24 0.5,0 0.9,-0.5 0.9,-1.24 0,-2.54 -2.1,-12.16 -4.1,-19.28 l 0.3,-0.55 c 1.3,0.35 2.4,0.65 3.5,0.85 1,6.28 2,9.51 4.3,12.95 2.7,4.19 6.4,7.27 8.7,7.27 0.5,0 0.8,-0.44 0.8,-1.19 0,-0.9 -0.1,-1.95 -0.5,-3.54 l -2.6,-10.56 c -0.5,-1.84 -0.7,-2.99 -0.7,-3.79 0,-1.24 0.6,-1.99 1.5,-1.99 1.3,0 3.1,1.05 8,4.68 l -0.5,0.9 -1.3,-0.84 c -1.4,-0.95 -2.5,-1.5 -3,-1.5 -0.4,0 -0.7,0.45 -0.7,1 0,0.25 0.1,0.79 0.1,0.99 l 3.3,13.75 c 0.4,1.45 0.6,2.84 0.6,3.68 0,1.15 -0.6,1.8 -1.6,1.8 -2.1,0 -5.5,-1.89 -8.4,-4.63 -1.9,-1.75 -3.3,-3.44 -5.9,-7.08 l 1.9,8.02 c 0.2,0.9 0.3,1.5 0.3,2.05 0,1.04 -0.4,1.64 -1.2,1.64 -1,0 -3,-1.1 -6.6,-3.69 z"
           inkscape:connector-curvature="0"
           style="fill:#000000;stroke-width:0" /><path
           id="path5942"
           d="m 1173.2,333.54 0,0.03 0,0.03 0,0.02 0,0.01 0,0.02 0,0.01 0,0.02 0,0.02 -0.1,0.02 0,0.02 0,0.02 0,0.03 0,0.02 0,0.03 -0.1,0.03 0,0.03 0,0.04 0,0.04 -0.1,0.02 0,0.02 0,0.02 0,0.02 0,0.02 0,0.03 -0.1,0.02 0,0.03 0,0.02 0,0.03 -0.1,0.03 0,0.02 0,0.03 0,0.03 -0.1,0.04 0,0.03 0,0.03 -0.1,0.04 0,0.03 0,0.04 -0.1,0.03 0,0.04 -0.1,0.04 0,0.04 c -6.5,6.55 -8.1,16.36 -8.1,24.3 0,9.03 1.9,18.06 8.3,24.55 0.7,0.62 0.7,0.72 0.7,0.88 0,0.36 -0.2,0.52 -0.5,0.52 -0.6,0 -5.2,-3.53 -8.3,-10.12 -2.6,-5.71 -3.3,-11.47 -3.3,-15.83 0,-4.05 0.6,-10.33 3.5,-16.2 3.1,-6.38 7.5,-9.76 8.1,-9.76 0.3,0 0.5,0.16 0.5,0.52 z"
           inkscape:connector-curvature="0"
           style="fill:#000000;stroke-width:0" /><path
           id="path5944"
           d="m 1190.9,355.02 0,3.18 -10.7,0 10.7,17.54 0,-17.54 0,-3.18 0,-3.74 c 0,-2.99 -0.5,-3.69 -2.9,-3.78 l -3.1,-0.16 0,-1.49 15.6,0 0,1.49 -2.4,0.16 c -2.4,0.14 -3,0.79 -3,3.78 l 0,3.74 c 3,0 4,-0.06 5.4,-0.2 l 0,3.54 c -2.3,-0.2 -3.3,-0.2 -4,-0.16 l -0.2,0 -1.2,0 0,6.93 c 0,8.87 0.1,13.15 0.4,15.19 l -0.6,0.25 -3.7,-1.34 -14.1,-23.07 0.6,-1.14 z"
           inkscape:connector-curvature="0"
           style="fill:#000000;stroke-width:0" /><path
           id="path5946"
           d="m 1218,358.98 0,0.38 0,0.4 0,0.41 0,0.42 -0.1,0.88 0,0.92 -0.1,0.95 -0.1,0.99 -0.2,1.02 -0.1,1.04 -0.2,1.07 -0.3,1.08 -0.3,1.09 -0.3,1.11 -0.4,1.11 -0.4,1.11 -0.2,0.55 -0.2,0.56 -0.3,0.55 -0.2,0.55 c -3.1,6.38 -7.6,9.76 -8.1,9.76 -0.3,0 -0.5,-0.21 -0.5,-0.52 0,-0.16 0,-0.26 0.9,-1.2 5.1,-5.13 8.1,-13.39 8.1,-24.23 0,-8.88 -1.9,-18.02 -8.4,-24.55 -0.6,-0.63 -0.6,-0.73 -0.6,-0.89 0,-0.31 0.2,-0.52 0.5,-0.52 0.5,0 5.2,3.53 8.2,10.12 2.7,5.72 3.3,11.48 3.3,15.84 z"
           inkscape:connector-curvature="0"
           style="fill:#000000;stroke-width:0" /><path
           id="path5948"
           d="m 1233.2,352.13 -0.3,-0.08 -0.2,-0.08 -0.3,-0.08 -0.2,-0.08 -0.2,-0.08 -0.3,-0.07 -0.2,-0.08 -0.2,-0.05 -0.1,-0.04 -0.1,-0.04 -0.2,-0.04 -0.1,-0.05 -0.2,-0.04 -0.1,-0.05 -0.2,-0.05 -0.2,-0.05 -0.1,-0.05 -0.2,-0.06 -0.2,-0.05 -0.2,-0.06 -0.2,-0.06 -0.2,-0.06 -0.2,-0.06 -0.3,-0.07 -0.2,-0.07 c -0.4,-3.78 -1.6,-7.02 -4.5,-11.8 l 0.7,-0.55 2,0.95 c 4.1,5.23 6,8.36 7.4,12.2 z"
           inkscape:connector-curvature="0"
           style="fill:#000000;stroke-width:0" /><path
           id="path5950"
           d="m 1257.9,355.02 0,3.18 -10.7,0 10.7,17.54 0,-17.54 0,-3.18 0,-3.74 c 0,-2.99 -0.5,-3.69 -2.9,-3.78 l -3.1,-0.16 0,-1.49 15.6,0 0,1.49 -2.4,0.16 c -2.4,0.14 -3,0.79 -3,3.78 l 0,3.74 c 3,0 4,-0.06 5.4,-0.2 l 0,3.54 c -2.3,-0.2 -3.3,-0.2 -4,-0.16 l -0.2,0 -1.2,0 0,6.93 c 0,8.87 0.1,13.15 0.4,15.19 l -0.6,0.25 -3.7,-1.34 -14.1,-23.07 0.6,-1.14 z"
           inkscape:connector-curvature="0"
           style="fill:#000000;stroke-width:0" /><path
           id="path5952"
           d="m 1279.2,352.13 -0.3,-0.08 -0.2,-0.08 -0.3,-0.08 -0.2,-0.08 -0.2,-0.08 -0.3,-0.07 -0.2,-0.08 -0.2,-0.05 -0.1,-0.04 -0.1,-0.04 -0.2,-0.04 -0.1,-0.05 -0.2,-0.04 -0.1,-0.05 -0.2,-0.05 -0.2,-0.05 -0.1,-0.05 -0.2,-0.06 -0.2,-0.05 -0.2,-0.06 -0.2,-0.06 -0.2,-0.06 -0.2,-0.06 -0.3,-0.07 -0.2,-0.07 c -0.4,-3.78 -1.6,-7.02 -4.5,-11.8 l 0.7,-0.55 2,0.95 c 4.1,5.23 6,8.36 7.4,12.2 z"
           inkscape:connector-curvature="0"
           style="fill:#000000;stroke-width:0" /><path
           id="path5954"
           d="m 1298.2,383.06 0,0.17 0,0.18 0,0.17 0,0.08 0,0.09 0,0.08 0,0.08 0,0.08 0,0.07 0,0.08 0,0.07 -0.1,0.07 0,0.07 0,0.06 0,0.06 -0.1,0.06 0,0.06 0,0.05 -0.1,0.04 0,0.05 -0.1,0.04 0,0.04 -0.1,0.01 0,0.02 0,0.01 -0.1,0.02 0,0.01 0,0.01 -0.1,0.01 0,0.01 -0.1,0 0,0.01 -0.1,0 0,0.01 0,0 -0.1,0 c -1,0 -1,-0.93 -1,-1.87 l 0,-48.17 c 0,-0.93 0,-1.87 1,-1.87 1,0 1,0.94 1,1.87 z"
           inkscape:connector-curvature="0"
           style="fill:#000000;stroke-width:0" /><path
           id="path5956"
           d="m 1328.7,346.15 0.5,-0.15 c 1.3,-0.4 2,-0.55 2.6,-0.55 l 1.5,2.34 c -1.5,0 -2.8,0.35 -4.1,1.15 l 0.9,5.28 c 1.1,6.37 6.5,12.9 10.6,12.9 1.3,0 1.9,-1.1 1.9,-3.39 0,-4.03 -2,-9.96 -4.7,-13.75 -1,-1.44 -2.5,-2.19 -4.6,-2.19 l -1.5,-2.34 c 2.8,0 8.5,3.64 10.6,6.78 2.1,3.04 3.8,8.52 3.8,12.25 0,3.34 -1.2,5.53 -3,5.53 -2.1,0 -4.7,-1.3 -7.3,-3.63 -2,-1.75 -3,-3.04 -4.8,-5.99 l 1.2,5.93 c 0.1,0.85 0.2,1.6 0.2,2.2 0,0.94 -0.4,1.49 -1.1,1.49 -1,0 -2.9,-1.05 -6.6,-3.69 l -1.4,-0.99 0.4,-1 1.5,1.05 c 1.4,0.89 2,1.14 2.4,1.14 0.5,0 0.9,-0.45 0.9,-1.14 0,-0.4 -0.1,-1.4 -0.2,-1.9 l -2.9,-17.08 c -0.5,-2.99 -1.4,-7.52 -2.4,-12.01 l -0.4,-1.84 0.3,-0.3 c 1.1,0.35 2,0.6 3.6,0.85 z"
           inkscape:connector-curvature="0"
           style="fill:#000000;stroke-width:0" /><path
           id="path5958"
           d="m 1348.6,338.87 0,-0.98 17.1,0 c -0.1,0.79 -0.1,1.17 -0.1,1.7 0,0.49 0,0.87 0.1,1.7 -4.3,-0.18 -6.1,-0.22 -13.1,-0.38 l 6.9,7.31 c 3.7,3.9 4.8,5.98 4.8,8.82 0,4.35 -2.9,7.05 -7.7,7.05 -2.8,0 -4.6,-0.76 -6.5,-2.66 l -0.6,-5.14 1.1,0 0.5,1.74 c 0.6,2.19 1.9,3.14 4.5,3.14 3.2,0 5.3,-2.05 5.3,-5.26 0,-2.84 -1.6,-5.64 -5.9,-10.19 z"
           inkscape:connector-curvature="0"
           style="fill:#000000;stroke-width:0" /><path
           id="path5960"
           d="m 1392.2,383.06 0,0.17 0,0.18 0,0.17 0,0.08 0,0.09 0,0.08 0,0.08 0,0.08 0,0.07 0,0.08 0,0.07 -0.1,0.07 0,0.07 0,0.06 0,0.06 -0.1,0.06 0,0.06 0,0.05 -0.1,0.04 0,0.05 -0.1,0.04 0,0.04 -0.1,0.01 0,0.02 0,0.01 -0.1,0.02 0,0.01 0,0.01 -0.1,0.01 0,0.01 -0.1,0 0,0.01 -0.1,0 0,0.01 0,0 -0.1,0 c -1,0 -1,-0.93 -1,-1.87 l 0,-48.17 c 0,-0.93 0,-1.87 1,-1.87 1,0 1,0.94 1,1.87 z"
           inkscape:connector-curvature="0"
           style="fill:#000000;stroke-width:0" /><path
           id="path5962"
           d="m 1415,358.98 0,0.38 0,0.4 0,0.41 0,0.42 -0.1,0.88 0,0.92 -0.1,0.95 -0.1,0.99 -0.2,1.02 -0.1,1.04 -0.2,1.07 -0.3,1.08 -0.3,1.09 -0.3,1.11 -0.4,1.11 -0.4,1.11 -0.2,0.55 -0.2,0.56 -0.3,0.55 -0.2,0.55 c -3.1,6.38 -7.6,9.76 -8.1,9.76 -0.3,0 -0.5,-0.21 -0.5,-0.52 0,-0.16 0,-0.26 0.9,-1.2 5.1,-5.13 8.1,-13.39 8.1,-24.23 0,-8.88 -1.9,-18.02 -8.4,-24.55 -0.6,-0.63 -0.6,-0.73 -0.6,-0.89 0,-0.31 0.2,-0.52 0.5,-0.52 0.5,0 5.2,3.53 8.2,10.12 2.7,5.72 3.3,11.48 3.3,15.84 z"
           inkscape:connector-curvature="0"
           style="fill:#000000;stroke-width:0" /></g>    </g>
  </g>
</svg>
